<svg width="48" height="48" viewBox="0 0 48 48" fill="none" xmlns="http://www.w3.org/2000/svg">
<g clip-path="url(#clip0_106_18309)">
<rect width="48" height="48" rx="16" fill="#E1D6CC"/>
<path fill-rule="evenodd" clip-rule="evenodd" d="M4.65726 68.8101C12.0175 69.9362 19.5113 69.9929 26.9328 69.5839C29.8699 69.3624 32.816 69.3225 35.7508 69.6057C37.4849 69.7356 45.0883 70.3211 45.7095 68.7565C45.3186 60.4251 44.5267 52.0228 42.0974 44.01C41.0984 41.1649 40.2403 38.8035 38.2904 36.4491C37.6759 35.8063 36.3506 34.4581 35.5912 34.0184C34.9333 33.6375 34.6583 33.7734 34.2806 33.13C33.9052 32.4194 33.6283 31.2325 33.0953 30.731C32.5525 30.2204 31.7482 30.4031 30.7513 30.5675C30.9345 28.0744 29.7921 27.4394 28.2182 26.9653C25.4517 25.9018 22.7196 26.4361 22.0233 29.8285C20.7322 29.8285 20.007 30.3882 19.223 30.9259C18.9025 31.1457 19.1255 31.7058 18.7427 31.8786C18.0344 32.1326 16.7828 32.0704 16.1009 32.383C12.9998 33.8046 10.2378 35.8661 8.42396 38.8769C4.35747 45.3049 1.56411 58.8456 2.04749 66.4642C1.83571 66.7988 2.12857 67.2785 2.20301 67.6383C2.29697 67.9512 2.60125 68.1594 2.91882 68.1238C3.36197 68.6038 4.04739 68.7107 4.65726 68.8101Z" fill="#F5F4F3"/>
<path fill-rule="evenodd" clip-rule="evenodd" d="M35.1225 33.8299C35.0773 33.8045 35.1171 33.7395 35.1625 33.761C37.3453 34.7925 39.0198 36.6023 40.1981 38.6933C41.4181 40.8584 42.1135 43.3167 42.713 45.7194L42.7346 45.8062C43.3739 48.3764 43.9175 50.9733 44.4068 53.5765C44.9024 56.2126 45.3002 58.8651 45.6202 61.5286C45.7785 62.8455 45.9197 64.1648 46.0297 65.4867C46.0847 66.1473 46.1347 66.8084 46.1796 67.4697C46.1975 67.7342 46.2144 67.9988 46.2289 68.2635L46.2393 68.4621C46.2483 68.6422 46.2695 68.8228 46.2253 69.0005C46.1872 69.1537 46.1067 69.2924 46.0359 69.433C45.8958 69.711 45.5119 69.6652 45.361 69.433L45.3171 69.3654C45.217 69.2095 45.1339 69.0647 45.1025 68.8708C45.0721 68.683 45.071 68.4863 45.0573 68.2966C45.0323 67.9476 45.0109 67.5983 44.9866 67.2493C44.9355 66.5144 44.8781 65.7801 44.8145 65.0463C44.6888 63.5976 44.554 62.1503 44.3884 60.7056C44.0942 58.1382 43.7251 55.5776 43.2899 53.0306C42.8646 50.5425 42.3271 48.0796 41.7663 45.6198L41.7082 45.3654C40.7262 41.0708 39.2129 36.125 35.1225 33.8299ZM11.8725 50.6466C11.8885 50.6037 11.9576 50.5938 11.9693 50.6466C12.1163 51.3135 12.1308 52.0004 12.1533 52.6832C12.1755 53.3567 12.1746 54.0333 12.1648 54.7072C12.1289 57.184 12.0614 59.6587 12.003 62.1351C11.9738 63.3738 11.9465 64.6127 11.9254 65.8516C11.9175 66.3163 11.9108 66.7809 11.9053 67.2456L11.8985 67.8584C11.8951 68.1294 11.888 68.397 11.8552 68.6677C11.8336 68.8458 11.7875 69.0156 11.6899 69.1682C11.6207 69.2765 11.522 69.3315 11.4258 69.4051L11.4078 69.4191C11.2851 69.5168 11.1559 69.5175 11.0343 69.4191L10.9991 69.391C10.883 69.2995 10.7826 69.2281 10.7085 69.0835C10.6054 68.8824 10.5889 68.664 10.5714 68.4424C10.5448 68.1065 10.5625 67.7655 10.5659 67.4286C10.5728 66.7527 10.5821 66.0769 10.5938 65.4011C10.637 62.9227 10.7225 60.4438 10.8781 57.9698C10.9514 56.8045 11.0509 55.6354 11.1843 54.4748L11.2097 54.2573C11.2501 53.9159 11.287 53.5683 11.3286 53.2196C10.7079 52.7799 10.1623 52.2463 9.6971 51.641C9.66285 51.5964 9.71924 51.5339 9.76059 51.5771C10.236 52.0729 10.781 52.4682 11.3845 52.779C11.4834 52.0491 11.6193 51.3232 11.8725 50.6466ZM22.2416 28.5541C22.2501 28.5474 22.2634 28.5446 22.2715 28.5541C22.405 28.7108 22.3779 28.9503 22.3822 29.1489L22.3827 29.1673C22.3923 29.4576 22.3941 29.747 22.3931 30.0375L22.3901 30.962C22.3897 31.0891 22.3795 31.2214 22.386 31.3493L22.3894 31.3988C22.4594 31.4711 22.492 31.5756 22.4682 31.6805C22.4639 31.8151 22.3941 31.9275 22.2922 31.998L22.5106 32.3102L22.7292 32.6222C23.1799 33.266 23.6355 33.9042 24.1103 34.5303C24.5945 35.1687 25.111 35.783 25.6515 36.3737C25.9156 36.6623 26.1841 36.9469 26.4589 37.2252C26.5706 37.3383 26.6851 37.4486 26.7983 37.5601L26.9109 37.6722C26.9774 37.7392 27.0611 37.8055 27.1053 37.8904C27.1313 37.9406 27.1372 38.064 27.1465 38.0845C27.2299 38.2691 27.0876 38.5635 26.8512 38.4714L26.8619 38.4642C26.905 38.434 26.8774 38.4336 26.7792 38.4629C26.7172 38.4627 26.6591 38.4483 26.6048 38.4199L26.5886 38.4109C26.5122 38.3718 26.4439 38.296 26.3818 38.2355L26.3664 38.2207C26.2244 38.0866 26.089 37.9445 25.9529 37.8043C25.6688 37.512 25.3911 37.2135 25.1223 36.9069C24.5859 36.2952 24.0775 35.6587 23.5959 35.0025C23.1055 34.3342 22.6496 33.6315 22.2575 32.8999C22.1087 32.6223 21.9723 32.3394 21.8416 32.0531C21.587 31.9708 21.5279 31.6981 21.5457 31.3909C21.4518 31.1706 21.3672 30.9458 21.3171 30.716C21.3103 30.6845 21.3505 30.6549 21.3745 30.6824C21.4559 30.7756 21.5313 30.8748 21.6038 30.9765C21.6475 30.7612 21.7028 30.5629 21.7288 30.4365L21.8417 29.8788C21.2058 29.8454 20.509 30.1086 20.0706 30.5693C20.0471 30.6892 19.9554 30.7751 19.8661 30.8873C19.764 31.0155 19.6749 31.1593 19.6085 31.3098C19.4612 31.6432 19.5443 32.1347 19.2584 32.3793C19.2286 32.4048 19.1953 32.4225 19.161 32.4334C19.2966 33.1036 19.2351 33.8419 19.2321 34.5218L19.232 34.5816C19.2327 35.3425 19.2074 36.104 19.1783 36.8642L19.1486 37.6166C19.1101 38.6201 19.0851 39.624 19.1819 40.622C19.6239 40.2277 20.0809 39.8514 20.5536 39.4929C20.8645 39.2571 21.1815 39.0297 21.5044 38.8108L21.7667 38.6343C22.081 38.422 22.4029 38.2035 22.7471 38.0514C23.1972 37.8526 23.6253 37.921 24.0599 38.1249C24.4927 38.328 24.9126 38.5639 25.3371 38.7841C25.7688 39.0079 26.2015 39.2298 26.6339 39.4524C26.9203 39.5998 27.3401 39.7329 27.5501 40.0043C27.5635 39.9442 27.5792 39.8843 27.5974 39.8247C27.5766 39.7337 27.5846 39.6354 27.6353 39.5417C28.3412 38.2352 28.9943 36.8973 29.6429 35.5612C29.9712 34.885 30.2833 34.2008 30.6122 33.525L30.9319 32.8668C30.9853 32.7572 31.0389 32.6476 31.0928 32.5382C31.1735 32.3744 31.2575 32.2122 31.339 32.0488C31.3735 31.9798 31.4167 31.9112 31.4503 31.8416L31.4662 31.8066C31.467 31.8048 31.5444 31.5594 31.4846 31.5828L31.4794 31.5853C31.4489 31.6027 31.4244 31.564 31.4442 31.5393C31.5288 31.4339 31.6467 31.5273 31.695 31.6249C31.828 31.8933 31.5843 32.3148 31.4905 32.5718L31.4854 32.5862C31.1944 33.4159 30.8649 34.23 30.5273 35.0412C29.8801 36.5966 29.1847 38.1281 28.4909 39.6623L28.4827 39.6887C28.6306 39.5744 28.7886 39.4707 28.9239 39.3698C29.2651 39.1152 29.6163 38.8731 29.967 38.6318C30.61 38.1892 31.2705 37.7759 31.9419 37.3788L32.0763 37.2996C32.4117 37.1028 32.7439 36.9432 33.142 37.0023C33.5119 37.0572 33.8557 37.2573 34.1898 37.4199L34.2243 37.4365L35.2567 37.931C35.1464 37.4876 35.0269 37.0464 34.9022 36.6069C34.659 35.7495 34.3915 34.8994 34.1014 34.0569C33.8304 33.2697 33.5374 32.4911 33.2276 31.7187L33.1343 31.4868C33.0079 31.1688 32.8823 30.822 32.5212 30.7241C32.1604 30.6262 31.7465 30.7714 31.4167 30.5642C31.3867 30.5453 31.3904 30.4956 31.4268 30.4864L31.6303 30.4347C32.0124 30.3389 32.4603 30.2426 32.8216 30.3357C33.2148 30.4372 33.5401 30.7696 33.7309 31.1152C33.943 31.4996 34.0925 31.9298 34.2535 32.3397L34.279 32.4042C34.4637 32.8681 34.6414 33.3348 34.8114 33.8044C35.1514 34.7431 35.4608 35.693 35.741 36.6516C35.8759 37.1135 36.004 37.5777 36.1271 38.043C36.1625 38.1768 36.2208 38.3391 36.2687 38.5083C36.3236 38.5622 36.3755 38.6224 36.4243 38.691C36.5051 38.8048 36.4471 38.9383 36.3466 39.0065C36.3427 39.1229 36.317 39.2324 36.2556 39.3263C36.0159 39.6929 35.3821 39.5984 35.4079 39.1057C35.4118 39.0302 35.441 38.9582 35.4851 38.8974L35.4839 38.8875L35.4789 38.8695C35.3688 38.8163 35.2584 38.7572 35.1419 38.6992L34.0584 38.1599C33.7446 38.0037 33.3968 37.7623 33.0478 37.7028C32.7225 37.6473 32.3793 37.8914 32.0997 38.0387L32.0816 38.0482C31.4058 38.3971 30.735 38.7576 30.0669 39.121C29.7408 39.2985 29.4189 39.4833 29.094 39.6629C28.8223 39.8131 28.5291 40.0286 28.2238 40.1133C28.0934 40.2155 27.9384 40.2018 27.8139 40.1246C27.8708 40.4796 27.8673 40.8438 27.8848 41.2068C27.9083 41.692 27.9119 42.1785 27.9196 42.6643L27.9228 42.8465C27.9433 43.9206 27.9543 44.9949 27.9583 46.0692C27.9727 49.8947 27.9308 53.7214 27.921 57.5469C27.916 59.4689 27.8782 61.3926 27.8286 63.314C27.8076 64.1281 27.7637 64.9413 27.7162 65.7542L27.6901 66.1976C27.6348 67.1331 27.6022 68.079 27.4303 69.0019C27.4078 69.1223 27.2056 69.1254 27.1857 69.0019C27.0275 68.013 27.0187 67.0023 26.9883 66.0018L26.9819 65.8018C26.9453 64.7275 26.9279 63.6539 26.9317 62.579C26.9452 58.7519 27.0439 54.9273 27.1247 51.1013C27.1654 49.179 27.1927 47.2559 27.2558 45.3342C27.2873 44.3727 27.323 43.4118 27.3654 42.4507C27.3843 42.0215 27.4025 41.5928 27.4308 41.1643L27.4436 40.9807C27.4524 40.8609 27.4595 40.7425 27.4681 40.6253C27.0837 40.7667 26.7322 40.5049 26.3864 40.3257C25.9878 40.1192 25.5895 39.9123 25.1908 39.7062L24.7917 39.5004L23.9932 39.09C23.6336 38.9052 23.3566 38.7212 22.9731 38.938C21.5916 39.7188 20.322 40.7577 19.1714 41.8478C18.9508 42.0569 18.4846 42.0007 18.4287 41.6503C18.19 40.1535 18.3352 38.635 18.4571 37.1336L18.502 36.5762C18.5565 35.9104 18.6157 35.2447 18.6948 34.5816C18.7301 34.285 18.7653 33.9886 18.8042 33.6925L18.8342 33.4706C18.8829 33.1197 18.9146 32.7709 19.0184 32.4344C18.9857 32.4237 18.9542 32.4062 18.926 32.3793C18.614 32.0811 18.7645 31.5637 18.9068 31.209C19.0474 30.8589 19.2617 30.5534 19.5302 30.2904C19.5887 30.233 19.6713 30.196 19.7542 30.1941C20.4051 29.7597 21.1191 29.5429 21.8623 29.78C21.8831 29.6795 21.9044 29.5791 21.9268 29.479L21.9496 29.379C22.0074 29.1306 22.0289 28.7203 22.2416 28.5541ZM28.9124 67.7818C29.1143 67.7258 29.3355 67.7848 29.4835 67.9339C29.6314 68.0829 29.69 68.3056 29.6343 68.5091C29.6065 68.6093 29.5562 68.6962 29.4835 68.77C29.4155 68.8381 29.3361 68.8866 29.2455 68.9157L29.2244 68.9221L29.1914 68.9359C29.0902 68.9633 28.9889 68.9633 28.8877 68.9359C28.7909 68.9086 28.7069 68.8592 28.6356 68.788C28.5648 68.7161 28.5158 68.6315 28.4887 68.534C28.4614 68.432 28.4614 68.33 28.4887 68.228L28.5025 68.1947C28.5303 68.0946 28.5806 68.0076 28.6533 67.9339C28.7266 67.8606 28.8129 67.8099 28.9124 67.7818ZM40.905 47.5079C40.9382 47.4696 40.992 47.5187 40.9714 47.5595C40.6568 48.1808 40.3061 48.7976 39.9615 49.4031C39.9891 49.5709 40.0165 49.7374 40.048 49.8996C40.1823 50.5912 40.3467 51.2703 40.4539 51.9684C40.8393 54.4779 41.0393 57.0147 41.211 59.5467C41.3832 62.0878 41.4052 64.63 41.431 67.1761C41.4333 67.3968 41.2648 67.6532 41.039 67.6948C40.9356 67.7139 40.8583 67.7102 40.7551 67.6948C40.5201 67.66 40.3731 67.3888 40.363 67.1761C40.2957 65.7531 40.205 64.332 40.1 62.9112C39.9139 60.3923 39.8001 57.8669 39.6497 55.3454L39.5968 54.4642C39.54 53.5093 39.488 52.5537 39.471 51.5974C39.4598 50.9638 39.4934 50.3304 39.4727 49.6976C39.4536 49.1133 39.3948 48.4781 39.5227 47.904C39.5274 47.8825 39.5612 47.8771 39.5709 47.8977C39.7039 48.1796 39.7881 48.4861 39.853 48.7989C40.1957 48.3623 40.5446 47.9248 40.905 47.5079ZM18.4601 32.0746C18.5082 32.071 18.5063 32.1438 18.4601 32.1492C17.7877 32.2278 17.1381 32.5035 16.5031 32.7377L16.4488 32.7577C15.8073 32.9922 15.1819 33.2648 14.58 33.5898C13.4033 34.2251 12.3227 35.0444 11.3673 35.9823C7.55298 39.7263 5.81467 45.1253 4.54093 50.199C3.83321 53.0179 3.32994 55.8845 3.00374 58.773C2.84245 60.2015 2.72842 61.6355 2.66194 63.0718C2.62791 63.8078 2.60645 64.5446 2.59749 65.2814C2.59287 65.6588 2.59152 66.0363 2.59197 66.4137C2.59219 66.5867 2.62284 66.8044 2.57693 66.9723C2.53433 67.1279 2.41422 67.2649 2.32538 67.3945C2.22008 67.5483 2.03084 67.5402 1.92408 67.3945L1.88471 67.3415C1.77085 67.1894 1.65944 67.0439 1.64318 66.845C1.62577 66.6319 1.63805 66.4121 1.63726 66.198C1.63546 65.7667 1.64076 65.3352 1.64932 64.904C1.66583 64.0773 1.69817 63.251 1.74622 62.4256C1.8438 60.7506 2.00442 59.079 2.23439 57.4171C2.64318 54.4632 3.25591 51.5375 4.0585 48.6668C4.81569 45.9587 5.7127 43.2586 6.99056 40.75C8.17704 38.421 9.73355 36.2542 11.7874 34.6265C12.7425 33.8695 13.7822 33.2387 14.9032 32.7636C15.4685 32.524 16.0622 32.3284 16.666 32.2169C17.2631 32.1066 17.8575 32.122 18.4601 32.0746ZM29.0281 62.995C29.1348 62.9942 29.2537 63.0178 29.3452 63.0772L29.4675 63.1724C29.5006 63.2152 29.5335 63.2583 29.5664 63.3014C29.6428 63.4017 29.653 63.5641 29.637 63.6837C29.6334 63.7635 29.6099 63.8377 29.5664 63.9066L29.4733 64.028C29.3838 64.1015 29.3093 64.1539 29.2009 64.1893C29.1443 64.2077 29.0897 64.2116 29.0354 64.2088L29.0173 64.2076L29.0281 64.2091L29.0091 64.2069C28.9914 64.2054 28.9737 64.2035 28.9558 64.201C28.9437 64.1995 28.9316 64.1986 28.9195 64.1969C28.9078 64.1959 28.8965 64.1955 28.8848 64.1965C28.7471 64.2096 28.6086 64.1309 28.5109 64.0406C28.4228 63.9591 28.3438 63.7864 28.3561 63.664L28.3613 63.6129C28.3706 63.5266 28.3782 63.4926 28.4145 63.4059C28.4498 63.3216 28.4991 63.2472 28.5662 63.1843C28.6946 63.0639 28.8518 62.9962 29.0281 62.995ZM28.6019 56.6795C28.7847 56.4789 29.0985 56.4641 29.3252 56.5855C29.3804 56.6151 29.4311 56.6626 29.4798 56.7022C29.6024 56.8021 29.6506 56.9823 29.6574 57.1341C29.6641 57.2842 29.5855 57.4624 29.4798 57.5661L29.4541 57.5911C29.391 57.653 29.3005 57.7068 29.2122 57.7231C29.0697 57.7495 28.95 57.7487 28.8174 57.6923C28.7033 57.6438 28.6051 57.566 28.5383 57.4603L28.5274 57.4424C28.5229 57.435 28.5185 57.4275 28.5145 57.4198L28.5086 57.4081C28.3816 57.1621 28.4157 56.8837 28.6019 56.6795ZM28.6966 50.3307C28.779 50.3047 28.8614 50.301 28.9438 50.3196C28.9997 50.3197 29.0519 50.334 29.1002 50.3622C29.1527 50.377 29.1984 50.4038 29.237 50.4425C29.2836 50.4702 29.3207 50.5076 29.3482 50.5545C29.4031 50.6148 29.44 50.6856 29.4592 50.7669L29.4813 50.9329L29.4592 51.0989L29.3967 51.2481C29.3795 51.2707 29.3622 51.2933 29.3447 51.3158C29.3171 51.3628 29.28 51.4003 29.2332 51.4281C29.2029 51.4586 29.1681 51.4813 29.1291 51.4971C28.9911 51.5968 28.8072 51.6293 28.6437 51.5839C28.5465 51.5565 28.4622 51.507 28.3907 51.4354C28.3197 51.3633 28.2705 51.2784 28.2433 51.1806L28.2321 51.1025C28.2177 50.9977 28.2154 50.9397 28.2449 50.8065C28.2578 50.748 28.2952 50.6654 28.3148 50.6306C28.3987 50.4822 28.5356 50.3804 28.6966 50.3307ZM35.8533 45.7633C36.09 45.7616 36.3267 45.762 36.5633 45.7647L36.7408 45.7671C37.038 45.7718 37.2925 45.7409 37.5261 45.9486C37.6957 46.0993 37.621 46.3522 37.46 46.4658C37.2162 46.6377 36.9102 46.5513 36.6299 46.5323C36.3342 46.5123 36.0384 46.4958 35.7424 46.4824C35.1692 46.4565 34.5959 46.4401 34.0222 46.4375C33.4497 46.4351 32.8764 46.4405 32.304 46.4498C31.7216 46.4594 31.1152 46.514 30.536 46.4533C30.4565 46.445 30.4386 46.3396 30.5171 46.3122C31.0629 46.122 31.6768 46.0604 32.2487 45.9877C32.8386 45.9126 33.4286 45.8595 34.0222 45.825C34.6319 45.7898 35.2426 45.7676 35.8533 45.7633ZM28.6955 43.8954L28.715 43.8957C28.8192 43.896 28.9167 43.9207 29.0076 43.9698L29.027 43.9807L29.152 44.078C29.2286 44.1557 29.2816 44.2473 29.3109 44.3527L29.333 44.5182C29.3363 44.6039 29.3185 44.6838 29.2798 44.758C29.2548 44.8352 29.2123 44.9019 29.152 44.9583C29.096 45.019 29.0297 45.0619 28.9532 45.0871C28.8851 45.123 28.8123 45.141 28.7346 45.1411L28.715 45.1407C28.6035 45.1403 28.4995 45.112 28.4032 45.0557L28.2781 44.9583C28.2015 44.8807 28.1485 44.7891 28.1192 44.6837L28.097 44.5182C28.0939 44.4325 28.1116 44.3525 28.1503 44.2784C28.1752 44.2012 28.2178 44.1344 28.2781 44.078C28.3341 44.0173 28.4003 43.9744 28.477 43.9493C28.545 43.9133 28.6178 43.8953 28.6955 43.8954ZM30.5275 29.2722C30.6607 29.0779 30.902 29.2507 30.8674 29.4068C30.8765 29.8455 30.8988 30.2712 30.9979 30.7008C31.0433 30.8975 31.1027 31.0945 31.1943 31.2747L31.2328 31.3505C31.3515 31.5866 31.4436 31.8093 31.2838 32.0684C31.2085 32.1905 31.0724 32.2822 30.9248 32.2758C30.2705 32.2474 30.1805 31.3299 30.1408 30.8177C30.0998 30.2902 30.2273 29.7105 30.5275 29.2722Z" fill="black"/>
<path fill-rule="evenodd" clip-rule="evenodd" d="M26.7495 5.54694C29.2718 5.54694 32.2981 6.7787 32.5555 6.80334L32.5624 6.80371C32.6978 6.80371 33.2267 7.20967 34.1493 8.02158L33.1501 9.98484L33.2309 10.0626C33.6179 10.4363 33.9482 10.777 34.209 11.0455C36.3381 13.2381 36.7208 21.8467 36.219 24.8488C35.7173 27.8509 34.7879 30.7885 30.4612 30.7885C26.1346 30.7885 21.321 28.1679 20.5795 27.3518C20.0852 26.8077 19.53 26.5471 18.9138 26.5698C18.8884 26.5376 18.8633 26.5055 18.8384 26.4735L18.7477 26.4606C17.8949 26.3362 17.2839 26.1687 16.9146 25.9583C16.1933 25.5472 15.4005 23.3861 15.4005 22.9101C15.4005 22.4388 14.2167 19.0103 14.193 18.6475L14.1927 18.6374C14.1927 18.3341 12.6461 16.9399 12.6461 16.4971C12.6461 16.0543 12.3344 16.0812 12.6461 14.5209L12.7367 14.0625C13.0684 12.4012 13.7177 9.65043 16.1933 8.45512C18.9138 7.14159 24.2016 5.54694 26.7495 5.54694Z" fill="#F5F4F3"/>
<path fill-rule="evenodd" clip-rule="evenodd" d="M15.7734 8.39339C17.1302 6.94272 24.8328 4.69888 28.7298 5.17452L28.8467 5.18977C29.1577 5.2295 29.4642 5.28966 29.7666 5.37138C30.7443 5.60139 31.7542 5.94968 32.5621 6.53144C33.2365 7.00735 35.364 7.78456 34.737 9.02958C34.9695 9.47332 35.0562 10.0215 34.8991 10.4586C34.8793 10.6095 34.8331 10.7486 34.774 10.8927C35.2708 11.6311 35.6641 12.4662 35.9824 13.2604C36.5388 15.2592 36.885 17.3394 36.9357 19.3788C37.1043 23.2533 36.6826 27.8815 33.3326 30.3869C31.3089 31.9745 28.1389 32.0279 25.8647 30.0594C25.7356 29.9055 25.1287 29.4904 25.3312 29.4175C25.3915 29.4817 25.4535 29.5441 25.5166 29.6054C25.5137 29.5986 25.5131 29.5918 25.5143 29.5844L25.455 29.5303C25.3432 29.4261 25.1984 29.275 25.3633 29.3046C25.3706 29.3131 25.3785 29.3205 25.3864 29.329C25.4213 29.3501 25.4477 29.3684 25.4682 29.3845L25.4788 29.3931L25.4755 29.3896C25.3805 29.2876 25.3236 29.1835 25.4656 29.25L25.4844 29.2592C25.5475 29.3262 25.6117 29.3903 25.6771 29.4527C25.676 29.4453 25.6771 29.438 25.6811 29.43L25.6201 29.3707C25.5607 29.312 25.5697 29.3118 25.5988 29.2643C25.4724 29.0858 25.7084 29.1918 25.725 29.2615C25.8726 29.2263 26.0022 29.5055 26.0973 29.5396C30.2663 32.7681 36.3163 29.9034 36.2183 20.9069L36.2168 20.7308C36.1882 17.8541 35.9478 14.8974 34.7666 12.2934C34.6518 12.0425 34.5233 11.7985 34.3819 11.5624C34.2844 11.3853 34.1802 11.2128 34.0681 11.0448C33.7542 11.0193 33.4444 10.9614 33.1391 10.8717C33.0343 10.8451 32.9306 10.8155 32.827 10.7809C31.3126 10.8641 29.832 10.9546 28.3134 11.0405L27.8391 11.0702C26.5526 11.1535 25.2222 11.287 24.1841 12.0885C23.1655 12.8182 23.1609 14.2571 22.289 15.0583C21.0456 15.9084 21.0365 16.6749 20.7971 17.9276C20.8148 18.872 21.4648 20.2441 20.272 20.6415C20.4732 20.9305 20.1927 20.7917 20.1706 20.6903C20.1684 20.6909 20.1661 20.6914 20.1644 20.6914C20.3438 21.0272 20.0802 20.8158 20.0568 20.7079C20.0428 20.7039 20.0287 20.6937 20.0146 20.6795C20.1953 20.9737 19.9032 20.7677 19.9205 20.7141C19.5714 20.1736 18.8528 20.0896 18.3464 20.2329C18.3402 20.2522 18.3177 20.2539 18.3036 20.2437C16.15 20.7138 16.7056 25.2049 18.9126 24.7707C19.0071 24.7513 19.0048 24.797 19.0236 24.8014C18.9726 24.6665 19.1163 24.7214 19.1148 24.7497L19.1236 24.7493C19.1305 24.7487 19.1277 24.7479 19.1328 24.7497C19.0835 24.474 19.361 24.8735 19.339 24.8899C19.3475 24.8848 19.3571 24.882 19.3656 24.8808L19.356 24.8547C19.31 24.7311 19.3139 24.7825 19.3142 24.7117C19.2797 24.6243 19.2771 24.6625 19.2852 24.6055C19.4068 24.5106 19.4427 24.7985 19.4833 24.8195C19.4137 24.7219 19.469 24.6422 19.5346 24.6952C20.0317 25.7484 20.6737 26.738 21.5035 27.5175C21.5943 27.5896 21.6861 27.6605 21.7813 27.7275C22.1342 28.0372 22.6757 28.2363 23.0061 28.5107C23.0061 28.5152 23.0039 28.5209 23.0005 28.5265L23.0081 28.5334L23.0157 28.5407L23.1306 28.5963C23.1644 28.6253 23.1949 28.6576 23.2219 28.6934C23.2506 28.7269 23.2759 28.7638 23.2974 28.8029C23.3081 28.8506 23.2844 28.8705 23.2394 28.85C23.2196 28.8432 23.1999 28.8353 23.1802 28.8279C23.1813 28.8296 23.1819 28.8307 23.183 28.8319C23.1895 28.8417 23.2333 28.9439 23.1828 28.9273L23.1768 28.9249C23.1492 28.9147 23.1216 28.9034 23.0946 28.8926C23.1267 28.9329 23.1559 28.9766 23.1819 29.0135C23.2095 29.0424 23.2264 29.0765 23.2332 29.1151C23.232 29.1366 23.2202 29.1457 23.1988 29.1429C23.1661 29.1321 23.134 29.1207 23.1019 29.1088L23.111 29.1264C23.1337 29.1714 23.166 29.247 23.1087 29.2218C23.0596 29.2064 23.0123 29.1888 22.965 29.1695C22.961 29.1775 22.9532 29.1803 22.9374 29.1729C22.787 29.119 22.6416 29.0532 22.5025 28.9754C22.3802 28.8858 22.2568 28.7978 22.134 28.7087C22.0185 28.6389 21.9069 28.5612 21.8005 28.4738C21.0881 28.0102 20.4643 27.4214 19.9695 26.7655C19.142 27.4875 17.4874 26.7978 16.4639 26.2326C15.5586 25.7276 15.2028 24.7937 15.1108 23.7868C14.9195 22.4312 13.8198 21.9672 13.8963 18.9929C13.8946 18.9934 13.8928 18.9934 13.8906 18.9934C13.8506 18.9815 13.8118 18.9656 13.7752 18.9452C13.7374 18.927 13.7019 18.9055 13.6686 18.8794L13.6275 18.822C13.6061 18.8101 13.587 18.7976 13.5723 18.7852L13.5647 18.795C13.5407 18.8243 13.5569 18.7803 13.5582 18.7715L13.4868 18.6737C13.3174 18.4407 13.1316 18.1793 12.9802 17.9702L12.9754 17.9787C12.972 17.9851 12.9702 17.9897 12.9718 17.9918C12.6115 17.4703 12.2727 16.8405 12.1785 16.2308C12.0674 15.7611 12.1108 15.2771 12.2078 14.8421C12.6235 13.3186 13.9853 9.87103 15.7734 8.39339ZM25.5507 29.4625L25.5282 29.4423L25.548 29.4674C25.5584 29.4803 25.5691 29.4919 25.5864 29.5038C25.5853 29.4998 25.5853 29.4959 25.5858 29.4913C25.5743 29.4825 25.5625 29.4728 25.5507 29.4625ZM28.7126 5.94003C26.0699 5.71115 23.4706 6.29762 20.9488 7.00752L20.7748 7.05789C19.3409 7.47005 17.8247 7.84093 16.6129 8.72312C14.9199 10.0294 14.0456 12.1074 13.2827 14.026C12.6165 15.4515 12.9571 17.0588 13.961 18.0542C14.0655 17.0651 14.2435 16.1049 14.5219 15.1524C14.5799 15.0036 14.536 14.9549 14.6612 14.9355C14.8503 17.5022 13.919 19.3986 15.7619 22.4406C16.5615 23.876 15.6358 24.9262 17.8939 25.6815L17.955 25.7051C18.4254 25.8839 18.9391 26.025 19.3999 25.9251L19.3586 25.8574C19.3165 25.7878 19.3037 25.754 19.365 25.7242C19.3633 25.7208 19.3611 25.7173 19.3588 25.7134C19.3092 25.6192 19.2613 25.5238 19.2157 25.4273C19.1971 25.4336 19.1785 25.4381 19.1593 25.4432C19.1718 25.4665 19.1734 25.4898 19.1385 25.4977C19.0144 25.5406 18.8869 25.5578 18.7564 25.5498L18.7284 25.5477C18.581 25.5386 18.4881 25.5115 18.405 25.4864C18.3774 25.4818 18.3498 25.4773 18.3227 25.4716C18.0554 25.4119 17.7724 25.26 17.5892 25.1095C15.5015 23.915 15.7172 19.8488 18.2906 19.4645C18.3434 16.9043 19.5523 12.5851 21.5585 10.1455C23.3719 7.90147 28.3225 6.92887 31.7668 7.27182C31.817 7.28856 31.8672 7.30547 31.9174 7.32255C32.4488 7.37011 32.9552 7.60858 33.487 7.71936C33.1052 7.43112 32.6721 7.23913 32.2259 7.07597C31.337 6.52826 30.318 6.2319 29.3335 6.02289C29.1295 5.97238 28.9228 5.94457 28.7126 5.94003ZM18.1729 21.5211C18.3112 21.4454 18.2954 21.5185 18.3272 21.4973C19.3225 21.4155 20.3957 22.2933 20.952 23.0251C20.9081 23.071 20.7892 22.9348 20.7684 22.9132C20.7655 22.9161 20.7622 22.9184 20.7588 22.9195L20.7743 22.9415C20.9998 23.2675 20.5527 22.8839 20.5109 22.8049C20.5036 22.8088 20.4962 22.8111 20.4878 22.8094C20.5232 22.8444 20.6314 22.9357 20.65 23.0006L20.6787 23.0247C20.9493 23.2581 20.9268 23.4337 20.6197 23.1022C20.6269 23.1176 20.6298 23.1317 20.6247 23.1431L20.6353 23.1502C20.7863 23.2565 20.9105 23.5529 20.5948 23.2487C20.6277 23.4709 20.282 23.0413 20.2709 23.0443C19.6727 22.5713 18.792 22.1113 18.0416 22.0495L18.0158 22.0465C17.8781 22.0287 17.813 21.9875 17.8613 21.8968C17.6917 21.8562 17.7314 21.7721 17.8117 21.7748C17.6921 21.6956 17.7998 21.6198 17.8692 21.6494C17.8215 21.5163 18.0129 21.605 18.0303 21.5864C18.1296 21.4321 18.1564 21.5608 18.1729 21.5211ZM16.0867 13.2723C16.5647 13.0959 17.9767 13.6239 17.8637 14.3232C17.7965 14.4838 17.5748 14.5758 17.4191 14.4851L17.2157 14.3476C16.8619 14.1089 16.5428 13.8996 16.1629 13.6914C15.9562 13.5881 15.8672 13.3687 16.0867 13.2723ZM18.8064 12.2331L18.6218 12.1121C17.6255 11.4553 16.2171 10.46 18.7148 11.4897C18.9995 11.6127 19.3778 11.6855 19.5331 11.9586C19.7771 12.4619 19.1349 12.4957 18.8064 12.2331ZM18.9183 9.28608C18.8384 8.98047 19.8332 9.33908 20.1227 9.43363L20.1668 9.45041C20.4485 9.55614 20.7714 9.65423 20.9399 9.89911C21.1373 10.2375 20.7378 10.3075 20.4903 10.1547C19.9828 9.82068 19.4265 9.56864 18.9183 9.28608ZM21.4479 7.86247C20.888 7.24653 22.3865 7.83658 22.611 8.00037L22.6174 8.0052C22.7849 8.12398 22.7509 8.37982 22.5936 8.45496C22.1458 8.46353 21.8164 8.08761 21.4479 7.86247ZM23.9959 7.18763C23.1057 6.54322 24.2783 6.84973 24.6856 7.10228C24.9631 7.34886 24.6772 7.76513 23.9959 7.18763Z" fill="black"/>
<path fill-rule="evenodd" clip-rule="evenodd" d="M27.1745 23.3538C28.1402 23.2358 29.0764 23.5336 30.0205 23.6837C30.5189 23.763 31.018 23.8221 31.5225 23.8441C31.6239 23.8486 31.7255 23.8512 31.827 23.8533C31.8364 23.7632 31.8865 23.6806 31.9949 23.631C32.217 23.5296 32.3948 23.4838 32.6388 23.4936C32.8621 23.5025 33.0861 23.5256 33.306 23.5662C33.7053 23.6399 34.1063 23.8072 34.3984 24.0979C35.0743 24.7706 34.9714 25.8511 34.4491 26.5838C33.3701 28.0978 31.4008 28.1681 29.7142 28.1483L29.5585 28.1463C28.0228 28.1241 25.8256 28.3548 25.1279 26.5947C24.8713 25.9475 24.907 25.1973 25.2211 24.5765C25.5958 23.8361 26.3845 23.4504 27.1745 23.3538ZM31.9716 25.8746L31.9578 25.8752C31.2498 25.9027 30.5418 25.922 29.8334 25.9346C29.8546 26.1179 29.8762 26.3012 29.9009 26.4841C29.9203 26.628 29.9411 26.7718 29.9628 26.9153C29.9719 26.9761 30.0056 27.0705 29.9961 27.1307L29.9926 27.1545C30.029 27.1711 30.062 27.1978 30.0866 27.2365C30.0951 27.2499 30.1013 27.2634 30.1075 27.2769C30.6575 27.2813 31.2494 27.2705 31.8101 27.1698L31.8113 27.1575C31.8214 27.0854 31.8512 27.0368 31.8908 27.0035C31.9302 26.7734 31.9266 26.5282 31.9418 26.2999C31.9513 26.1581 31.9616 26.0164 31.9716 25.8746ZM29.2923 25.9444C28.7819 25.9531 28.2714 25.9599 27.7611 25.9536L27.5295 25.95C27.5784 26.2143 27.6316 26.4778 27.6759 26.7439C27.722 27.0213 27.4797 27.1976 27.2699 27.1904C27.2935 27.1943 27.317 27.1984 27.3405 27.2017C27.9959 27.2951 28.6763 27.2703 29.3414 27.2696C29.3056 27.0592 29.3201 26.8218 29.3147 26.6462L29.3137 26.619C29.3035 26.394 29.2964 26.1692 29.2923 25.9444ZM25.8257 25.8959C25.8434 26.0333 25.8779 26.1678 25.9294 26.2931C26.1473 26.8223 26.6467 27.0692 27.1752 27.1732C27.0835 27.1413 27.0107 27.0647 26.9923 26.9334C26.9465 26.6071 26.93 26.2753 26.9288 25.944C26.5605 25.9405 26.1897 25.9326 25.8257 25.8959ZM33.8921 25.7829C33.6299 25.8452 33.3252 25.8166 33.068 25.8284C32.827 25.8394 32.5859 25.849 32.3449 25.8589C32.3562 26.0246 32.3673 26.1903 32.3793 26.3559C32.3948 26.57 32.3963 26.7963 32.437 27.0094C32.922 26.8427 33.3567 26.5753 33.6827 26.1477C33.7639 26.0411 33.8367 25.9161 33.8921 25.7829ZM27.0637 24.2221C26.6272 24.3262 26.2141 24.5461 25.9921 24.9484C25.8604 25.1871 25.8024 25.4701 25.8135 25.7489C26.1824 25.7057 26.5577 25.6893 26.9311 25.6757C26.9324 25.608 26.9339 25.5403 26.936 25.4728L26.9417 25.2997C26.9519 24.9696 26.957 24.5551 27.0637 24.2221ZM29.3228 24.2623L29.1307 24.2406C28.597 24.1793 28.0636 24.115 27.5299 24.1519C27.4526 24.1573 27.3742 24.1657 27.2956 24.1773C27.39 24.5202 27.382 24.923 27.4214 25.2624C27.4367 25.3937 27.4559 25.5238 27.4772 25.6535L27.5698 25.6491C28.1425 25.6179 28.7157 25.5986 29.2889 25.5757C29.2888 25.4673 29.2894 25.3589 29.2911 25.2504L29.2932 25.1419C29.2998 24.8647 29.282 24.5525 29.3228 24.2623ZM32.0028 24.2183C31.4438 24.3092 30.8661 24.3285 30.3171 24.3292C30.0978 24.3295 29.8786 24.3159 29.6595 24.2964C29.6738 24.4139 29.6812 24.5327 29.6919 24.6486C29.7136 24.8827 29.7383 25.1165 29.7652 25.3501L29.7891 25.5545C30.4936 25.5223 31.198 25.4875 31.9023 25.4515L32.0017 25.4461L32.0295 25.0534C32.0485 24.7915 32.0693 24.5296 32.0988 24.2689L32.0767 24.2609C32.0507 24.2501 32.0261 24.2353 32.0028 24.2183ZM32.2455 24.3158C32.2763 24.6861 32.2934 25.058 32.316 25.4289L32.7803 25.404C32.8577 25.3997 32.9351 25.3954 33.0124 25.3909C33.3133 25.3734 33.6999 25.2816 33.9974 25.3673C34.0201 25.0949 33.9428 24.8295 33.6987 24.6465C33.2703 24.3251 32.7248 24.4395 32.2455 24.3158ZM30.6592 21.0053C31.3506 20.6065 33.0853 20.1988 33.1952 21.4522C33.2457 22.0289 32.82 22.5068 32.323 22.7201L32.3043 22.7279C31.8381 22.921 31.0118 23.139 30.6083 22.7204C30.2726 22.3719 30.7179 21.7472 31.1352 22.0326C31.3496 22.1793 31.8009 22.0712 32.0402 22.0014L32.0552 21.997C32.3134 21.9206 32.6576 21.6759 32.5508 21.3557C32.4563 21.0724 32.0543 21.0206 31.8025 21.0114C31.4267 20.9979 31.061 21.0858 30.6886 21.1144C30.6296 21.1189 30.6114 21.0329 30.6592 21.0053ZM33.5232 18.9899C34.4615 18.9456 35.0452 19.9777 34.8295 20.8234C34.7922 20.9693 34.6302 21.1125 34.4738 21.0961L34.4344 21.0925C34.4143 21.0905 34.3942 21.088 34.3757 21.0828C34.2272 21.0414 34.0941 20.8858 34.1049 20.7245L34.1078 20.6775C34.1297 20.278 34.0867 19.8178 33.6154 19.721C33.2157 19.639 32.9925 20.0265 32.9878 20.3833C32.9869 20.4466 32.9162 20.4908 32.8606 20.4568C32.5717 20.2796 32.5216 19.9273 32.632 19.6238C32.7719 19.2393 33.122 19.0088 33.5232 18.9899ZM26.5596 19.2113C27.2425 18.9818 27.9792 19.3484 28.3099 19.9566C28.4259 19.9904 28.5417 20.0805 28.5256 20.2184C28.5023 20.4168 28.4673 20.5419 28.3307 20.6923C28.1171 20.9277 27.7171 20.8073 27.6283 20.5176L27.6245 20.5045C27.5237 20.13 27.1144 19.8829 26.7416 20.014C26.3062 20.1671 26.3188 20.6304 26.0133 20.9004C25.9774 20.9321 25.9344 20.9371 25.8913 20.9162C25.5669 20.7582 25.6252 20.2829 25.7409 20.0108C25.8926 19.6538 26.1874 19.3363 26.5596 19.2113ZM25.6296 17.1224C26.183 16.5536 27.6259 16.0033 28.0044 17.0536C28.0765 17.2536 27.923 17.5233 27.7163 17.5648C27.3777 17.6327 27.0773 17.4846 26.7409 17.5112C26.4687 17.5328 26.1847 17.6245 25.967 17.7944C25.364 18.265 25.2314 19.0609 24.8113 19.6599C24.7909 19.689 24.7511 19.6768 24.7474 19.6424C24.6517 18.7704 25.0235 17.7453 25.6296 17.1224ZM32.8462 16.5625C33.2135 16.4318 33.6293 16.443 33.9984 16.5589C34.3702 16.6757 34.7116 16.8975 34.9746 17.1873C35.0939 17.3188 35.2043 17.464 35.2929 17.6185C35.3399 17.7004 35.3894 17.8696 35.4429 17.9703C35.7321 18.1386 35.8558 18.5219 35.5968 18.7946L35.5851 18.8066L35.5505 18.8412C35.4113 18.98 35.2013 19.0402 35.0113 18.9848C34.5861 18.8608 34.5344 18.5234 34.3872 18.1653C34.29 17.9288 34.1234 17.7195 33.9214 17.5657C33.444 17.2025 32.6613 17.0868 32.0866 17.258C32.0561 17.2671 32.0201 17.2278 32.0419 17.1994C32.1508 17.0572 32.2136 16.9406 32.3594 16.826C32.5074 16.7096 32.6689 16.6256 32.8462 16.5625Z" fill="black"/>
<path fill-rule="evenodd" clip-rule="evenodd" d="M26.5196 26.7996C26.9757 25.7232 27.9712 24.9321 29.1174 24.6428C29.9591 24.431 30.8425 24.4377 31.7005 24.5218C32.15 24.5656 32.6322 24.6014 33.0559 24.7696C33.4176 24.9133 33.7125 25.1848 33.9341 25.5036C34.198 25.8813 34.3775 26.3137 34.5035 26.7568C34.5214 26.8198 34.5382 26.8833 34.5539 26.9471C34.4991 27.2814 34.3828 27.566 34.0754 27.7762C33.7754 27.9815 33.4174 28.0654 33.0606 28.0952C33.0256 28.0783 32.9918 28.0609 32.9608 28.0431C32.4047 27.7224 32.0134 26.9647 31.3115 27.0672C30.6852 27.1588 30.2729 27.9527 29.9004 28.4182C28.7049 28.5585 27.5102 28.1966 26.5374 27.5079C26.488 27.2722 26.4851 27.0345 26.5196 26.7996ZM35.3665 25.983C35.2709 25.7127 35.1504 25.4508 35.0076 25.2041C34.5356 24.3884 33.8109 23.7384 32.9506 23.3668C30.9156 22.4891 28.2825 23.1078 26.639 24.5474C26.0776 25.0395 25.51 25.7627 25.3383 26.5405C25.2871 26.5508 25.2387 26.5776 25.1989 26.6155C24.0115 25.8624 22.7887 25.1379 21.8319 24.094C21.137 23.3356 20.6537 22.438 20.3578 21.4517C20.3336 21.3705 20.2036 21.3824 20.2076 21.4722C20.2087 21.4932 20.2098 21.5142 20.211 21.5352C20.1986 21.4966 20.1401 21.5165 20.1356 21.554C19.9763 22.7521 19.7772 24.0224 19.9606 25.2269C20.0703 25.9455 20.3944 26.4717 20.8276 27.0398C21.2918 27.6488 21.8173 28.2152 22.3546 28.7584C22.6955 29.1032 23.0517 29.5008 23.4692 29.7537C23.9547 30.0474 24.5055 30.2707 25.0237 30.4973C25.5509 30.7285 26.086 30.9422 26.6312 31.1274C27.721 31.4989 28.8474 31.7557 29.9935 31.8682C30.9111 31.958 31.9599 32.0557 32.8392 31.708C33.5133 31.4415 34.0573 30.9598 34.4889 30.3803C34.9587 29.7491 35.3301 29.0302 35.5354 28.272C35.7487 27.4845 35.4115 26.11 35.3665 25.983Z" fill="black"/>
<path fill-rule="evenodd" clip-rule="evenodd" d="M37.5264 19.4837C36.9893 23.1436 33.2397 23.5483 32.5735 19.915C32.6805 19.8678 32.7574 19.775 32.7413 19.5947C32.7375 18.803 32.9815 17.9661 33.6906 17.5258C34.4233 17.0714 35.2809 17.0263 36.1288 17.0378C37.7469 16.999 37.7129 18.3614 37.5264 19.4837ZM31.9866 17.892C31.4787 17.8705 30.8362 17.8885 30.3813 18.2002C30.2562 17.8609 29.9313 17.4987 29.6029 17.305C30.8233 17.341 32.0796 17.22 33.3091 17.1261C33.0148 17.3282 32.741 17.6318 32.563 17.9828C32.3979 17.8941 32.1614 17.9024 31.9866 17.892ZM29.7481 19.8718C28.34 24.7544 24.825 22.6262 24.4418 22.0005C23.7506 20.965 23.6205 18.4479 24.2226 17.7748C25.0845 17.1662 26.3046 17.3229 27.3227 17.3079C29.1932 17.3334 30.5216 17.897 29.7481 19.8718ZM39.1891 17.626C38.8065 17.5756 38.3976 17.5655 38.0419 17.7352C37.9324 17.2662 37.5886 16.8742 37.2004 16.7017C37.1534 16.6423 37.1604 16.6104 36.9999 16.6193C36.0143 16.3209 34.9113 16.4788 33.9642 16.7848C32.4683 16.9117 30.8989 17.0118 29.3904 17.1866C27.9774 16.5474 23.713 16.4537 23.448 18.0293C23.1146 17.979 22.5469 17.7147 22.2668 18.0732C20.2121 17.7223 18.089 18.21 16.0254 18.4272C15.5059 18.5236 15.2384 19.562 15.828 19.5478C16.1595 19.4572 15.8178 18.9012 16.2642 18.8594C18.2552 18.6403 20.2027 18.3295 22.2142 18.2932C22.1442 18.643 23.5445 18.6658 23.5652 18.4615C23.5682 18.463 23.5713 18.464 23.5744 18.4654C23.2284 19.7644 23.5407 21.6339 24.166 22.4395C25.0422 23.4943 27.2419 23.7969 28.2173 23.1182C29.4755 22.4919 30.7844 19.3477 30.4167 18.3031C31.084 18.0901 31.7437 18.1541 32.4362 18.2626C32.2776 18.7137 32.004 19.8242 32.3977 19.9205C32.3254 22.1253 34.3174 23.501 36.1537 22.5966C37.743 21.845 38.2988 19.4661 38.1044 18.0222C38.3022 18.4073 39.9635 17.988 39.1891 17.626Z" fill="black"/>
</g>
<defs>
<clipPath id="clip0_106_18309">
<rect width="48" height="48" rx="16" fill="white"/>
</clipPath>
</defs>
</svg>
