<svg width="48" height="48" viewBox="0 0 48 48" fill="none" xmlns="http://www.w3.org/2000/svg">
<g clip-path="url(#clip0_106_18365)">
<rect width="48" height="48" rx="16" fill="#E1D6CC"/>
<path fill-rule="evenodd" clip-rule="evenodd" d="M40.2876 40.8746C39.7966 38.9784 39.345 38.1745 38.4727 37.5154C37.6567 36.899 36.4657 36.3813 34.7278 36.0031C32.9177 35.688 32.8663 34.7514 32.4125 33.246C32.2801 32.7934 31.6239 32.673 31.3408 32.9992C31.3008 32.9563 31.2592 32.917 31.2161 32.8815C31.2547 32.6657 30.939 32.0471 30.9496 31.8406C31.0597 29.6857 30.3517 28.6036 28.5846 28.2013C28.2003 28.1138 25.59 28.0623 25.2153 28.1654C23.5773 28.6163 21.9647 30.0479 22.2115 31.7724C21.6973 32.4414 21.194 32.8497 20.4007 33.0653C18.6353 33.2885 16.87 33.4869 15.1042 33.6568C11.6475 34.1965 8.40653 36.0181 6.19143 38.6747C5.98713 38.9199 5.9281 39.2528 6.10842 39.5143C5.96717 40.1166 5.17206 41.5776 5.79768 41.9905C4.76889 44.4401 2.40181 49.1749 2.39737 50.5276C2.37871 56.2102 2.99529 63.6069 8.62779 66.7516C8.8533 66.9723 8.88557 67.2166 8.98321 67.545C9.23084 68.5795 10.1302 69.3189 11.1145 69.2585C15.9635 69.3658 20.6601 68.7769 25.5093 68.7483C27.6477 68.7357 30.2195 69.0535 32.0771 69.2652C33.9348 69.4769 35.81 69.2897 37.5928 68.7483C37.7431 68.9839 38.047 69.1212 38.3553 69.0535C40.2034 68.688 41.6979 67.5541 42.9996 66.3149C43.3974 65.5945 44.9508 63.5419 44.3333 62.8275C44.893 60.4717 44.864 57.9405 43.8693 55.6973C44.0103 55.2861 43.7533 54.8342 43.8693 54.4096C43.9532 54.1023 44.1682 53.9752 44.2764 53.6709C44.4287 53.2427 44.2631 52.6683 44.0917 52.2314C44.0214 52.0136 44.221 51.7792 44.2764 51.557C44.5395 50.5089 43.9371 50.6013 43.5029 49.9006C43.5094 49.8984 43.6223 49.3982 43.6218 49.4007C43.6883 49.0436 43.5217 48.5861 43.3764 48.288C43.2782 48.0865 43.0679 47.9604 42.8589 47.9835C43.0693 47.2721 43.3355 46.6802 43.6218 45.9948C44.128 44.7867 44.7689 43.6298 45.4958 42.5362C45.7935 42.0884 45.3937 41.5697 44.9119 41.5391C43.3526 41.4405 41.8104 41.217 40.2876 40.8746Z" fill="#F5F4F3"/>
<path fill-rule="evenodd" clip-rule="evenodd" d="M35.737 50.0108C35.1133 49.7673 34.4418 49.6328 33.7669 49.5805C34.1302 49.5171 34.4947 49.456 34.8621 49.4246C35.1184 49.4027 35.3561 49.4049 35.5488 49.5985C35.6773 49.7275 35.7376 49.8936 35.8221 50.0462C35.7945 50.0338 35.7657 50.022 35.737 50.0108ZM42.4311 47.7343C41.4097 47.786 40.3871 48.0278 39.4632 48.4658C39.0852 48.6454 38.7426 48.9045 38.6424 49.3309C38.5917 49.5486 38.604 49.7736 38.631 49.9935C38.6514 50.16 38.6564 50.3727 38.8018 50.4854C38.8266 50.5045 38.8531 50.5191 38.8807 50.5297C38.5398 50.6829 38.2153 50.8669 37.9268 51.0565C37.6632 51.2298 37.3922 51.4969 37.2705 51.7981C37.2604 51.7639 37.2502 51.732 37.2401 51.7016C37.0328 51.0913 36.7133 50.5915 36.2102 50.2554C36.2993 50.2156 36.3607 50.1213 36.3319 49.9912C36.2125 49.4476 35.7082 48.9752 35.1387 49.0089C34.515 49.0453 33.8452 49.2714 33.2812 49.557C33.0756 49.5525 32.8705 49.5553 32.6677 49.5643C32.6328 49.5654 32.6345 49.6126 32.6677 49.6164C32.8322 49.6372 32.9967 49.6602 33.1612 49.6871C33.5522 49.7494 33.9421 49.8285 34.3234 49.9267C34.7809 50.0445 35.2542 50.1628 35.6818 50.3687C36.511 50.7688 37.0243 51.8145 36.919 52.7243C36.9015 52.8736 36.8435 53.3246 36.6355 53.278C36.4598 53.2388 36.39 52.8736 36.3286 52.7384C36.164 52.3793 35.8677 52.1448 35.5122 51.9861C35.0948 51.7993 34.648 51.673 34.2153 51.5261C33.9702 51.4425 33.7252 51.3589 33.4795 51.2758C33.2283 51.1901 32.9894 51.0716 32.7218 51.1317C32.5601 51.1681 32.5415 51.36 32.6322 51.47C32.7702 51.6377 32.9753 51.6871 33.1742 51.7561C33.4367 51.8469 33.6987 51.9379 33.9607 52.0287C34.3657 52.1689 34.79 52.2873 35.1848 52.459L35.1725 52.487C35.1403 52.4781 35.1026 52.51 35.1088 52.5493C35.168 52.9123 35.2502 53.3319 35.1589 53.6955C35.0869 53.9838 34.8327 54.303 34.5026 54.2182C34.5545 54.1711 34.5736 54.0898 34.5387 54.0146C34.4079 53.7364 32.6953 52.6379 32.5426 53.0458C32.5376 53.0604 32.5533 53.071 32.5657 53.0688C32.6959 53.0418 32.9139 53.2629 33.0181 53.333C33.1685 53.434 33.3212 53.5327 33.47 53.6365C33.6328 53.7499 33.7917 53.8688 33.9466 53.9916C34.0683 54.0882 34.1601 54.1885 34.2998 54.2374C34.2266 54.2721 34.1685 54.3366 34.1438 54.4191C34.0807 54.6339 33.959 54.8163 33.7477 54.9111C33.5263 55.0098 33.2767 54.9475 33.0435 54.9717C32.7257 55.0036 32.4486 55.154 32.217 55.3689C31.7308 55.821 31.4869 56.6177 30.8069 56.8313C30.4007 56.9587 29.95 56.8785 29.5387 56.8207C29.0795 56.7562 28.6322 56.7051 28.1697 56.7724C27.7269 56.837 27.3083 56.9895 26.9038 57.1758C26.5246 57.3503 26.1055 57.5478 25.7691 57.808C25.6998 57.5954 25.63 57.385 25.577 57.1679C25.4519 56.6547 25.3843 56.1318 25.3679 55.6045C25.3528 55.1024 25.3809 54.5981 25.4243 54.0982C25.4457 53.8486 25.4795 53.6 25.5009 53.3504C25.5065 53.2876 25.5179 53.2202 25.5263 53.153C26.1269 52.8001 26.7578 52.5297 27.3939 52.2515C27.3956 52.2509 27.3973 52.2497 27.399 52.2492C27.4187 52.2402 27.4379 52.2318 27.4576 52.2234C27.457 52.2222 27.4564 52.2212 27.4553 52.22C27.528 52.1757 27.5787 52.1168 27.6091 52.0506C28.5257 51.4453 29.2919 50.619 29.8632 49.6551C30.1026 49.2512 30.3331 48.8322 30.6463 48.4782C30.9798 48.1006 31.3759 47.8762 31.866 47.7596C32.439 47.6227 33.0294 47.5408 33.6164 47.4942C33.937 47.469 34.2953 47.4297 34.6446 47.4314C34.888 47.4331 35.1262 47.4538 35.3449 47.5138C35.6688 47.6025 35.8581 47.8477 36.0615 48.0956C36.2559 48.3335 36.4491 48.5719 36.6305 48.8199C36.8023 49.0549 36.9646 49.2978 37.1055 49.5525C37.19 49.7051 37.2683 49.8622 37.3342 50.0243C37.3573 50.0816 37.3877 50.1466 37.4018 50.206C37.4159 50.2661 37.39 50.3295 37.4576 50.3295C37.1787 50.3334 37.1815 50.7771 37.4587 50.7609C38.5438 50.698 36.9894 48.5888 36.7623 48.2947C36.4406 47.8785 36.1088 47.3354 35.5939 47.1419C35.5866 47.1391 35.5787 47.1363 35.5714 47.134C35.7212 46.9927 35.8395 46.8233 35.9528 46.651C36.0694 46.4738 36.2085 46.2707 36.2469 46.0603C36.2711 45.9263 36.1038 45.8499 36.0243 45.9672C35.9088 46.1383 35.8531 46.3548 35.7669 46.5428C35.679 46.7335 35.5719 46.9136 35.4874 47.106C35.284 47.0437 35.0643 47.0152 34.8407 47.0056C35.1229 46.6253 35.6051 45.8915 35.6632 45.7972C35.9302 45.3608 36.1843 44.9109 36.4271 44.4604C36.6896 43.9723 36.9145 43.464 37.1657 42.9704C37.3083 42.6905 37.4519 42.4083 37.6102 42.1367C37.6649 42.0436 37.7235 41.9505 37.79 41.8658C37.8029 41.849 37.8193 41.835 37.8345 41.8192C37.8519 41.8097 37.87 41.799 37.8801 41.7935C37.9713 41.7413 38.0035 41.6201 38.0677 41.5432C38.1702 41.4193 38.2908 41.4047 38.4452 41.403C38.7741 41.3996 39.1043 41.4125 39.4328 41.4215C39.9156 41.4349 40.3979 41.454 40.8801 41.4793C41.026 41.4871 41.1714 41.495 41.3173 41.5039C42.0187 41.5455 42.7195 41.5999 43.4187 41.6667C44.0373 41.7255 44.6559 41.8215 45.275 41.8675C44.4367 43.8506 43.5071 45.7978 42.4547 47.6771C42.444 47.6962 42.4361 47.7152 42.4311 47.7343ZM37.7798 52.8433C37.6446 52.905 37.5133 52.9818 37.3911 53.0694C37.4114 52.9331 37.4164 52.7894 37.4108 52.6452C37.5117 52.7529 37.6407 52.8146 37.7798 52.8433ZM43.5517 49.4319C43.5421 49.433 43.5331 49.438 43.5286 49.4476C43.3415 49.8319 43.4198 50.261 43.7252 50.5623C43.8852 50.7193 44.2339 50.8966 44.2226 51.1547C44.213 51.3634 43.9849 51.5384 43.8874 51.7106C43.7967 51.8711 43.7629 52.0472 43.8356 52.2212C43.9286 52.4438 44.1883 52.5325 44.2773 52.7513C44.39 53.0289 44.2069 53.3639 44.0784 53.6056C43.959 53.8295 43.8046 54.0533 43.7021 54.2901C43.0153 54.6441 42.4007 55.1871 41.8722 55.7386C41.2936 56.3417 40.7973 57.0513 39.8784 57.0334C39.7866 57.0316 39.7167 57.0799 39.675 57.1466C39.4193 57.1584 39.1629 57.1635 38.9071 57.1646C38.4576 57.1668 38.008 57.1623 37.559 57.1483C37.5274 57.04 37.5505 56.8931 37.5488 56.8016C37.5432 56.5071 37.5404 56.2131 37.528 55.9186C37.5246 55.8368 37.5212 55.7542 37.5178 55.6723C37.6795 55.9635 37.995 56.0959 38.3545 56.0757C38.9325 56.0421 39.5139 55.9478 40.0862 55.8631C40.3877 55.8188 40.6886 55.7683 40.9888 55.7144C41.2356 55.6707 41.5838 55.6819 41.7562 55.485C41.7967 55.439 41.799 55.3549 41.7353 55.324C41.5646 55.2404 41.457 55.2869 41.2693 55.3229C41.0407 55.3672 40.8114 55.4092 40.5815 55.4486C40.1403 55.5248 39.6981 55.5955 39.2547 55.6578C39.0024 55.6931 38.7494 55.7279 38.4964 55.7554C38.2756 55.7789 38.0266 55.8109 37.8486 55.6455C37.4897 55.3111 37.6908 54.7506 37.9179 54.4129C37.9224 54.4062 37.9224 54.4 37.9207 54.3944C38.1348 54.3445 38.3483 54.2861 38.5612 54.2452C38.9708 54.1666 39.3832 54.1005 39.7962 54.0416C40.6446 53.9209 41.4987 53.8413 42.3516 53.7611C42.5629 53.7408 42.5651 53.4099 42.3516 53.4296C41.1262 53.5412 39.8948 53.6472 38.6857 53.8823C38.3826 53.9406 38.0817 54.0068 37.7826 54.0814C37.6412 54.1162 37.4897 54.1706 37.3415 54.1723C37.3325 54.1723 37.3234 54.1723 37.3145 54.1717C37.0243 54.1628 36.9821 53.9154 37.1415 53.7095C37.1612 53.6842 37.1815 53.6589 37.2024 53.6349C37.484 53.3005 37.835 53.0772 38.1967 52.8461C38.6018 52.7911 39.0057 52.6688 39.4024 52.579C40.3815 52.3569 41.3607 52.1347 42.3404 51.9131C42.5324 51.8694 42.4508 51.5754 42.2587 51.6186C41.515 51.7864 40.7714 51.9541 40.0277 52.1218L38.9393 52.3676C38.7218 52.4163 38.4502 52.5145 38.1944 52.5499C38.0683 52.5673 37.946 52.5695 37.8356 52.5437C37.479 52.4596 37.4609 52.0158 37.6147 51.7521C37.7871 51.456 38.1128 51.2708 38.4018 51.1031C38.9026 50.8119 39.4356 50.6027 39.9562 50.3614C40.0486 50.3412 40.1409 50.321 40.2333 50.3008C40.7708 50.183 41.3849 50.1253 41.8908 49.9093C42.0424 49.8453 41.9595 49.6075 41.8097 49.6108C41.417 49.6193 41.0063 49.7584 40.6226 49.8408C40.2074 49.9306 39.7917 50.0198 39.3764 50.109C39.3348 50.118 39.088 50.1965 39.0508 50.1791C39.0271 50.1679 39.0187 50.086 39.0108 50.0321C38.9854 49.8549 38.9669 49.6687 38.9945 49.4908C39.0553 49.0919 39.3894 48.9045 39.7274 48.7514C40.4801 48.4109 41.3055 48.1977 42.1269 48.1124C42.3162 48.0928 42.5055 48.0805 42.6959 48.0743C42.9195 48.0675 43.1038 48.0283 43.217 48.2476C43.395 48.5932 43.4931 49.0375 43.5517 49.4319ZM42.5064 61.9613C42.3424 61.3965 42.387 60.7935 42.2746 60.2174C42.2167 59.9202 42.1375 59.6253 42.0511 59.3352C41.9813 59.1008 41.865 58.8515 41.8518 58.6069C41.851 58.5906 41.8704 58.5811 41.8836 58.5887C42.115 58.7206 42.2927 59.0059 42.4247 59.2297C42.5826 59.4976 42.7033 59.7781 42.8006 60.073C42.9945 60.6605 43.1537 61.3692 42.9036 61.9613C42.8292 62.1376 42.5678 62.1729 42.5064 61.9613ZM37.4378 54.4802C37.5764 54.4668 37.715 54.4404 37.8536 54.4095C37.6987 54.5599 37.5556 54.7411 37.4761 54.942C37.4638 54.7877 37.4479 54.6339 37.4271 54.4808C37.4305 54.4808 37.4345 54.4808 37.4378 54.4802ZM36.1059 66.237C35.8615 66.0672 35.6834 65.8298 35.4762 65.6202C35.2723 65.4142 35.591 65.0968 35.7949 65.3029C35.9717 65.4816 36.1252 65.7049 36.3333 65.8495C36.4335 65.919 36.4799 66.0447 36.4142 66.1565C36.3562 66.2552 36.2058 66.3064 36.1059 66.237ZM34.743 59.71C35.1891 59.5179 35.6279 59.3087 36.0948 59.1704C36.3738 59.0877 36.492 59.5209 36.2146 59.6031C35.7846 59.7306 35.3813 59.9207 34.9705 60.0975C34.7067 60.211 34.4775 59.8243 34.743 59.71ZM30.0314 59.5756C29.9223 59.3076 30.3585 59.1921 30.466 59.4563C30.5898 59.7605 30.7317 60.0569 30.8554 60.361C30.9644 60.6291 30.5283 60.7447 30.4208 60.4804C30.2971 60.1762 30.1551 59.8798 30.0314 59.5756ZM25.381 64.9285C25.3083 65.025 25.1871 65.0773 25.0727 65.0091C24.9768 64.9519 24.9182 64.7997 24.9918 64.7021C25.2066 64.417 25.4243 64.1353 25.676 63.8811C25.8802 63.675 26.1987 63.9926 25.9948 64.1985C25.7699 64.4254 25.5729 64.6739 25.381 64.9285ZM24.716 34.8936C24.9229 35.0342 25.1042 35.2052 25.2809 35.3811C25.4864 35.5855 25.1676 35.9028 24.9621 35.6983C24.8132 35.5501 24.663 35.3997 24.4886 35.2811C24.3878 35.2125 24.3425 35.085 24.4077 34.9741C24.4661 34.8746 24.6155 34.8252 24.716 34.8936ZM31.4817 42.1156C31.3648 42.3488 31.2595 42.5774 31.2528 42.8425C31.2457 43.1312 30.795 43.1314 30.8022 42.8425C30.8108 42.4956 30.9393 42.1948 31.0926 41.8891C31.2222 41.6303 31.6109 41.8579 31.4817 42.1156ZM33.9641 36.3153C34.2064 36.1545 34.4318 36.5434 34.1917 36.7029C33.9969 36.8321 33.8022 36.9614 33.6075 37.0906C33.3653 37.2514 33.1399 36.8625 33.38 36.7031C33.5747 36.5738 33.7694 36.4446 33.9641 36.3153ZM23.1971 46.4565C23.1557 46.7417 22.7215 46.6197 22.7624 46.3373C22.8258 45.9007 22.9031 45.4699 23.0221 45.0447C23.0999 44.7664 23.5346 44.8854 23.4567 45.164C23.3377 45.5892 23.2604 46.02 23.1971 46.4565ZM21.6168 51.5975C21.3268 51.5914 21.3267 51.1426 21.6168 51.1487C21.8794 51.1542 22.1375 51.223 22.3907 51.2859C22.6724 51.356 22.5523 51.7887 22.2709 51.7187C22.0568 51.6655 21.8388 51.6022 21.6168 51.5975ZM21.0335 61.9534C20.9339 62.0017 20.8316 62.0451 20.7309 62.091C20.5291 62.1829 20.3275 62.2748 20.1259 62.367C19.706 62.559 19.2862 62.7515 18.8669 62.9448C18.0275 63.3317 17.1816 63.705 16.3401 64.0877C15.482 64.4781 14.6262 64.8736 13.7714 65.2711C13.3687 65.4583 12.963 65.6386 12.558 65.821C12.2118 65.9769 11.7838 66.2493 11.4037 66.2749C11.3841 66.2763 11.3776 66.2516 11.3887 66.239C11.5323 66.0764 11.7614 65.9818 11.9501 65.8761C12.1429 65.7681 12.3393 65.6665 12.5348 65.5634C12.9424 65.3484 13.3504 65.1351 13.7619 64.9276C14.585 64.5129 15.4097 64.1011 16.2345 63.6899C17.0758 63.2704 17.9159 62.8481 18.7646 62.4436C19.1641 62.2531 19.564 62.0632 19.9642 61.8739C20.181 61.7713 20.3979 61.6689 20.6148 61.5667C20.7085 61.5226 20.8012 61.475 20.897 61.4355C21.0243 61.383 21.121 61.3937 21.2523 61.3614C21.4664 61.3088 21.559 61.5799 21.3947 61.6979C21.2594 61.7951 21.1882 61.8783 21.0335 61.9534ZM18.0247 66.5552C17.9784 66.4433 18.0753 66.3072 18.1821 66.2792C18.31 66.2456 18.4126 66.323 18.4593 66.4359C18.5829 66.7352 18.7589 67.0098 18.9854 67.2417C19.1879 67.449 18.8693 67.7664 18.6667 67.5591C18.3828 67.2684 18.1789 66.9286 18.0247 66.5552ZM15.8111 59.3515C15.6056 59.1469 15.9244 58.8297 16.1298 59.0342L16.7139 59.6158C16.9194 59.8204 16.6006 60.1377 16.3952 59.9331L15.8111 59.3515ZM9.81841 58.4032C9.39847 58.5259 8.90867 58.6386 8.62236 58.9954C8.60839 59.0128 8.58489 58.9904 8.59329 58.973C8.95982 58.2164 10.011 57.951 10.7388 57.6859C11.2535 57.4984 11.7817 57.3429 12.3143 57.204C12.2611 56.5989 12.4079 55.9505 12.4589 55.3484C12.5134 54.7056 12.5577 54.0612 12.5805 53.4164C12.6038 52.7586 12.6094 52.0964 12.5877 51.4385C12.566 50.783 12.4806 50.1355 12.4431 49.4821C12.4395 49.419 12.5279 49.4159 12.5469 49.4682C12.7681 50.0744 12.8626 50.746 12.9346 51.3852C13.0087 52.0438 13.0333 52.7004 13.0239 53.3628C13.0141 54.0438 12.9743 54.7233 12.9197 55.4021C12.8939 55.7239 12.8638 56.0452 12.8355 56.3668C12.8139 56.6122 12.8038 56.8556 12.7536 57.0932C13.0748 57.0147 13.3968 56.9404 13.7177 56.8682C14.7412 56.6383 15.7689 56.4249 16.788 56.1762C17.2883 56.0541 17.7815 55.908 18.2795 55.7781C18.7484 55.6559 19.2434 55.5077 19.7249 55.4532C19.8967 55.4336 19.9186 55.6677 19.8048 55.7471C19.4135 56.0207 18.8938 56.2112 18.4418 56.3644C17.9882 56.518 17.5166 56.6286 17.0517 56.7424C16.082 56.9799 15.1032 57.1741 14.1258 57.3763C13.1498 57.5783 12.172 57.7788 11.207 58.0281C10.7422 58.1481 10.2791 58.2686 9.81841 58.4032ZM7.51718 46.3967C7.26625 46.5434 7.03971 46.1554 7.28974 46.0092C7.61689 45.818 7.96557 45.6743 8.31706 45.5342C8.58681 45.4267 8.70287 45.8609 8.43689 45.967C8.12101 46.0929 7.81115 46.225 7.51718 46.3967ZM6.60856 63.0702C6.35695 63.2155 6.13025 62.8276 6.38112 62.6828C6.73346 62.4794 7.11932 62.3437 7.48444 62.1658C7.74422 62.0391 7.97239 62.4263 7.71188 62.5533C7.34681 62.7312 6.96089 62.8669 6.60856 63.0702ZM6.19988 53.6056C6.44315 53.8357 6.76782 53.944 7.07396 54.0649C7.34089 54.1702 7.22382 54.6041 6.95413 54.4977C6.57272 54.3471 6.18422 54.2096 5.88118 53.9229C5.67036 53.7235 5.98963 53.4067 6.19988 53.6056ZM8.8912 40.7519C9.15864 40.8563 9.04151 41.2902 8.77137 41.1847C8.47177 41.0677 8.16236 40.9786 7.86275 40.8615C7.59537 40.7571 7.71244 40.3233 7.98258 40.4287C8.28219 40.5458 8.5916 40.6348 8.8912 40.7519ZM13.639 35.6464C13.9231 35.5987 14.0442 36.0312 13.7588 36.0792C13.4048 36.1387 13.0562 36.2083 12.7204 36.3377C12.4492 36.4422 12.3329 36.0081 12.6006 35.905C12.9364 35.7756 13.285 35.7059 13.639 35.6464ZM15.2077 48.077C14.9471 47.9494 15.1758 47.5626 15.4351 47.6895C15.7085 47.8233 15.9917 47.9268 16.29 47.99C16.574 48.0503 16.453 48.4828 16.1701 48.4228C15.8345 48.3516 15.5151 48.2275 15.2077 48.077ZM16.6893 41.075C16.9699 40.9985 17.0886 41.4315 16.8092 41.5078C16.3176 41.6419 15.8115 41.7116 15.3164 41.8309C15.0342 41.8989 14.9148 41.4661 15.1966 41.3982C15.6917 41.2788 16.1979 41.2092 16.6893 41.075ZM22.9748 38.8777C23.26 38.9303 23.1385 39.3627 22.855 39.3105C22.5532 39.2549 22.2473 39.254 21.9413 39.2539C21.6509 39.2537 21.6514 38.805 21.9413 38.8051C22.2889 38.8052 22.6321 38.8146 22.9748 38.8777ZM43.4739 41.2224C42.7376 41.1523 42.0001 41.0962 41.2615 41.0541C41.2271 41.0523 41.1933 41.0502 41.1589 41.0484C41.155 41.0406 41.15 41.0333 41.1448 41.0254C40.9038 40.6731 40.7263 40.3209 40.5725 39.9225C40.4255 39.5433 40.2829 39.1523 40.0564 38.8101C39.7981 38.4202 39.4494 38.1152 39.0672 37.8508C38.8354 38.006 38.6202 38.1877 38.4234 38.3804C38.2162 38.5831 37.8975 38.2658 38.1047 38.063C38.2796 37.8918 38.4663 37.7337 38.6637 37.5908C38.4358 37.4529 38.2033 37.3233 37.9764 37.1944C37.1262 36.7114 36.2559 36.2648 35.3674 35.8565C34.9545 35.6663 34.5364 35.4974 34.1156 35.3263C33.8891 35.2344 33.6655 35.1159 33.439 35.0094C33.4553 34.85 33.4074 34.6716 33.2846 34.5667C33.1939 34.4899 33.1235 34.4613 33.0153 34.4069C32.9911 34.3984 32.9764 34.3934 32.9697 34.3906C32.9748 34.3917 32.9894 34.3962 33.0136 34.404C33.0711 34.4305 33.0756 34.4225 33.0271 34.381C33.0243 34.2902 32.8446 34.0983 32.8035 34.0047C32.6604 33.6832 32.6159 33.3432 32.4046 33.0504C32.1133 32.647 31.6243 32.4945 31.1685 32.6313C31.1212 32.146 31.1088 31.6395 30.9252 31.2064C30.9201 31.1947 30.9038 31.1895 30.8964 31.2025C30.7049 31.5273 30.6886 31.8891 30.6739 32.2638C30.6598 32.6156 30.6733 32.9752 30.7195 33.3247C30.6902 33.3471 30.6604 33.3685 30.6294 33.3892C30.484 33.4846 30.3274 33.5581 30.1629 33.6125C29.8497 33.7157 29.5212 33.7606 29.1928 33.7763C28.3449 33.8167 27.4711 33.7314 26.6373 33.5867C25.7939 33.4402 24.5009 33.2203 23.7505 32.8002C23.2553 32.5231 22.7984 32.1847 22.3353 31.8571C22.5032 31.3186 22.546 30.7396 22.377 30.2847C22.3567 30.2303 22.2711 30.2202 22.2548 30.2847C22.1488 30.7189 22.1179 31.1553 21.977 31.5845C21.9748 31.5907 21.9725 31.5974 21.9702 31.6036C21.9263 31.5739 21.8824 31.5447 21.8384 31.5155C21.737 31.4487 21.599 31.4987 21.5381 31.594C20.5651 33.1205 19.0243 33.208 17.4063 33.4807C15.6355 33.7791 13.8559 34.1011 12.1533 34.6851C10.5252 35.2439 8.96912 36.0573 7.73644 37.2724C7.4574 37.5475 7.19644 37.8407 6.95013 38.1467C7.18844 38.1766 7.42478 38.2231 7.65808 38.2961C7.9343 38.3825 7.8156 38.8157 7.53825 38.7289C7.23842 38.6351 6.93526 38.5887 6.62901 38.5656C5.79143 39.7065 5.13836 41.0002 4.57363 42.2736C3.49042 44.7151 2.78534 47.3152 2.46089 49.9623C2.63903 49.856 2.82039 49.7548 3.00625 49.6606C3.2645 49.5298 3.49227 49.9171 3.23374 50.0481C2.94664 50.1935 2.66777 50.3538 2.39757 50.5276C2.27954 51.6863 2.2338 52.8525 2.26151 54.0169C2.32743 56.7926 2.70377 59.6498 3.55503 62.2982C3.9725 63.598 4.52574 64.8872 5.34996 65.9857C5.72292 66.4832 6.14658 66.932 6.64574 67.3062C6.88743 67.4879 7.1432 67.6501 7.41306 67.7869C7.76067 67.9642 8.21363 68.0226 8.51334 68.2733C8.61194 68.3559 8.68799 68.4646 8.74546 68.5875C8.71222 68.8209 8.70827 69.0548 8.7725 69.2882C8.79278 69.3611 8.84799 69.4206 8.91616 69.4492C8.91729 69.4694 8.91729 69.489 8.91729 69.5081C8.91729 69.517 8.93081 69.5193 8.9325 69.5104C8.93532 69.4929 8.93813 69.4755 8.94095 69.4576C8.96292 69.4649 8.98602 69.4683 9.00968 69.4683C9.86546 69.4715 10.7223 69.4507 11.5792 69.4218C11.5129 69.2197 11.4412 69.0193 11.3723 68.8172C11.2787 68.5426 11.7141 68.4259 11.8069 68.6979C11.8875 68.9342 11.9718 69.1684 12.0468 69.4055C12.9649 69.3715 13.8828 69.3307 14.799 69.3006C16.7477 69.236 18.6959 69.2147 20.6451 69.1738C23.6722 69.1099 26.7213 68.9791 29.7531 69.107C29.858 68.8854 29.9753 68.6689 30.0866 68.4504C30.2179 68.1924 30.6066 68.4198 30.4758 68.6769C30.3984 68.8288 30.3183 68.9787 30.2422 69.1303C30.8562 69.1621 31.4696 69.204 32.0817 69.2613C33.1262 69.3588 34.1607 69.5322 35.204 69.64C36.2648 69.7499 37.3026 69.7303 38.355 69.5558C38.5443 69.5244 38.6559 69.4105 38.7021 69.2691C38.7037 69.2685 38.7049 69.2675 38.706 69.2657C38.76 69.2029 38.8108 69.1508 38.8631 69.1053C38.9257 69.0649 38.9933 69.0307 39.0728 69.0004C39.221 68.9443 39.3753 68.9101 39.5319 68.8871C39.7043 68.8613 39.879 68.859 40.0514 68.8377C40.1967 68.8192 40.3387 68.7917 40.4806 68.7581C40.7359 68.6975 40.9781 68.6184 41.2193 68.5134C41.4294 68.422 41.6192 68.2908 41.7984 68.1477C42.1691 67.8778 42.4902 67.5334 42.7708 67.1755C42.9342 66.9662 43.088 66.7491 43.2277 66.5231C43.4711 66.1315 43.6784 65.7247 43.888 65.3147C43.964 65.1931 44.0335 65.0687 44.0969 64.9417C43.6873 64.8215 43.2738 64.7235 42.8396 64.7166C42.5493 64.7119 42.5494 64.2631 42.8396 64.2678C43.3376 64.2757 43.8086 64.3915 44.2766 64.5296C44.2994 64.4692 44.3213 64.4085 44.3415 64.347C44.3973 64.2185 44.4435 64.0866 44.4818 63.9531C44.5043 63.8925 44.5269 63.832 44.5494 63.7714C44.6001 63.5616 44.6508 63.3512 44.7021 63.1408C44.804 62.8042 44.8846 62.4626 44.9438 62.1164C44.9933 61.8887 45.0317 61.6592 45.0576 61.427C45.1364 60.8643 45.2007 60.3028 45.2052 59.7339C45.1984 59.3833 45.1759 59.0332 45.1376 58.6849C45.1212 58.4481 45.0936 58.2125 45.0564 57.9786C45.008 57.6308 44.9601 57.2864 44.8795 56.943C44.8193 56.7108 44.759 56.4785 44.6987 56.2462C44.5483 55.7622 44.3708 55.2875 44.1662 54.8236C44.155 54.7944 44.0981 54.7304 44.0638 54.7299C44.0379 54.7293 44.0017 54.7529 44.0136 54.7843C44.0148 54.7871 44.0158 54.7905 44.017 54.7933C44.0052 54.7669 43.9939 54.74 43.9821 54.7136C43.9719 54.6889 43.9325 54.6396 43.9021 54.6402C43.9004 54.6402 43.8986 54.6402 43.8964 54.6407C43.9043 54.6351 43.9117 54.6278 43.919 54.6194C44.1212 54.381 44.2525 54.0673 44.3973 53.7913C44.5173 53.5636 44.6305 53.3235 44.6632 53.066C44.6919 52.8399 44.6531 52.6172 44.5105 52.4343C44.3483 52.2262 44.0429 52.1286 44.2125 51.8279C44.4052 51.4857 44.6886 51.1889 44.4063 50.8001C44.2626 50.6021 44.035 50.4933 43.866 50.321C43.6717 50.1219 43.5792 49.8554 43.5843 49.5833C43.5962 49.5901 43.6119 49.5868 43.6176 49.5699C43.7809 49.0784 43.6626 48.5388 43.4953 48.0602C43.404 47.8006 43.2108 47.7293 42.986 47.7164C43.9595 45.8231 44.8705 43.8994 45.6824 41.9314C45.7094 41.8669 45.7359 41.8024 45.7623 41.7379C45.8018 41.6414 45.7184 41.513 45.6221 41.4916C44.9201 41.3384 44.1888 41.2896 43.4739 41.2224Z" fill="black"/>
<path fill-rule="evenodd" clip-rule="evenodd" d="M35.9361 12.2021C35.811 11.8877 35.5897 11.4925 35.2199 11.4767C34.9338 10.6058 34.2225 9.71877 33.233 9.74233C30.3289 6.78512 26.6728 6.92452 22.8503 7.55054C20.8336 7.92298 18.7859 8.65227 17.2818 10.0914C15.4803 11.7857 14.7788 14.7421 16.1896 16.8846C14.9703 17.5352 14.9467 19.079 15.4681 20.1931C14.8413 20.6247 14.8032 21.6721 15.509 22.0013C15.4715 22.1544 15.498 22.3126 15.5696 22.4486C15.2196 22.7386 14.7642 22.9528 14.3877 23.137C14.2213 23.2184 14.1253 23.3514 14.0854 23.5012C12.8491 24.3088 9.7664 26.2825 9.80313 27.8533C9.78499 28.6728 10.3955 29.2122 11.1373 29.4269C10.6959 30.3056 10.3609 31.3319 10.7834 32.2798C10.9002 32.5662 11.7753 33.4078 11.8193 33.4234C11.8963 33.4891 13.1517 32.9152 13.7618 32.6225C13.8801 33.3888 14.7031 33.7903 15.4124 33.5277C16.085 33.3258 16.4985 32.7588 16.9227 32.243C17.4858 33.4662 19.1426 33.4802 20.2133 32.9529C21.175 32.5106 21.9059 31.6998 22.3132 30.7229C24.4755 31.7769 27.0054 32.0842 29.3547 31.6631C29.5055 31.9288 29.8392 32.1073 30.1365 32.0045C31.3858 31.6305 32.767 31.6096 33.8259 30.7528C36.0332 29.1752 36.2191 26.2668 36.0652 23.7876C35.9286 21.3157 36.0481 18.8232 35.5969 16.378C35.7927 15.6581 36.1185 15.0217 36.4199 14.3453C36.7473 13.6361 36.7404 12.5818 35.9361 12.2021Z" fill="#F5F4F3"/>
<path fill-rule="evenodd" clip-rule="evenodd" d="M15.4147 22.6945C15.5448 22.6619 15.6146 22.836 15.5042 22.906C14.8032 23.35 14.0789 23.7466 13.4017 24.2297C12.7575 24.689 12.1626 25.2121 11.6078 25.7746L11.5463 25.8373C11.0447 26.3511 10.4892 27.0047 10.4836 27.7627C10.4793 28.3519 10.9354 28.9949 11.5719 28.9175C11.8117 28.8883 12.0321 29.1913 11.9484 29.4097L11.8604 29.6398C11.5062 30.5714 11.146 31.6268 11.4257 32.6068L11.4359 32.6418C11.5036 32.8662 11.5749 33.0645 11.8365 33.06C12.0793 33.0558 12.3319 32.9743 12.5592 32.8964C13.0308 32.7349 13.4581 32.4656 13.8209 32.1269C14.1418 31.8273 14.5517 32.1317 14.5085 32.5124L14.507 32.5246C14.4479 32.9518 15.1314 33.1502 15.4422 33.0891C16.0558 32.9683 16.4932 32.3561 16.8417 31.8894C17.0092 31.6652 17.416 31.5769 17.5632 31.8894C17.8548 32.5085 18.4558 32.9712 19.159 32.9906C19.5242 33.0006 19.8746 32.8971 20.184 32.7051C20.3103 32.6267 20.4232 32.5335 20.5267 32.4279L20.5524 32.4012C20.7057 32.2395 20.8114 32.1535 21.0072 32.0478C21.2 31.9438 21.4495 32.0728 21.4483 32.2998C21.4467 32.5939 21.3602 32.7894 21.1565 33.0027C20.988 33.1794 20.7878 33.3344 20.5773 33.4583C20.1543 33.7072 19.6514 33.8472 19.159 33.831C18.3828 33.8054 17.6419 33.4202 17.1616 32.821C16.6712 33.4049 16.0629 33.9413 15.2724 33.9269C14.6807 33.9161 14.1292 33.6094 13.865 33.1341C13.4919 33.3902 13.0825 33.5904 12.6446 33.7212L12.6055 33.7326C11.9856 33.9123 11.2722 33.9837 10.8731 33.3709C10.4985 32.7955 10.4705 31.9987 10.5564 31.3411C10.6331 30.7536 10.8146 30.1957 11.023 29.6454C10.4297 29.469 9.96912 28.914 9.81093 28.3158C9.5716 27.4111 10.0359 26.5338 10.6099 25.8616C11.2333 25.1314 12.0181 24.5138 12.8087 23.9733C13.5972 23.4342 14.4805 22.9276 15.4147 22.6945ZM35.6891 15.6186C35.6905 15.5934 35.7319 15.5846 35.7357 15.6122C36.008 17.5801 36.1657 19.5439 36.2963 21.5253C36.3625 22.5291 36.4376 23.5319 36.5199 24.5344C36.5988 25.4958 36.7302 26.4827 36.7005 27.448C36.654 28.9596 35.9169 30.1886 34.7082 31.073C33.5501 31.9206 32.1133 32.3397 30.7037 32.5167C29.8851 32.6196 29.055 32.6245 28.2355 32.5279C27.8098 32.4777 27.3847 32.4109 26.9678 32.3107L26.7876 32.2658C26.4592 32.1823 26.0927 32.0689 26.0458 31.6817C26.0231 31.4942 26.1232 31.3558 26.2848 31.2617C26.4954 31.139 26.7369 31.2112 26.954 31.2671C27.3198 31.3614 27.6895 31.4423 28.0634 31.4982C28.8663 31.6185 29.6918 31.6256 30.4989 31.5424C31.8565 31.4022 33.2887 30.9638 34.3354 30.0582C34.7903 29.6647 35.1859 29.1852 35.394 28.6156C35.6614 27.8833 35.6218 27.0844 35.6129 26.3175C35.5921 24.5344 35.6104 22.7513 35.5855 20.968C35.5605 19.1793 35.5823 17.4046 35.6891 15.6186ZM22.0364 7.28533C23.6228 6.87794 25.2328 6.77208 26.8623 6.89472C28.399 7.01028 30.1496 7.35265 31.4047 8.29383C31.4656 8.33949 31.4292 8.42594 31.3538 8.41399C30.5147 8.28081 29.6968 8.03858 28.8613 7.8783C28.0577 7.72414 27.2396 7.60841 26.4213 7.58159C23.6539 7.49077 20.5745 8.11521 18.343 9.83324C17.2966 10.6388 16.4981 11.7219 16.1803 13.0107C15.8544 14.3326 16.0307 15.7621 16.6852 16.9578C16.7794 17.13 16.7406 17.4024 16.5439 17.494C15.9473 17.7722 15.5224 18.3884 15.5316 19.0533C15.536 19.3758 15.6477 19.6851 15.8271 19.9517C16.0169 20.2336 16.3057 20.4308 16.518 20.6941C16.6015 20.7978 16.6047 20.9405 16.5385 21.036C16.6626 21.0902 16.7965 21.1192 16.9186 21.1832C17.0222 21.2374 17.0251 21.4068 16.9186 21.4602C16.6493 21.5952 16.3582 21.4519 16.1764 21.2342C16.144 21.1953 16.1159 21.1548 16.0904 21.1136C15.8727 21.0676 15.6776 20.9588 15.5073 20.8101C15.1828 21.0035 15.1384 21.4343 15.4171 21.7634C15.5595 21.9314 15.7617 22.0351 15.9662 22.1097L15.9907 22.1185C16.1896 22.1889 16.3718 22.2281 16.5011 22.3866C16.5863 22.2097 16.6842 22.0429 16.7932 21.8909C17.1898 21.3385 17.7994 20.8484 18.5227 20.9106C19.0893 20.9593 19.5802 21.3632 19.6963 21.9205C19.7048 21.9617 19.6424 21.9939 19.6238 21.9509C19.352 21.3197 18.4919 21.2965 17.9795 21.6255C17.377 22.0123 17.0477 22.7413 16.9156 23.4203C16.7856 24.0891 16.8607 24.9025 17.3634 25.4113C17.5691 25.6194 17.8489 25.7634 18.141 25.8013C18.2838 25.8199 18.4097 25.8016 18.5462 25.7742L18.6367 25.7554C18.6995 25.7425 18.7619 25.7321 18.8277 25.7379L18.9258 25.751L18.9815 25.7769C19.0299 25.7986 19.0255 25.7927 18.9684 25.7591C19.1351 25.7455 19.2212 25.8682 19.2304 26.0026C19.2357 26.006 19.2408 26.0097 19.2451 26.0149C19.8775 26.7856 20.3471 27.6714 21.0182 28.4169L21.2147 28.6353C21.7198 29.1947 22.2964 29.8013 22.9826 30.0915L23.0642 30.1251C23.2638 30.2091 23.4643 30.324 23.4897 30.5636C23.5126 30.7783 23.3426 30.9398 23.1468 30.9899C22.7007 31.1038 22.1922 30.709 21.8655 30.45C21.1629 29.8932 20.5725 29.1835 20.0849 28.4367L20.0367 28.3623C19.6359 27.739 19.2591 27.0281 19.1421 26.2882L19.121 26.3223C19.1194 26.3248 19.1181 26.3266 19.1173 26.3277C19.0935 26.36 19.0671 26.3873 19.0366 26.4134C18.9546 26.4839 18.8545 26.5251 18.7506 26.553C18.5555 26.6055 18.3416 26.6158 18.141 26.5954C17.7336 26.5539 17.3528 26.3995 17.0308 26.1481C16.0503 25.3824 15.9345 23.9576 16.3311 22.8017C16.0057 22.879 15.635 22.661 15.3809 22.4741C15.0896 22.2597 14.8493 21.9502 14.7919 21.5861C14.7349 21.2249 14.9662 20.7464 15.3093 20.607C14.9533 20.1814 14.746 19.5774 14.7246 19.0938C14.6874 18.2525 15.1363 17.4573 15.8254 16.9983C15.1773 15.6154 15.0525 14.0111 15.4888 12.5427C16.3547 9.62899 19.2552 7.99959 22.0364 7.28533ZM19.5677 29.4234L19.5758 29.3978C19.6448 29.1724 19.7339 28.7242 20.072 28.8949C20.395 29.0578 20.1888 29.5402 20.0758 29.7751C19.9407 30.0561 19.7073 30.2814 19.3938 30.3417C19.1388 30.3908 18.8588 30.3278 18.6805 30.1316C18.6285 30.0744 18.5991 30.0117 18.5683 29.9425C18.5563 29.9155 18.5509 29.8971 18.5486 29.8851C18.5457 29.8983 18.5374 29.9179 18.5161 29.941C18.3737 30.0958 18.2393 30.2761 18.1361 30.4592C18.1116 30.5026 18.0345 30.4722 18.054 30.4248C18.1743 30.1319 18.1541 29.6789 18.4222 29.467C18.6585 29.2802 18.8806 29.4272 19.0056 29.6447L19.0119 29.656C19.1946 29.9863 19.4858 29.6726 19.5677 29.4234ZM16.997 28.3649L17.0217 28.3308C17.2744 27.9869 17.7005 27.5732 18.1269 27.893C18.2625 27.9948 18.2675 28.1645 18.1269 28.2654L18.0737 28.3033C17.8874 28.4348 17.7019 28.559 17.5651 28.7475C17.4164 28.9526 17.2829 29.1697 17.083 29.3305C16.7295 29.615 16.1582 29.671 15.8514 29.2876L15.8213 29.2496C15.7956 29.2167 15.7661 29.177 15.7422 29.1375L15.7236 29.1632C15.7218 29.1657 15.7201 29.1682 15.7185 29.1705L15.7142 29.177C15.5882 29.3777 15.4289 29.5429 15.2305 29.6732C14.8535 29.9209 14.4287 29.9554 14.0021 29.8243C13.9604 29.8114 13.9716 29.7556 14.012 29.7519C14.5174 29.7049 15.0099 29.3474 15.2154 28.887L15.2386 28.8353C15.3218 28.6522 15.415 28.4781 15.6206 28.4062C15.8206 28.3362 16.0306 28.4102 16.1678 28.5608C16.2825 28.6868 16.3121 28.9372 16.519 28.882C16.7456 28.8215 16.8731 28.5389 16.997 28.3649ZM15.5494 25.3062C15.6613 25.2215 15.8367 25.3124 15.8675 25.4351C16.0072 25.9908 15.4271 26.6457 14.8697 26.6629C14.7262 26.6673 14.5882 26.6327 14.4611 26.5666C14.3625 26.5153 14.2458 26.3842 14.1376 26.3625C13.9978 26.3345 13.874 26.5199 13.7755 26.615C13.6535 26.7331 13.5327 26.8427 13.3959 26.9434C13.3412 26.9836 13.2564 26.9161 13.2795 26.8543L13.3258 26.7315C13.4933 26.2944 13.7818 25.6563 14.3216 25.8377C14.5861 25.9265 14.7852 26.2262 15.0638 25.9889C15.2868 25.7989 15.3076 25.4891 15.5494 25.3062ZM17.9313 23.069C18.4346 22.4938 19.6176 22.7976 19.8419 23.4974C19.8915 23.652 19.8398 23.8529 19.7186 23.9623C19.5589 24.1064 19.331 24.15 19.1371 24.037C18.9702 23.9398 18.9017 23.7807 18.7791 23.6442C18.5992 23.4442 18.3545 23.3332 18.1024 23.2536C18.0394 23.2866 17.9807 23.33 17.9281 23.3822C17.9012 23.409 17.8503 23.3723 17.8742 23.3408C17.9066 23.2979 17.9463 23.2576 17.9914 23.2204L17.9697 23.2141C17.9034 23.1957 17.889 23.1175 17.9313 23.069ZM21.2021 16.7178C21.3149 16.7179 21.4463 16.8234 21.4319 16.9465L21.4275 16.9807C21.3951 17.2152 21.3194 17.3479 21.0838 17.4568C20.8838 17.5491 20.6738 17.6001 20.4546 17.6203C20.3717 17.6279 20.2839 17.6284 20.195 17.6218L20.1762 17.7294C20.139 17.9446 20.1046 18.16 20.0981 18.3794C20.0861 18.786 20.2385 19.1212 20.4019 19.4842C20.7157 20.1817 20.7509 20.8779 20.4093 21.5743C20.3594 21.6761 20.2179 21.7591 20.1038 21.7488C19.9558 21.7354 19.8843 21.6928 19.7982 21.5743C19.7259 21.4747 19.7424 21.334 19.7925 21.23L19.7982 21.2185C19.9703 20.8865 20.0246 20.5114 19.9367 20.1464C19.8541 19.8033 19.667 19.495 19.5834 19.153C19.4473 18.596 19.5923 18.0434 19.8755 17.5655C19.6617 17.5042 19.464 17.3949 19.3321 17.2282L19.3326 17.228C19.2822 17.1744 19.3097 17.0625 19.3981 17.0692L19.4981 17.0773C19.7841 17.1011 20.0473 17.1258 20.3364 17.0465C20.4847 17.0057 20.6126 16.9378 20.7399 16.8556L20.7671 16.8378C20.9264 16.7324 21.0146 16.7175 21.2021 16.7178ZM21.8865 12.6005C22.6033 12.5599 23.2153 13.031 23.5129 13.6581C23.836 14.3389 23.7004 15.12 23.4152 15.7898L23.3342 15.9773C23.1923 16.3021 23.0061 16.6883 22.7156 16.8626C22.3893 17.0584 22.1072 16.8314 22.2034 16.4705C22.2608 16.2556 22.416 16.0898 22.5415 15.9124C22.6587 15.7468 22.7681 15.5753 22.864 15.3965C23.0518 15.0457 23.192 14.655 23.1905 14.2531C23.1878 13.5197 22.7012 12.6791 21.8865 12.6899C21.8283 12.6906 21.8293 12.6037 21.8865 12.6005ZM25.512 11.417C25.4673 11.3833 25.5073 11.3082 25.5573 11.3399C26.3885 11.8663 27.0092 12.8551 27.1342 13.8266C27.2035 14.3656 27.1505 14.9416 26.92 15.4391C26.7878 15.7245 26.5609 15.997 26.2436 16.0752C25.9518 16.1471 25.6512 15.9812 25.5606 15.6977C25.5255 15.5877 25.5859 15.4726 25.6771 15.4125C25.9729 15.2178 26.2111 14.9721 26.3504 14.6416C26.4953 14.2979 26.5531 13.9332 26.5549 13.5625C26.5592 12.6944 26.2112 11.9462 25.512 11.417ZM35.6664 11.7933C35.6279 11.7508 35.6763 11.6882 35.7272 11.7148C36.3282 12.0295 36.7101 12.6324 36.8195 13.2926C36.9267 13.939 36.7825 14.819 36.28 15.2864C35.9964 15.5503 35.4885 15.1994 35.7242 14.8595C35.8904 14.6198 36.0701 14.4223 36.1652 14.1391C36.2501 13.8864 36.2801 13.6315 36.2755 13.3659C36.2654 12.7865 36.0575 12.2253 35.6664 11.7933ZM28.3189 10.9839C29.3457 10.9352 29.9679 12.1023 30.1105 12.9723C30.1985 13.5098 30.1323 14.0634 29.8343 14.5295L29.8167 14.5567C29.5708 14.9291 29.1237 15.3579 28.642 15.1815C28.4381 15.107 28.3838 14.8895 28.5208 14.7245C28.7304 14.4719 29.0543 14.369 29.2514 14.0993C29.4725 13.7969 29.5449 13.418 29.5321 13.0502L29.5304 13.0096C29.4961 12.3331 29.1721 11.0346 28.3189 11.0576C28.2711 11.0588 28.2717 10.9861 28.3189 10.9839ZM31.5306 10.79C32.5237 10.6636 33.1285 11.827 33.315 12.6284C33.4315 13.1294 33.457 13.6883 33.308 14.1856L33.2969 14.221C33.1756 14.5921 32.8177 15.228 32.3505 15.0384C32.2225 14.9864 32.0919 14.8449 32.1532 14.6923C32.2314 14.4972 32.3444 14.4466 32.4949 14.3218C32.6109 14.2257 32.6918 14.0878 32.7514 13.9519C32.9102 13.5898 32.9456 13.1667 32.9239 12.7765L32.9209 12.7303C32.8648 11.9681 32.4497 10.8322 31.5306 10.8531C31.4886 10.854 31.4915 10.7949 31.5306 10.79ZM33.3488 9.69626C33.9015 9.48667 34.3544 10.0129 34.6721 10.3885C35.0701 10.8591 35.4312 11.3661 35.6353 11.9519C35.8171 12.4739 35.8491 13.0544 35.6853 13.5857C35.6043 13.8488 35.478 14.0928 35.3056 14.3076L35.2836 14.3346C35.1041 14.5525 34.9309 14.6863 34.637 14.6084C34.5174 14.5765 34.4669 14.4588 34.4875 14.3463C34.5318 14.1058 34.6563 14.0434 34.8175 13.8755C34.9596 13.7275 35.0651 13.5452 35.136 13.3535C35.2822 12.958 35.2899 12.5296 35.1917 12.1222C35.0818 11.6661 34.8656 11.245 34.6154 10.8503L34.5614 10.7658C34.2964 10.3486 33.9184 9.70602 33.3593 9.77373C33.3114 9.77956 33.3108 9.71062 33.3488 9.69626Z" fill="black"/>
<path fill-rule="evenodd" clip-rule="evenodd" d="M30.1738 28.0481C29.7951 27.8942 29.4572 27.6376 29.2102 27.3098C29.1243 27.1958 29.102 27.0755 29.12 26.9654C29.1403 26.8416 29.2138 26.7295 29.3141 26.6542C29.4147 26.5788 29.5405 26.5415 29.6622 26.5605C29.7679 26.577 29.8731 26.6346 29.9564 26.7542L29.9738 26.7781C30.1207 26.9759 30.312 27.1383 30.5301 27.2429C30.7403 27.3438 30.9754 27.3908 31.2187 27.3635C31.682 27.3113 32.0013 27.0618 32.3407 26.723C32.3828 26.6802 32.4249 26.6361 32.4672 26.5913C32.4939 26.5507 32.531 26.5245 32.5722 26.5108C32.6179 26.4956 32.6696 26.4965 32.7169 26.5129C32.7626 26.5288 32.8034 26.5589 32.8308 26.5989C32.8568 26.637 32.8716 26.684 32.8668 26.738C32.8357 27.0891 32.6514 27.4025 32.3895 27.6486C32.0986 27.9219 31.7131 28.1109 31.3502 28.1772C30.9503 28.2503 30.5428 28.1979 30.1738 28.0481ZM31.5388 22.6312C31.9642 22.8887 32.6124 23.4891 32.1548 24.1275C31.6161 24.6903 30.8404 24.045 30.4582 23.7531C30.1038 23.5269 29.7056 24.1087 30.0344 24.3728C32.7963 26.4089 33.9172 22.6985 31.754 22.3284C31.5158 22.2876 31.4273 22.5515 31.5388 22.6312ZM26.5894 20.2626C26.6364 19.6816 27.525 19.5497 27.6134 20.1246C27.6926 20.6396 27.5994 21.1127 27.3665 21.5763C27.1439 22.0193 26.5844 21.8126 26.5421 21.4093C26.4854 20.8686 26.5602 20.624 26.5894 20.2626ZM33.3536 20.0054C33.4775 19.8438 33.6564 19.7336 33.8707 19.7959C34.5402 19.9907 34.3429 20.9373 34.1077 21.398C33.98 21.6482 33.5669 21.7117 33.3803 21.4914C33.0761 21.1321 32.9304 20.4147 33.3171 20.0608C33.3276 20.0425 33.3393 20.024 33.3536 20.0054ZM27.357 17.7204L27.4628 17.702C27.79 17.6457 28.1968 17.5915 28.4283 17.8534C28.551 17.9923 28.5933 18.2505 28.4283 18.3835C28.138 18.6174 27.8171 18.5267 27.4693 18.5466C27.1827 18.5629 26.9072 18.6102 26.631 18.6888C26.0253 18.8612 25.5317 19.1759 25.0144 19.5214C24.9465 19.5668 24.8772 19.4803 24.9096 19.4171C25.2082 18.8346 25.787 18.3562 26.3667 18.0645C26.6761 17.9088 27.0147 17.7797 27.357 17.7204ZM32.7432 17.4595L32.8242 17.476C33.7051 17.6594 34.8497 18.0257 35.2669 18.8873C35.2828 19.0092 35.266 19.0353 35.2524 19.0523L35.2478 19.058C35.2366 19.0726 35.2276 19.0927 35.1745 19.1092C35.1598 19.1058 35.145 19.1021 35.1299 19.0981C34.9387 19.0482 34.7874 18.9795 34.6409 18.9082L34.4821 18.8302C34.2979 18.7403 34.112 18.6536 33.915 18.5896C33.4946 18.4531 33.0622 18.3569 32.623 18.3055C32.5279 18.2944 32.4362 18.2624 32.3639 18.2076C32.2953 18.1555 32.2429 18.0835 32.2189 17.9877C32.188 17.8638 32.1969 17.77 32.2636 17.6582C32.3139 17.5742 32.3857 17.516 32.4682 17.4826C32.5523 17.4486 32.648 17.4405 32.7432 17.4595Z" fill="black"/>
<path fill-rule="evenodd" clip-rule="evenodd" d="M36.2868 21.7933C36.1275 22.2251 35.885 22.6745 35.5885 23.0379C34.3888 24.0495 33.2231 23.4894 32.6312 22.1184C32.4063 21.1495 33.0035 20.1058 33.6362 19.3931C34.55 18.4811 36.0413 18.9597 36.4615 20.0439C36.487 20.1844 36.5025 20.3245 36.5098 20.4642C36.5011 20.9181 36.4462 21.306 36.2868 21.7372M24.7555 20.9226C26.3359 19.0508 29.2925 18.9507 29.2171 21.8317C28.8776 25.4783 23.1609 24.5833 24.7555 20.9226ZM36.7839 19.3611C36.7285 19.2677 36.667 19.1773 36.5999 19.0909C36.5751 19.0762 36.5609 18.9458 36.4697 18.9362C35.2513 17.5977 33.1109 18.3571 32.3374 19.6908C32.1962 19.8594 32.081 20.0568 31.996 20.2654C31.234 20.1262 30.3456 20.1533 29.6369 20.4399C28.9341 18.6126 26.8065 18.4495 25.4044 19.2302C24.5324 19.6573 23.9669 20.5517 23.1188 21.043C21.125 21.1859 18.9853 20.7411 17.0275 21.2391C15.4835 21.5587 16.7742 22.3372 17.0332 21.8177C18.879 21.2746 21.0657 21.7335 22.9822 21.6112C23.1814 21.9468 23.5636 22.2215 23.9444 22.2098C24.3558 25.8406 29.6732 25.2385 29.8566 22.0109C30.0647 21.6834 30.3234 21.3699 30.6938 21.1658C30.8356 21.1366 30.9725 21.0986 31.0977 21.0398C31.3117 21.0097 31.6414 21.1001 31.8382 21.2775C32.5125 25.3063 36.3973 24.8371 37.0916 21.3076C37.1054 21.2936 37.144 21.241 37.1736 21.1566C37.4112 20.8437 37.993 20.7274 37.9 20.1992C37.8173 19.6709 37.1473 19.6772 36.7839 19.3611Z" fill="black"/>
</g>
<defs>
<clipPath id="clip0_106_18365">
<rect width="48" height="48" rx="16" fill="white"/>
</clipPath>
</defs>
</svg>
