<svg width="50" height="50" viewBox="0 0 50 50" fill="none" xmlns="http://www.w3.org/2000/svg">
<g clip-path="url(#clip0_106_11155)">
<rect x="1" y="1" width="48" height="48" rx="16" fill="#F5F4F3"/>
<path fill-rule="evenodd" clip-rule="evenodd" d="M44.4017 67.221C44.3119 65.5585 44.2015 63.8974 44.0693 62.2377C43.8059 58.9318 43.4611 55.6233 42.8872 52.3553C42.3211 49.131 41.5287 45.9956 40.3872 42.9231C39.8576 41.4977 39.2841 40.2816 38.4521 39.0002C37.6654 37.7886 36.6615 36.9677 35.4108 36.2363C34.2839 35.5774 32.9748 34.4341 31.894 33.6961C31.4428 33.3881 30.5145 33.4086 30.2051 32.9529C29.7999 32.3562 30.0626 31.4428 29.6541 30.8481C29.1873 30.168 28.5332 29.6398 27.7956 29.256C26.9906 28.7132 26.0424 28.4675 25.0917 28.5013C23.6898 28.4166 22.2778 28.8611 21.3778 29.9973C20.9287 30.5643 20.6664 31.2186 20.6301 31.943C20.6207 32.1314 20.6815 32.28 20.7815 32.3872C20.7222 32.4662 20.6631 32.5453 20.6045 32.6247C20.4204 32.3532 19.9901 32.2089 19.7033 32.4139C18.7652 33.0844 17.7513 33.6176 16.6811 34.0084C16.4307 33.8905 16.1277 33.9451 15.9132 34.1377C15.8261 34.2158 15.7338 34.2826 15.6373 34.3393C15.2405 34.4464 14.8376 34.5359 14.4287 34.605C14.3007 34.6266 14.1922 34.699 14.11 34.7966C13.9881 34.6831 13.8206 34.6287 13.6336 34.6997C11.4738 35.5195 9.4343 36.793 7.88405 38.5184C6.16652 40.4298 5.26444 42.8076 4.57768 45.2436C3.83424 47.8807 3.35915 50.5834 2.9601 53.2906C2.55576 56.0337 2.15751 58.7875 1.87931 61.5464C1.72275 63.099 1.66303 64.6657 1.73391 66.2252C1.76923 67.0045 1.84072 67.7813 1.95458 68.5533C1.98112 68.7339 2.00889 68.9419 2.05362 69.1495C1.91768 69.1232 1.75576 69.2376 1.78331 69.4208C1.9752 70.6965 3.52416 71.0681 4.59244 71.215C6.33988 71.4553 8.09638 71.5885 9.86061 71.5988C11.5943 71.6088 13.3277 71.498 15.0578 71.3988C16.8315 71.2971 18.6052 71.1949 20.3789 71.0913C27.4853 70.6765 34.5922 70.2661 41.6986 69.8511C42.3479 69.8131 43.0892 69.7618 43.6453 69.3869C44.4076 68.8728 44.4469 68.0558 44.4017 67.221Z" fill="white"/>
<path fill-rule="evenodd" clip-rule="evenodd" d="M9.75808 52.9518C9.7334 52.9058 9.79064 52.8644 9.82861 52.8976C10.6913 53.6515 11.143 54.8621 11.2377 55.9812C11.338 57.1679 11.1958 58.3965 11.1414 59.5827C11.0809 60.9039 11.0265 62.2257 10.9527 63.5463C10.8777 64.8862 10.7969 66.2256 10.7277 67.5657L10.5719 70.5804C10.5553 70.9017 10.5912 71.2968 10.4674 71.5966C10.2755 72.0615 9.7055 71.9895 9.58571 71.601L9.58196 71.5882L9.57103 71.5966C9.46534 71.2465 9.54444 70.8307 9.56236 70.4687L9.72557 67.1749C9.84087 64.8468 9.94371 62.5187 10.0676 60.191L10.1097 59.4151C10.1676 58.3707 10.212 57.3288 10.2476 56.2847L10.2592 55.9365C10.2931 54.8882 10.2662 53.8984 9.75808 52.9518ZM30.6713 33.6249C31.1519 33.5794 31.5149 33.7381 31.9512 33.9053C32.1413 33.9781 32.3213 34.0621 32.5036 34.1492C32.7319 34.2582 32.8788 34.4509 33.0194 34.6547L33.0945 34.7645C33.6799 35.6186 34.0737 36.6039 34.5181 37.5337C35.0378 38.6214 35.5628 39.7068 36.0715 40.7997L36.3225 41.3381C36.448 41.6073 36.5731 41.8767 36.6964 42.147L36.9094 42.6173C37.1233 43.0943 37.3151 43.5989 37.0102 44.091C36.7266 44.5486 36.2239 44.9027 35.8259 45.2565C35.4938 45.5517 35.1617 45.8468 34.8295 46.1419C35.5162 46.8267 35.9772 47.6889 36.2482 48.6135C36.6332 48.4538 37.1031 48.4231 37.5012 48.354C38.0585 48.2573 38.1267 49.0973 37.6008 49.0871C37.2124 49.0795 36.7568 49.119 36.3583 49.0375C36.4276 49.3414 36.4778 49.6498 36.5098 49.9591C36.6772 51.5801 36.3114 53.2105 35.9298 54.7789L35.8984 54.9076C35.484 56.6052 35.0911 58.3072 34.7396 60.0188C34.3874 61.7341 34.0705 63.4566 33.7892 65.1849C33.5029 66.944 33.3003 68.7128 33.0825 70.4812C33.0496 70.7489 32.8804 70.9782 32.5834 70.9782C32.336 70.9782 32.0532 70.7483 32.0843 70.4812C32.3089 68.5554 32.6276 66.6398 32.9441 64.7272C33.4894 61.4334 34.1757 58.1683 34.9652 54.9247L35.1031 54.3598C35.4583 52.8948 35.7805 51.3853 35.6023 49.8741C35.4572 48.6436 34.9405 47.3316 33.9194 46.5674L33.8883 46.5444C33.6497 46.3702 33.558 46.0371 33.7929 45.8077C33.9424 45.6617 34.0921 45.5159 34.2418 45.3702L35.1408 44.4963L35.322 44.3197C35.4731 44.1728 35.625 44.0268 35.7813 43.8853C35.876 43.7997 36.1326 43.6364 36.1514 43.4956C36.1635 43.4037 36.0543 43.2423 36.01 43.1576L35.8071 42.7498C35.6919 42.5173 35.5802 42.2831 35.4677 42.0492C35.2346 41.5647 34.9981 41.0817 34.77 40.5948L33.3998 37.6714C33.0133 36.8466 32.6689 35.9759 32.1636 35.2134L32.0639 35.0648C31.9808 34.9397 31.9073 34.8192 31.8547 34.6661C31.8042 34.5188 31.7408 34.3572 31.6474 34.2315C31.4285 33.9366 31.0101 33.7693 30.6601 33.7075C30.6095 33.6986 30.6279 33.629 30.6713 33.6249ZM20.1331 32.857C20.1635 32.857 20.1681 32.9003 20.1401 32.9087C19.7178 33.0351 19.3142 33.2392 18.985 33.5337C18.8274 33.6746 18.6689 33.8345 18.5716 34.0243C18.5344 34.0969 18.5138 34.1736 18.4987 34.2531L18.4939 34.2797C18.4688 34.4233 18.4329 34.5033 18.3596 34.6183L18.347 34.6378C17.9286 35.2812 17.6353 35.9959 17.3672 36.7114L16.7833 38.2716L16.1998 39.832C16.0118 40.3347 15.8237 40.8376 15.6357 41.3403C15.5318 41.6179 15.425 41.8943 15.3182 42.1708C15.272 42.2905 15.2223 42.4094 15.1801 42.5306C15.1743 42.5472 15.1558 42.647 15.1419 42.6712L15.1467 42.6795C15.2643 42.8766 15.5782 43.0413 15.7561 43.1845L16.3687 43.6777C16.8055 44.0294 17.2535 44.3712 17.6772 44.7386C17.9433 44.9693 17.7778 45.3824 17.481 45.4787C16.9836 45.64 16.4963 45.8331 16.0064 46.0157C15.8085 46.0894 15.6025 46.1536 15.4069 46.2349L15.2878 46.2861C15.2413 46.3069 15.2637 46.3067 15.2655 46.3922C15.2674 46.4818 15.2929 46.5752 15.3076 46.6633C15.4726 47.6568 15.6475 48.6486 15.8321 49.6387C16.4852 53.1399 17.2654 56.6156 18.1553 60.0645C18.6047 61.8062 19.0868 63.5393 19.5461 65.2784C20.0043 67.0129 20.6072 68.7225 21.1828 70.4213C21.3452 70.9003 20.5824 71.1066 20.424 70.6296C19.7605 68.6317 19.1536 66.6163 18.5268 64.607C17.4132 61.0369 16.5357 57.3892 15.7596 53.7327C15.3749 51.9205 15.0231 50.1013 14.7045 48.2764C14.6441 47.9309 14.585 47.5853 14.527 47.2394L14.4426 46.7306C14.3847 46.3679 14.3517 45.9902 14.6348 45.7032C14.9112 45.4231 15.3857 45.3238 15.7494 45.1924L15.7758 45.1828C16.0073 45.0968 16.2404 45.0139 16.4726 44.9285C16.1305 44.6603 15.7927 44.3862 15.4514 44.1182C15.1762 43.902 14.8966 43.6902 14.6252 43.4691C14.4015 43.2866 14.2191 43.0524 14.1958 42.7558C14.172 42.4526 14.3025 42.1712 14.4077 41.8931L14.4178 41.8663C14.5211 41.5886 14.6247 41.3111 14.731 41.0346L15.3885 39.3225C15.8063 38.2346 16.2064 37.1378 16.6459 36.0584C16.8197 35.6312 17.0092 35.2107 17.2331 34.8069C17.341 34.6122 17.4568 34.4216 17.5826 34.2378C17.7236 34.0317 17.8515 33.9313 18.0699 33.8175C18.4192 33.6357 18.6932 33.3309 19.044 33.1434C19.3882 32.9594 19.7423 32.8613 20.1331 32.857ZM21.2668 30.9161C21.2802 30.8932 21.3156 30.9034 21.316 30.9294C21.3252 31.47 21.1961 32.0226 21.1168 32.5572C21.037 33.0937 21.0115 33.66 20.8961 34.1908C20.8938 34.2156 20.889 34.2399 20.8822 34.2639L20.8767 34.2821C20.828 34.4308 20.7014 34.5568 20.5461 34.5962C20.5949 34.8657 20.6409 35.1357 20.6796 35.4071C20.7461 35.8736 20.8068 36.3408 20.8665 36.8081L20.9379 37.369C21.0053 37.8975 21.0709 38.4263 21.1357 38.9552C21.3007 39.0238 21.4689 39.0805 21.6413 39.1296C22.0382 39.2427 22.4447 39.2887 22.8543 39.3287C23.6884 39.4102 24.5289 39.4479 25.366 39.4942L25.5453 39.5042C26.4863 39.5579 27.4325 39.5674 28.3712 39.4713C28.8367 39.4236 29.2985 39.3436 29.7524 39.2302C29.9831 39.1726 30.2072 39.0866 30.4374 39.0302C30.5138 39.0116 30.582 38.9685 30.6585 38.9225C30.6925 38.8797 30.7401 38.8474 30.8022 38.8348L30.819 38.8319L30.8357 38.8295L30.8414 38.8269L30.841 38.8287C30.8881 38.8224 30.9328 38.8225 30.975 38.8282C30.9918 38.4158 31.01 38.0035 31.0328 37.5913C31.0941 36.4841 31.2631 35.3292 31.0374 34.2316C31.0299 34.1947 31.0803 34.1817 31.0934 34.2163C31.5363 35.3781 31.4866 36.6486 31.5089 37.8715C31.5307 39.0673 31.5175 40.264 31.5115 41.4602C31.5976 41.4966 31.6743 41.5461 31.7351 41.6154C31.8565 41.754 31.8914 41.9949 31.7351 42.1286C31.6658 42.1879 31.5891 42.2291 31.5077 42.2576C31.5034 43.2968 31.496 44.336 31.4856 45.3752C31.684 45.5278 31.7026 45.8903 31.4781 46.0409C31.4407 49.4062 31.3793 52.7716 31.3284 56.1363L31.2217 63.1957C31.2075 64.1363 31.1839 65.0768 31.1755 66.0172L31.1822 66.0199L31.2058 66.0308C31.2456 66.0494 31.3047 66.0794 31.317 66.1102C31.3202 66.1183 31.321 66.1238 31.3207 66.1279C31.3858 66.137 31.4503 66.1676 31.5061 66.2204C31.6439 66.3508 31.6159 66.5473 31.5061 66.6801L31.4768 66.7156C31.4083 66.7983 31.2783 66.8302 31.1722 66.8133C31.1733 67.4003 31.177 67.9874 31.1752 68.5744C31.1746 68.7536 31.1719 68.9329 31.1687 69.1122L31.1613 69.5421C31.1564 69.7874 31.1346 70.0992 30.8822 70.2094C30.5976 70.3337 30.3423 70.2319 30.227 69.944C30.1958 69.866 30.2025 69.7933 30.2139 69.7163C30.2103 69.6004 30.1921 69.4662 30.1944 69.3587L30.2038 68.9105C30.2053 68.8414 30.2081 68.7723 30.2101 68.7032L30.2018 68.7041C29.1903 68.753 28.1717 68.7291 27.1585 68.7285L26.7079 68.7291C26.332 68.7295 25.9552 68.7275 25.5797 68.7132L25.439 68.7072C25.1579 68.6941 24.8623 68.6899 24.571 68.6648C24.6081 68.9627 24.6428 69.2607 24.6737 69.5591C24.703 69.842 24.4098 70.0824 24.1482 70.0824C23.8376 70.0824 23.6599 69.8392 23.6227 69.5591C23.4471 68.2376 23.3753 66.9038 23.2076 65.5815C23.0573 64.3971 22.9271 63.21 22.7947 62.0234L22.7505 61.6279C22.2659 57.3096 21.7955 52.9896 21.3456 48.6676L21.1361 46.6472C20.9245 44.6108 20.7116 42.5743 20.5321 40.5349C20.4295 39.369 20.3349 38.2028 20.2459 37.0357C20.1806 36.1783 20.1396 35.3256 20.1129 34.4699C20.0076 34.362 19.9548 34.2045 20.0014 34.0418C20.0287 33.9469 20.0604 33.8525 20.0939 33.7582C20.0918 33.6656 20.0896 33.573 20.0878 33.4803C20.0861 33.3926 20.1756 33.3474 20.2472 33.3619C20.3773 33.0482 20.5207 32.7371 20.6403 32.4264C20.8338 31.9234 20.9934 31.3814 21.2668 30.9161ZM10.4559 36.3521C12.4795 35.0893 14.8883 34.1807 17.3008 34.2785C17.3557 34.2807 17.3711 34.364 17.3142 34.3766C16.0273 34.6627 14.7263 35.0112 13.508 35.5184C12.2861 36.0271 11.1243 36.7121 10.0895 37.5352C8.18036 39.0539 6.69642 41.0294 5.71929 43.2561C5.14696 44.5605 4.74577 45.9376 4.39546 47.3153C4.02476 48.7732 3.71924 50.2469 3.46521 51.7294C2.96346 54.6579 2.67135 57.6185 2.51591 60.5843C2.35777 63.6012 2.42296 66.6203 2.31017 69.6376C2.29067 70.1604 1.54025 70.1502 1.50211 69.6376C1.24656 66.2071 1.38814 62.7218 1.62448 59.2937C1.83698 56.212 2.20808 53.1367 2.80566 50.1045L2.85771 49.8417C3.41635 47.0364 4.09017 44.1631 5.4407 41.6225C6.59372 39.4536 8.37377 37.6515 10.4559 36.3521ZM38.5567 49.7597C38.5672 49.7296 38.6071 49.73 38.6177 49.7597C38.8484 50.4027 38.8567 51.1283 38.918 51.8061L38.9229 51.8581C38.9816 52.4764 39.0259 53.0954 39.0671 53.7149L39.0824 53.9472C39.2476 56.4745 39.4542 58.9989 39.7654 61.5129C40.0756 64.0174 40.4949 66.5044 40.9484 68.9865C40.9989 69.2629 40.876 69.5444 40.5849 69.624C40.3284 69.6942 39.999 69.5368 39.9448 69.2621C39.6632 67.8374 39.4356 66.4108 39.2325 64.9738C38.875 62.4433 38.6082 59.9012 38.4366 57.3515C38.3505 56.0709 38.2975 54.7908 38.2764 53.5075C38.2667 52.9121 38.2822 52.3152 38.3141 51.7204L38.3217 51.5832C38.3569 50.9752 38.3533 50.3395 38.5567 49.7597ZM16.6904 65.8569C16.7174 65.8423 16.7509 65.8723 16.7337 65.9001C16.3419 66.5342 15.8118 67.0809 15.2995 67.6198C14.7639 68.1831 14.2415 68.7634 13.6951 69.3156C13.3003 69.7146 12.6652 69.0711 13.0818 68.705C13.6677 68.1905 14.28 67.7015 14.8763 67.1984L15.1371 66.9783C15.626 66.567 16.1294 66.1595 16.6904 65.8569ZM35.3011 65.5393C35.2719 65.4839 35.3387 65.4389 35.3841 65.4756C35.7002 65.7315 35.9834 66.0368 36.2886 66.3069C36.5909 66.5744 36.9044 66.8239 37.2265 67.0673C37.5499 67.3117 37.8804 67.5463 38.2198 67.7683C38.5013 67.9524 38.7914 68.0999 39.0863 68.2527C39.2228 68.2702 39.3492 68.3369 39.4504 68.4634C39.6104 68.6635 39.6274 69.0407 39.4055 69.2144L39.3656 69.2455C39.1066 69.4482 38.7992 69.4729 38.5443 69.2455C38.2596 68.9917 37.9906 68.7124 37.7172 68.4441L37.635 68.364C37.3413 68.0797 37.0547 67.7862 36.7845 67.4795L36.5399 67.2025C36.0861 66.6872 35.6138 66.1318 35.3011 65.5393ZM33.8452 35.8329C33.7927 35.7983 33.8251 35.7049 33.89 35.7272L34.009 35.7682C34.5063 35.9402 35.0182 36.1311 35.4698 36.3961C35.955 36.6808 36.4031 37.0199 36.8311 37.3838C37.7172 38.1369 38.471 39.0631 39.1116 40.0284C40.397 41.9654 41.1919 44.1838 41.8337 46.4035C42.5181 48.7702 43.0449 51.1878 43.4751 53.6123C43.9123 56.0763 44.2495 58.5624 44.4711 61.0548C44.5803 62.2826 44.6536 63.5111 44.6905 64.7432C44.7094 65.377 44.7088 66.0103 44.7035 66.6444C44.7022 66.8074 44.7033 66.9704 44.7051 67.1334L44.7114 67.6224C44.7147 67.9315 44.7519 68.2564 44.6781 68.5584C44.5593 69.0446 43.752 68.9539 43.7785 68.457C43.7542 68.2917 43.7532 68.1208 43.7595 67.9496C43.7557 67.9275 43.7515 67.905 43.7469 67.8821C43.7337 67.8164 43.7449 67.7556 43.7709 67.7033C43.775 67.6212 43.7788 67.5396 43.7802 67.4593C43.7854 67.1329 43.7851 66.8077 43.776 66.4814C43.7569 65.7933 43.7294 65.1052 43.7017 64.4174C43.6462 63.043 43.569 61.6679 43.4571 60.2969C43.0678 55.5245 42.2458 50.725 40.865 46.1336C40.2237 44.0015 39.3396 41.9085 38.0717 40.0661C37.5089 39.2482 36.8739 38.4927 36.17 37.7915C35.4616 37.086 34.6809 36.3841 33.8452 35.8329ZM24.291 66.5977L24.3867 67.2869C24.4345 67.6315 24.4819 67.9763 24.5268 68.3212C24.8323 68.2796 25.1447 68.2622 25.439 68.2362C25.9542 68.1907 26.473 68.1688 26.9897 68.1475C28.0583 68.1036 29.1322 68.0275 30.2018 68.0328C30.2128 68.0329 30.2232 68.0336 30.2336 68.0345L30.2866 66.6747L29.5351 66.6735C28.8983 66.6725 28.2617 66.6671 27.625 66.6617C27.0515 66.6567 26.4779 66.656 25.9045 66.6441L25.6588 66.6383C25.224 66.6266 24.7439 66.6507 24.291 66.5977ZM30.3497 64.624C30.319 64.6276 30.2878 64.6306 30.2546 64.632C30.1058 64.6382 29.9557 64.6339 29.8068 64.6351C29.4896 64.6379 29.1725 64.64 28.8552 64.6399C28.2209 64.6399 27.5866 64.6437 26.9523 64.6513C26.2994 64.6592 25.6468 64.6705 24.9938 64.6718C24.6774 64.6723 24.3621 64.664 24.0458 64.6552C24.0969 65.1027 24.1504 65.5499 24.2094 65.9961C24.7006 65.93 25.2288 65.9633 25.7089 65.9588L25.7712 65.9579C26.4263 65.9468 27.0821 65.955 27.7374 65.9558C28.4115 65.9566 29.0856 65.9588 29.7598 65.9643L30.3137 65.9688L30.3147 65.9411C30.331 65.5025 30.3414 65.0633 30.3497 64.624ZM23.8021 62.4829C23.8635 63.0112 23.9212 63.5404 23.9799 64.0694C24.019 64.0634 24.0585 64.0582 24.0988 64.054C24.4156 64.021 24.7318 63.9927 25.0498 63.9731C25.6836 63.934 26.3174 63.9134 26.9523 63.8964C27.6052 63.879 28.2581 63.8656 28.9112 63.8564C29.2285 63.852 29.5455 63.8524 29.8628 63.8546C30.0116 63.8556 30.162 63.851 30.3106 63.8609C30.3283 63.8621 30.3452 63.8639 30.362 63.8658L30.3732 63.0716C30.3751 62.9392 30.3771 62.8069 30.3792 62.6746C29.8889 62.7047 29.3903 62.6932 28.9003 62.6933L28.7874 62.6936C28.1716 62.6964 27.5557 62.688 26.9401 62.6752C26.305 62.6621 25.6712 62.6414 25.0372 62.6009C24.7804 62.5846 24.5254 62.5628 24.2699 62.5347L24.1422 62.5202C24.031 62.5071 23.9165 62.4966 23.8021 62.4829ZM30.4298 60.2415C29.2488 60.3348 28.0741 60.3738 26.89 60.3854L26.7123 60.387C25.6658 60.3949 24.6108 60.4378 23.5619 60.4102C23.6246 60.9517 23.6871 61.4931 23.7502 62.0344C23.9004 62.0274 24.0513 62.0274 24.1981 62.0221C24.4968 62.0114 24.7944 62.0087 25.0932 62.008C25.7088 62.0066 26.3244 62.0119 26.9401 62.0107C27.5746 62.0094 28.2089 61.9987 28.8433 61.9868C29.3576 61.9772 29.8774 61.9387 30.3931 61.9401L30.4298 60.2415ZM30.4798 57.9317C30.343 57.9769 30.1814 57.9798 30.0042 57.9879L29.5471 58.0106C29.3352 58.0209 29.1232 58.0307 28.9112 58.0384C28.2047 58.0641 27.4981 58.0882 26.7915 58.1106C26.0674 58.1335 25.3397 58.1468 24.6155 58.124C24.2608 58.1129 23.909 58.0944 23.5553 58.0649C23.4679 58.0576 23.3787 58.0528 23.2894 58.0466C23.3717 58.7639 23.4544 59.4811 23.5373 60.1984C24.5812 60.0708 25.6332 59.9914 26.6757 59.8594L27.6185 59.7395C28.5608 59.6198 29.5023 59.5023 30.448 59.4033L30.4798 57.9317ZM30.5301 55.5963C30.3293 55.6457 30.1005 55.6432 29.9076 55.6553L29.8719 55.6578C29.5066 55.6854 29.1403 55.6992 28.7741 55.7082C28.0563 55.7258 27.3381 55.7346 26.6201 55.739L26.1884 55.7417C25.6128 55.745 25.0376 55.7465 24.4619 55.7331C24.0926 55.7246 23.7241 55.7066 23.3551 55.6882C23.2446 55.6826 23.1316 55.679 23.0182 55.6733C23.0954 56.3524 23.1733 57.0314 23.251 57.7104C23.3723 57.6912 23.4941 57.6766 23.6102 57.6571C23.9076 57.6071 24.2044 57.5671 24.504 57.5314C25.1528 57.454 25.8049 57.3983 26.4568 57.3513C27.1259 57.303 27.7957 57.2621 28.465 57.2154L28.939 57.1821C29.097 57.1712 29.255 57.1606 29.4131 57.151C29.6831 57.1345 29.9969 57.1531 30.2647 57.0946C30.3372 57.0645 30.4177 57.0576 30.4983 57.0748L30.5301 55.5963ZM30.5909 52.8628C30.5214 52.9506 30.4177 52.9967 30.2939 53.0126C29.6495 53.0959 28.9884 53.1092 28.3385 53.1485L28.224 53.1557C27.5529 53.1997 26.8815 53.2343 26.2099 53.2698C25.5201 53.3062 24.8303 53.336 24.1399 53.3599C23.8468 53.3701 23.5522 53.3713 23.2587 53.3675L23.1329 53.3656C23.0124 53.3636 22.8861 53.3639 22.7596 53.3598C22.8296 53.9949 22.9003 54.6298 22.972 55.2647C23.101 55.2507 23.23 55.24 23.3551 55.2269C23.7239 55.188 24.0923 55.1497 24.4619 55.1207C25.1623 55.0657 25.8632 55.0326 26.5649 54.9981C27.2828 54.9627 28.0011 54.9391 28.7191 54.9057C29.0672 54.8895 29.4152 54.8694 29.7623 54.8375C30.0056 54.8153 30.2946 54.7328 30.5484 54.7631C30.5622 54.1296 30.5766 53.4962 30.5909 52.8628ZM30.6475 50.414C30.6365 50.431 30.6237 50.4474 30.6081 50.4626C30.3244 50.7418 29.9747 50.7202 29.5987 50.7495L29.5756 50.7514C29.2071 50.7822 28.8385 50.8116 28.4696 50.838C27.7321 50.8911 26.9933 50.9281 26.2548 50.9612C25.499 50.995 24.7384 51.0183 23.9819 51.0029C23.4974 50.993 22.9901 50.9948 22.4959 50.9478C22.5718 51.6472 22.6481 52.3465 22.725 53.0458C22.864 53.0197 23.0038 52.9997 23.1363 52.979C23.4701 52.9267 23.8042 52.8741 24.1399 52.8356C24.8108 52.7587 25.4818 52.6868 26.154 52.6219C26.7288 52.5664 27.3035 52.51 27.8787 52.4593L28.224 52.4296C28.9103 52.3721 29.6054 52.2773 30.2939 52.2633C30.4074 52.261 30.5357 52.3225 30.6008 52.4195C30.616 51.751 30.6318 51.0825 30.6475 50.414ZM30.6952 48.4317C30.5199 48.4529 30.3311 48.4408 30.1693 48.4461C29.7604 48.4594 29.3514 48.4717 28.9423 48.4837L26.4882 48.5559C25.6526 48.5804 24.8142 48.5988 23.9783 48.587C23.6106 48.5819 23.2413 48.5813 22.8737 48.5614L22.7512 48.554C22.6 48.5439 22.4143 48.5425 22.233 48.5242L22.4471 50.4981C22.9388 50.4274 23.4456 50.4009 23.9332 50.3595L24.0373 50.3503C24.7564 50.2851 25.479 50.2419 26.1994 50.1934C26.9383 50.1435 27.6763 50.0831 28.4142 50.0212C28.7831 49.9903 29.1519 49.9595 29.5204 49.9258L29.566 49.9213C29.9141 49.8851 30.2415 49.8081 30.5498 50.0125C30.595 50.0423 30.6303 50.0823 30.6545 50.127C30.6679 49.5619 30.6811 48.9968 30.6952 48.4317ZM30.7524 46.128C29.2578 46.1879 27.763 46.2333 26.2672 46.2533C25.4253 46.2645 24.5845 46.2566 23.7427 46.2391C23.3777 46.2315 23.0096 46.2141 22.6449 46.1862L22.5083 46.1753C22.3348 46.1608 22.1526 46.1502 21.9712 46.1328C22.0462 46.8115 22.1206 47.4903 22.1944 48.1692C22.3728 48.1362 22.5593 48.121 22.7157 48.1011L22.7512 48.0964C23.1398 48.0431 23.532 48.0121 23.9225 47.9779C24.6828 47.9112 25.447 47.8682 26.2093 47.8317C26.99 47.7943 27.7711 47.7626 28.5519 47.728L29.3327 47.6932C29.4629 47.6875 29.593 47.6818 29.7231 47.6764C29.9091 47.6686 30.095 47.6611 30.2809 47.6534C30.3726 47.6497 30.468 47.6373 30.5598 47.642L30.5859 47.6385C30.598 47.6369 30.6086 47.6357 30.6184 47.6347C30.6434 47.6157 30.6703 47.6 30.6987 47.5881L30.716 47.5814L30.7524 46.128ZM21.7262 43.9448C21.7956 44.5558 21.8642 45.1669 21.9319 45.7781C22.1451 45.7539 22.3608 45.7405 22.5644 45.7223C22.9748 45.6856 23.3871 45.6535 23.7988 45.6347L24.6215 45.5966C25.17 45.5714 25.7184 45.547 26.2672 45.527C27.7693 45.4724 29.2714 45.4099 30.7725 45.3335C30.7831 44.919 30.7941 44.5045 30.8052 44.09C30.7332 44.1668 30.629 44.2174 30.4923 44.2171C28.9163 44.2128 27.339 44.2219 25.7632 44.1961C24.9744 44.1832 24.1865 44.1642 23.3986 44.1239C23.0131 44.1042 22.6254 44.064 22.2428 44.0112C22.0797 43.9887 21.9012 43.9727 21.7262 43.9448ZM21.4739 41.7677C21.548 42.3935 21.6207 43.0196 21.6922 43.6457C21.8879 43.611 22.0901 43.5924 22.2727 43.5677C22.665 43.5146 23.0598 43.4723 23.455 43.4501C24.2239 43.4068 24.9932 43.3849 25.7632 43.3687C27.3389 43.3353 28.9162 43.3356 30.4923 43.3232C30.6403 43.322 30.7502 43.3803 30.8224 43.4674C30.8333 43.0766 30.8449 42.6857 30.8568 42.2948C30.7045 42.2788 30.5536 42.2562 30.4139 42.2465C29.9847 42.2166 29.5553 42.1894 29.1257 42.1648C28.2293 42.1136 27.332 42.0699 26.4349 42.031C25.5376 41.9922 24.64 41.9542 23.7425 41.9211L23.3499 41.9068C22.7257 41.8837 22.0909 41.8545 21.4739 41.7677ZM21.1917 39.4105C21.2688 40.0444 21.3448 40.6784 21.4205 41.3125L21.4436 41.5087C22.1943 41.3634 22.9854 41.3208 23.7425 41.2888C24.6402 41.2508 25.5364 41.2312 26.4349 41.2339C27.3325 41.2366 28.2288 41.2578 29.1257 41.2947C29.5739 41.3131 30.022 41.3344 30.4699 41.3586C30.593 41.3653 30.7374 41.3617 30.8861 41.3639C30.8893 41.2642 30.892 41.1646 30.8955 41.065C30.9091 40.6614 30.9225 40.2579 30.9364 39.8543C30.6334 40.0093 30.2395 40.0718 29.9351 40.1378L29.9004 40.1454C29.3977 40.2579 28.8844 40.3307 28.3712 40.3753C27.3636 40.4628 26.3454 40.4301 25.3387 40.3453L25.1624 40.3303C24.2784 40.254 23.3619 40.1572 22.5049 39.9394C22.0967 39.8357 21.6746 39.6905 21.3088 39.48C21.2708 39.4582 21.2315 39.435 21.1917 39.4105ZM29.7037 31.8778C29.7124 31.8435 29.7639 31.8357 29.7809 31.8677C29.8999 32.0929 29.9442 32.3632 30.0269 32.6045C30.1158 32.8639 30.1988 33.1252 30.297 33.3815C30.502 33.9169 30.7438 34.4314 31.0322 34.9273C31.3177 35.4184 30.5181 35.769 30.308 35.2313C30.091 34.6765 29.9127 34.1028 29.8048 33.5165C29.7522 33.2305 29.7052 32.9405 29.69 32.6499C29.6769 32.4002 29.6416 32.1213 29.7037 31.8778Z" fill="black"/>
<path fill-rule="evenodd" clip-rule="evenodd" d="M35.5398 20.9847C35.5174 19.728 35.4926 18.4461 35.305 17.2016C35.1215 15.9849 34.6169 14.8851 33.7498 14.0016C31.9079 12.1249 29.238 11.6666 26.7528 11.2465L22.5039 10.5283C21.2076 10.3092 19.8247 9.95902 18.515 10.2697C17.8696 10.4228 17.3216 10.7785 16.8207 11.1993C16.3379 11.6049 15.8188 12.0404 15.4916 12.5861C15.1639 13.1325 15.0512 13.7713 14.9446 14.3894C14.8245 15.0862 14.7311 15.7884 14.6648 16.4924C14.5319 17.9027 14.5138 19.3236 14.6101 20.7369C14.6568 21.4224 14.7312 22.1059 14.826 22.7864C14.8731 23.1238 14.9263 23.4604 14.9863 23.7958C15.004 23.8947 15.0175 24.0042 15.0356 24.1149C14.9016 24.4944 14.8254 24.8875 14.8316 25.2789C14.8496 26.4319 15.8269 27.1577 16.8122 27.5474C17.3834 27.7734 17.9807 27.927 18.542 28.1794C19.1325 28.4449 19.5344 28.8754 19.9381 29.3664C20.7081 30.3029 21.577 31.1446 22.5691 31.8469C24.6727 33.3358 27.337 34.04 29.8894 33.5055C30.5017 33.3773 31.1196 33.1781 31.67 32.878C32.2512 32.5613 32.6882 32.1022 33.0552 31.5594C33.7366 30.5518 34.2253 29.4172 34.595 28.2627C34.9721 27.0849 35.2397 25.905 35.3857 24.677C35.5312 23.4529 35.5618 22.2163 35.5398 20.9847Z" fill="white"/>
<path fill-rule="evenodd" clip-rule="evenodd" d="M21.981 6.15048C23.7393 5.90965 26.1662 6.6924 27.0418 8.27069C31.2224 7.28929 36.4953 7.25715 39.941 10.5242C43.5364 14.3996 39.0203 19.5094 36.0258 20.6615C36.2438 21.7165 35.9039 28.4756 33.4985 31.4906C31.5896 34.0451 27.1441 35.224 25.0871 32.1729L25.071 32.1477C24.8506 31.7953 25.0404 31.8066 25.2667 32.0687C27.281 33.8326 30.0197 33.8627 32.1302 32.0013C36.0856 28.5988 35.6778 20.2563 33.7956 15.4301C28.4362 14.8439 22.6979 16.4614 18.9962 20.4787L19.2465 21.9792C19.2892 22.2348 19.3376 22.4903 19.3746 22.7468C19.3983 22.9112 19.4009 23.0746 19.2865 23.2077C18.9089 23.647 18.2725 22.9869 17.7488 22.7244C17.5942 22.7027 17.4393 22.6943 17.2875 22.705C14.7715 23.0277 15.2672 27.8876 18.0324 27.0357C18.2647 26.8916 18.4644 26.9356 18.5545 27.1447C19.2136 27.7459 19.6482 28.818 20.7432 29.8507C21.1296 30.2381 21.4812 30.5621 21.9158 30.8729C22.1711 31.1299 22.9413 31.392 22.6971 31.8319C22.2354 32.8328 19.5125 29.6887 19.0311 28.8193C17.5228 29.4123 15.8512 29.2109 14.2881 29.0659C6.04193 28.639 7.14278 19.9835 13.902 14.5188C15.1743 13.5861 16.5781 12.8252 18.0373 12.2397C18.2365 12.1598 18.1495 11.8341 17.9475 11.9151C16.9819 12.3026 16.0407 12.7638 15.1435 13.2976L15.1421 12.9784C15.1408 12.4409 15.1492 11.8814 15.243 11.3903C15.2899 11.05 15.3687 10.6865 15.49 10.4131C15.6401 9.57477 17.9902 6.69734 21.981 6.15048ZM17.1774 23.8207C17.3047 23.7003 17.5424 23.8439 17.6558 23.8403C17.9456 23.8798 18.221 24.0017 18.4358 24.1522C18.5776 24.2313 18.6769 24.3055 18.76 24.3739L18.7622 24.3733C18.7616 24.3733 18.7608 24.3739 18.7602 24.374L18.768 24.3793C18.8889 24.4649 19.3315 24.9467 19.0519 24.8171C19.031 24.7901 19.0097 24.7642 18.9882 24.7388C18.9859 24.7423 18.9826 24.7457 18.9788 24.749L18.9945 24.7722C19.2322 25.1283 18.8218 24.7532 18.7587 24.6535C18.7557 24.6559 18.7523 24.6576 18.749 24.6593L18.8312 24.759C18.8427 24.7731 18.8518 24.7844 18.8593 24.7939L18.8766 24.8106C19.1514 25.0796 19.16 25.3217 18.8407 24.924C18.8533 24.9427 18.8634 24.9626 18.8648 24.9802L18.8837 25.0042C19.1344 25.3259 18.9305 25.2116 18.8059 25.0743L18.7955 25.0624L18.7976 25.0657C18.9135 25.2434 18.6836 25.1187 18.6429 25.0236L18.6412 25.0193C18.597 24.9833 18.5697 24.943 18.5604 24.9328L18.5586 24.9311C18.3431 24.7111 18.0306 24.5251 17.7652 24.4405C17.7268 24.4332 17.6878 24.4274 17.6485 24.4232C17.4889 24.3878 17.3275 24.3635 17.1645 24.3504C17.1446 24.348 17.1243 24.3334 17.1092 24.3146C16.8627 24.3063 16.9388 24.2057 17.0411 24.187L17.0429 24.1867L17.0226 24.185C16.8644 24.1696 16.7563 24.1131 16.9163 24.0784L16.9366 24.0744C16.9341 24.0705 16.9319 24.0666 16.9297 24.0628C16.7927 24.0478 16.8821 23.9152 16.9582 23.9472C16.9262 23.8431 17.0724 23.8951 17.0907 23.8796C17.1046 23.8642 17.1219 23.8506 17.1319 23.8499C17.1759 23.8189 17.1546 23.8217 17.1774 23.8207ZM18.0157 22.1341L17.9836 22.1528C17.9576 22.1679 17.9309 22.1779 17.9041 22.1838C17.942 22.1998 17.9794 22.2172 18.0164 22.2357C18.0158 22.2131 18.0154 22.1905 18.0154 22.1679L18.0157 22.1341Z" fill="black"/>
<path fill-rule="evenodd" clip-rule="evenodd" d="M30.5517 29.005C30.1366 29.1247 29.6912 29.1354 29.2681 29.0118C28.8844 28.8996 28.4904 28.6529 28.208 28.3264C27.9572 28.0363 27.7947 27.6838 27.8011 27.3076C27.8018 27.2646 27.8172 27.2287 27.841 27.2009C27.8665 27.1709 27.9022 27.1503 27.9404 27.1414C27.9798 27.1322 28.0213 27.1355 28.0567 27.1515C28.0888 27.166 28.1162 27.1906 28.1334 27.2266C28.1768 27.2833 28.22 27.3393 28.2634 27.3936C28.6124 27.8227 28.9503 28.1433 29.4751 28.2584C29.7598 28.3208 30.0441 28.2931 30.305 28.1979C30.5843 28.0959 30.8367 27.9167 31.0346 27.6874C31.124 27.5837 31.2295 27.5414 31.3327 27.5407C31.4497 27.5399 31.5653 27.594 31.6524 27.6805C31.738 27.7655 31.7953 27.8811 31.8005 28.0019C31.8051 28.108 31.7703 28.2188 31.6779 28.3177C31.3733 28.6433 30.9787 28.8818 30.5517 29.005ZM30.5388 23.6312C30.9643 23.8887 31.6125 24.4891 31.1548 25.1275C30.6161 25.6903 29.8405 25.045 29.4583 24.7531C29.1039 24.5269 28.7057 25.1087 29.0345 25.3728C31.7964 27.4089 32.9172 23.6985 30.754 23.3284C30.5158 23.2876 30.4274 23.5515 30.5388 23.6312ZM26.5592 22.4981C26.4224 22.411 26.2616 22.3812 26.0833 22.4619C25.944 22.525 25.6997 22.7353 25.5297 23.0117C25.4133 23.2009 25.3308 23.4227 25.348 23.6538C25.352 23.7075 25.3321 23.7471 25.3007 23.7763C25.2759 23.7994 25.24 23.8164 25.1979 23.8217C25.1622 23.8262 25.1222 23.8222 25.0897 23.812C25.0278 23.7928 24.9951 23.7529 24.9827 23.7202C24.8637 23.4054 24.915 23.0541 25.0484 22.7371C25.2285 22.3093 25.5555 21.951 25.7697 21.8355C26.1363 21.6378 26.5689 21.6287 26.936 21.8301C27.2485 22.0016 27.444 22.2784 27.6383 22.5606C27.6796 22.6206 27.7207 22.6801 27.763 22.7386C27.848 22.8558 27.8564 22.9721 27.8235 23.0718C27.7871 23.1822 27.6942 23.2754 27.578 23.3242C27.4706 23.3693 27.346 23.3756 27.2357 23.3293C27.1425 23.2902 27.057 23.2139 27.0029 23.0845C26.9118 22.8665 26.76 22.626 26.5592 22.4981ZM33.5037 22.9831C33.4101 23.0316 33.3368 23.0463 33.2329 23.0153C33.1755 22.9981 33.1187 22.9652 33.0743 22.9209C33.0302 22.8771 32.9984 22.8225 32.9861 22.762C32.9557 22.6126 32.8736 22.4728 32.7567 22.3817C32.6567 22.3038 32.5305 22.2625 32.3906 22.2858C32.2396 22.3109 32.0957 22.4073 31.9966 22.521C31.9635 22.5591 31.9375 22.6023 31.9114 22.6452C31.8626 22.7255 31.8152 22.8001 31.7478 22.859C31.7223 22.8815 31.6839 22.897 31.6466 22.897C31.6315 22.897 31.6161 22.8945 31.6015 22.89C31.4512 22.7398 31.4222 22.6258 31.4271 22.5128C31.4322 22.3943 31.4791 22.2743 31.5549 22.1623C31.7328 21.8996 32.0706 21.6843 32.2985 21.6355C32.6107 21.5687 32.9206 21.6489 33.1692 21.8225C33.4249 22.0011 33.6144 22.2784 33.6735 22.591C33.6877 22.6662 33.6817 22.7475 33.6529 22.8179C33.6247 22.8868 33.5757 22.9457 33.5037 22.9831ZM27.2476 19.6978C27.0603 19.8795 26.8385 19.9077 26.6142 19.9327C26.4896 19.9468 26.3901 19.9581 26.2922 19.9801C26.0231 20.0406 25.7572 20.1317 25.5145 20.2629C25.2608 20.4 24.9844 20.5654 24.7855 20.7773C24.7382 20.8277 24.6936 20.8806 24.649 20.9337C24.6083 20.982 24.5691 21.0286 24.5277 21.0734C24.4803 21.125 24.4352 21.179 24.3904 21.2329C24.3626 21.2784 24.3572 21.2896 24.3516 21.3012C24.3432 21.3187 24.3334 21.3383 24.3223 21.3593C24.307 21.388 24.2891 21.4195 24.2703 21.4481C24.2391 21.5003 24.2224 21.5146 24.2079 21.5211C24.1839 21.5317 24.1612 21.537 24.1391 21.5341C24.1184 21.5314 24.0989 21.5215 24.0796 21.5053C23.9834 21.4244 23.9551 21.2916 23.958 21.1507C23.9624 20.9368 24.0416 20.7 24.1146 20.5544C24.2845 20.2161 24.52 19.8645 24.8032 19.612C25.1263 19.3239 25.4799 19.1057 25.886 18.9554C26.1383 18.8619 26.4305 18.7761 26.7054 18.787C26.9033 18.7948 27.0923 18.8533 27.2483 18.9996C27.3441 19.0894 27.3901 19.2171 27.3901 19.3448C27.3901 19.475 27.3423 19.6059 27.2476 19.6978ZM33.8847 21.362C33.8728 21.3814 33.8563 21.3948 33.8379 21.4029C33.8187 21.4113 33.7972 21.4137 33.7766 21.4103C33.7561 21.4068 33.7366 21.3976 33.7212 21.3834C33.7063 21.3699 33.695 21.3519 33.69 21.3298C33.5656 20.7859 33.3241 20.3812 32.8087 20.1203C32.5552 19.9919 32.2636 19.9103 31.9876 19.8453C31.9074 19.8264 31.8226 19.8142 31.7373 19.8018C31.4698 19.7629 31.2004 19.7183 31.026 19.503C30.921 19.3733 30.8769 19.2075 30.9018 19.0558C30.9253 18.913 31.0091 18.782 31.1614 18.7036C31.5407 18.5083 32.0121 18.6999 32.3951 18.8631C32.4235 18.8752 32.4514 18.8871 32.4787 18.8986C32.8533 19.056 33.1949 19.2639 33.4757 19.5611C33.6985 19.7968 33.905 20.1454 33.9881 20.504C34.0573 20.8023 34.041 21.1068 33.8847 21.362Z" fill="black"/>
<path fill-rule="evenodd" clip-rule="evenodd" d="M30.6007 25.8168C29.9741 25.5358 28.8491 25.781 28.4406 25.8785C27.491 26.1053 26.5358 26.5953 26.2406 27.363C25.9079 28.2282 26.5717 28.5006 26.6693 28.4561C27.3266 28.5022 28.1095 28.0907 28.7983 27.9845C29.3575 27.8976 29.9474 27.8217 30.4714 27.5258C30.8539 27.7353 31.7179 27.8486 32.4152 28.0318C33.0091 28.1878 33.2664 28.526 33.8169 28.4541C34.4767 28.3679 34.2066 26.986 33.4713 26.4262C32.6664 25.8136 31.3052 25.5651 30.6007 25.8168ZM31.8412 31.7255C31.2931 31.8585 31.2563 30.6622 31.1949 30.2396C31.1469 29.9094 30.8763 29.0578 30.1904 29.0946C29.5044 29.1313 29.2465 29.8448 29.2813 30.2885C29.3039 30.5762 29.5702 32.0338 28.7202 32.2182C28.1783 32.2163 27.5514 32.1799 26.9816 32.0752C26.3109 31.924 25.4389 31.3945 25.2085 32.4373C25.1256 32.8126 28.0798 33.9277 29.3908 34.0286C30.7202 34.2968 32.2757 33.8843 33.2223 32.8716C33.4376 32.6412 34.0441 31.6849 34.0874 31.4506C34.1782 30.9583 33.9679 30.6415 33.3562 30.815C32.9241 31.0448 32.1937 31.6399 31.8412 31.7255Z" fill="black"/>
<path fill-rule="evenodd" clip-rule="evenodd" d="M34.4923 24.5864C33.6467 24.9919 32.4671 24.3939 31.8986 23.7674C31.6917 23.5393 31.532 22.8867 31.6116 22.4728C31.8272 21.3519 32.6374 20.6791 33.4926 20.4494C34.6782 20.1309 35.8714 20.9378 35.7323 21.89C35.6004 22.7925 35.4005 24.1016 34.4923 24.5864ZM28.7373 22.4332C28.6695 23.6548 27.6843 24.724 26.5068 25.0408C24.6097 25.5679 23.6721 24.24 23.2475 22.8094C23.2053 22.6672 23.1061 22.2334 23.3723 21.8612C24.4192 20.3973 26.9664 20.6468 28.2386 21.0487C28.611 21.4033 28.7632 21.9151 28.7373 22.4332ZM35.4109 20.3263C35.4103 20.3271 35.4097 20.3277 35.4091 20.3284C35.4048 20.3258 35.4005 20.3231 35.396 20.3205C35.4009 20.3225 35.4061 20.3243 35.4109 20.3263ZM36.9982 20.4675C36.888 19.2238 32.9689 19.7 32.5107 19.802C31.2603 20.1682 30.1802 21.1645 28.7821 20.7265C27.3335 19.1186 22.4552 19.5797 21.4326 20.3988C21.239 20.3232 21.0036 20.3637 20.7542 20.4351C19.4734 20.389 13.6265 20.8287 14.8224 22.4564C15.0039 22.5818 15.1853 22.4542 15.1903 22.1959C21.4248 19.955 20.8205 22.054 21.5599 21.8089C21.6728 21.8412 21.7906 21.8617 21.8936 21.8832C22.4659 22.0666 22.6602 22.0099 22.7356 22.6496C23.2535 27.5892 29.8594 25.8844 29.3176 21.8326C29.8541 21.8033 30.3233 21.5723 30.8906 21.7978C31.2844 25.6146 34.369 25.7687 35.2973 24.4456C35.9973 23.5272 35.7197 22.1414 36.6819 21.4189C37.0617 21.7354 37.0862 20.6672 36.9982 20.4675Z" fill="black"/>
</g>
<rect x="0.5" y="0.5" width="49" height="49" rx="16.5" stroke="#F5F4F3"/>
<defs>
<clipPath id="clip0_106_11155">
<rect x="1" y="1" width="48" height="48" rx="16" fill="white"/>
</clipPath>
</defs>
</svg>
