<svg width="50" height="50" viewBox="0 0 50 50" fill="none" xmlns="http://www.w3.org/2000/svg">
<g clip-path="url(#clip0_106_11055)">
<rect x="1" y="1" width="48" height="48" rx="16" fill="#F5F4F3"/>
<path fill-rule="evenodd" clip-rule="evenodd" d="M43.5185 52.0172C43.1418 50.8513 43.5905 49.5046 43.2972 48.2476C43.1967 47.7505 43.0057 45.9034 42.8139 44.8233C42.7066 44.2192 43.3485 44.0316 43.4471 43.7904C44.1413 41.6242 39.0772 36.5281 38.7681 36.3404C38.3049 36.0707 37.895 35.8386 37.4424 35.5631C36.1221 35.0959 34.5388 33.7962 33.3418 34.631C31.2679 31.5211 32.0884 27.6895 30.963 27.2341C29.8376 26.7787 26.5144 25.8583 24.6144 27.0337C23.4756 27.8824 23.5596 29.3436 23.04 30.5486C22.735 31.1158 22.5851 31.9375 22.2301 32.3075C21.0237 33.5645 19.5193 33.7812 17.8375 33.9946C17.7094 34.0108 17.5746 33.6599 17.4502 33.7032C14.6132 34.691 11.3121 34.9792 8.09928 40.5098C7.64553 41.3008 6.42147 42.5698 6.83077 43.4839C4.13398 49.8009 1.48044 64.0191 8.88016 67.5649C9.11669 67.7173 10.7213 66.9001 10.9828 66.9077C11.4186 66.9203 10.5835 67.9863 10.9828 67.7964C13.914 68.0204 30.0428 67.4424 36.2253 68.0204C40.4767 67.9883 43.1695 68.7392 44.1512 67.9883C43.7587 67.033 43.7769 66.0097 43.901 64.9997C44.8045 64.3224 43.6876 59.5495 43.7821 58.1519C44.6278 57.1306 43.9544 53.3003 43.5185 52.0172Z" fill="white"/>
<path fill-rule="evenodd" clip-rule="evenodd" d="M42.1707 45.026C41.7651 45.6202 41.3925 46.2319 41.0556 46.8682C40.8819 47.1964 40.7199 47.5311 40.5741 47.8727C40.5437 47.1342 40.5371 46.387 40.4514 45.6558C40.4453 45.6031 40.3579 45.5774 40.3487 45.6418C40.2541 46.3048 40.2384 46.985 40.2027 47.6551C40.1615 47.6424 40.116 47.635 40.0658 47.635C39.5791 47.635 39.0996 47.6752 38.6146 47.7148C38.3973 47.7325 38.1699 47.7461 37.9482 47.781C38.1266 47.5825 38.2928 47.3728 38.4462 47.1541C38.6027 46.931 38.7815 46.5824 38.5089 46.3681C38.2077 46.1314 37.6172 46.4409 37.3259 46.5613C37.1785 46.6223 37.0338 46.6886 36.8915 46.7591C36.7117 46.2518 36.1606 46.1845 35.6883 46.2546C35.3515 46.3046 35.0245 46.4206 34.6963 46.509C34.2796 46.6211 33.8611 46.7267 33.4411 46.8258C32.6848 47.0041 31.9232 47.16 31.1581 47.295C31.1379 47.2714 31.1098 47.2527 31.0724 47.2433C30.8104 47.1773 30.5213 47.2279 30.2526 47.2329C29.9763 47.238 29.7 47.2376 29.4237 47.2319C28.9301 47.2217 28.437 47.2176 27.9436 47.209C27.8033 47.1233 27.6254 47.0004 27.5819 46.8392C27.5275 46.638 27.6973 46.4151 27.7761 46.2438C28.0788 45.5862 28.1847 44.8503 28.0659 44.134C28.0448 44.0064 28.0012 43.8667 27.9382 43.7359C28.4788 43.7942 29.0125 43.8338 29.5561 43.8517C30.6416 43.8872 31.727 43.9245 32.8129 43.9326C34.9843 43.9489 37.1556 43.949 39.327 43.933C40.5547 43.924 41.7796 43.9127 43.0058 43.8495C42.9058 43.9771 42.8086 44.1074 42.7138 44.2398C42.6942 44.2339 42.6685 44.2445 42.6715 44.269C42.6725 44.2776 42.6735 44.2861 42.6745 44.2946C42.5014 44.5382 42.3347 44.7856 42.1707 45.026ZM39.7563 67.6396C39.2517 67.6234 38.7472 67.6072 38.2426 67.591C37.2522 67.5593 36.2618 67.5275 35.2714 67.4958C33.3093 67.4329 31.3473 67.3722 29.3849 67.3176C27.4273 67.2633 25.4687 67.2057 23.5105 67.2673C21.5479 67.3289 19.5902 67.4885 17.6312 67.6166C16.5422 67.6877 15.4523 67.7493 14.3612 67.7788C13.3221 67.8068 12.2737 67.7644 11.2362 67.8391C11.2013 67.5807 11.227 67.323 11.2232 67.0657C11.5635 66.8677 11.8975 66.6572 12.2277 66.4504C13.4313 65.6963 14.569 64.8431 15.6421 63.9105C15.8071 63.7672 15.9688 63.6207 16.1289 63.4728C16.0175 63.7181 16.1067 64.0343 16.4261 64.1381C16.8155 64.2647 17.2143 64.2198 17.6188 64.2102C18.0295 64.2005 18.4403 64.1912 18.8511 64.1825C19.654 64.1653 20.4569 64.1499 21.2599 64.1364C22.8284 64.1099 24.397 64.0904 25.9657 64.0775C29.1218 64.0519 32.2756 64.0952 35.4312 64.1525C36.3185 64.1687 37.2049 64.1887 38.0923 64.1684C38.5362 64.1583 38.9819 64.1551 39.4254 64.1311C39.7806 64.1117 40.1381 64.0611 40.4933 64.0156C40.5381 64.6387 40.5849 65.2618 40.637 65.8844C40.6716 66.2955 40.7071 66.7066 40.7421 67.1177C40.7565 67.2872 40.7575 67.4604 40.7813 67.6215C40.4403 67.6403 40.1013 67.6506 39.7563 67.6396ZM40.1033 50.0423C40.0909 50.5193 40.0843 50.9966 40.0809 51.474C40.04 51.4503 39.9938 51.4331 39.9418 51.4251C39.39 51.3403 38.7995 51.4046 38.2412 51.4141C37.7015 51.4232 37.16 51.4201 36.6209 51.4458C36.0806 51.4715 35.5406 51.5022 35.0005 51.5304C34.7471 51.5437 34.4965 51.5551 34.245 51.5897C34.0728 51.6133 33.8524 51.6116 33.6684 51.661C34.4405 50.9077 35.2084 50.15 35.9785 49.3947C36.0015 49.372 36.0182 49.348 36.0298 49.3236C36.5433 49.0085 37.0361 48.6538 37.4824 48.2476C37.8364 48.3851 38.2393 48.4024 38.6146 48.4331C39.0997 48.4728 39.5789 48.5129 40.0658 48.5129C40.0987 48.5129 40.1295 48.5096 40.1586 48.5039C40.1347 49.0164 40.1166 49.529 40.1033 50.0423ZM20.0556 59.309C21.2343 59.6882 22.5115 59.684 23.7378 59.7599C25.0451 59.8409 26.3505 59.9082 27.6593 59.9595C30.2733 60.0618 32.8857 60.2008 35.4993 60.3115C36.9922 60.3746 38.4848 60.4443 39.977 60.52C40.0829 60.5253 40.1839 60.4979 40.2729 60.4479C40.323 61.4378 40.3817 62.4273 40.4501 63.4162C40.4586 63.5399 40.468 63.6634 40.4768 63.7871C39.7744 63.6984 39.0774 63.6134 38.3698 63.5533C37.5752 63.4856 36.781 63.4286 35.9853 63.3755C34.4347 63.2719 32.8816 63.1333 31.3282 63.0827C28.1616 62.9796 24.9879 63.0147 21.8201 63.0374C20.9237 63.0438 20.0275 63.0525 19.1312 63.0634C18.6831 63.069 18.235 63.075 17.7868 63.0815C17.3365 63.0882 16.8525 63.041 16.4261 63.1993C16.422 63.2008 16.4186 63.203 16.4146 63.2045C17.701 61.9767 18.8535 60.6197 20.0556 59.309ZM24.1994 55.3834C26.1693 55.7447 28.1702 55.72 30.167 55.7557C32.2102 55.7924 34.2562 55.7681 36.2997 55.7724C37.4606 55.7748 38.6314 55.8262 39.7881 55.7221C39.9248 55.7098 40.0307 55.6576 40.1062 55.5835C40.1273 56.8228 40.1659 58.0615 40.2191 59.2997C40.1441 59.2676 40.0622 59.2481 39.977 59.243C37.3658 59.0883 34.7543 58.9479 32.1399 58.8621C29.5275 58.7764 26.9119 58.6747 24.2981 58.7065C23.0225 58.7221 21.6737 58.6399 20.4156 58.9199C20.8937 58.4082 21.3821 57.9059 21.8929 57.425C22.6376 56.724 23.4323 56.0673 24.1994 55.3834ZM25.7044 53.9247C25.7071 53.9217 25.7084 53.9183 25.7103 53.9152C25.7174 53.9205 25.7261 53.9241 25.7375 53.9239C27.5815 53.882 29.6503 54.468 31.3751 53.5686C32.145 53.1672 32.7827 52.5326 33.4017 51.9227C33.402 51.9272 33.4024 51.9318 33.4027 51.9363C33.4068 51.9858 33.4276 52.0454 33.4774 52.0673C33.6808 52.1572 33.9191 52.1631 34.1375 52.1951C34.3887 52.232 34.6354 52.2535 34.8888 52.2689C35.4475 52.3026 36.0062 52.3384 36.565 52.3702C37.1227 52.402 37.6828 52.4046 38.2412 52.4186C38.8011 52.4326 39.3876 52.5009 39.9418 52.4204C39.9927 52.4131 40.0379 52.3969 40.0781 52.3746C40.079 53.0968 40.0855 53.8189 40.0922 54.5406C40.0933 54.6583 40.0956 54.7759 40.0969 54.8934C40.0221 54.8244 39.9193 54.7761 39.7881 54.7644C38.7604 54.6733 37.7248 54.7138 36.6935 54.7173C35.6809 54.7207 34.6681 54.7241 33.6553 54.7275C31.6104 54.7344 29.5672 54.7545 27.5226 54.7937C26.5284 54.8127 25.5384 54.897 24.5587 55.059C24.9554 54.695 25.341 54.3203 25.7044 53.9247ZM9.68166 67.055C9.30414 67.1713 8.92938 67.1208 8.55113 67.2005C8.52786 67.2054 8.5064 67.2145 8.48673 67.2264C7.354 66.739 6.59896 65.7607 6.08223 64.6645C5.53755 63.5089 5.16211 62.2737 4.91062 61.0215C4.39209 58.4401 4.39118 55.7634 4.65958 53.1519C4.9233 50.5861 5.44544 48.0343 6.19056 45.5668C6.70217 43.8725 7.35417 42.1609 8.25947 40.616C9.30482 41.3216 10.1155 42.3374 10.8792 43.3303C11.7919 44.517 12.6143 45.7726 13.3505 47.0773C13.2743 47.3008 13.2625 47.5812 13.226 47.781C13.1556 48.1662 13.0921 48.5562 13.0421 48.9448C12.9354 49.7752 12.8329 50.6061 12.7238 51.4362C12.508 53.0777 12.2503 54.7147 11.9656 56.3454C11.9426 56.4776 11.9794 56.5893 12.0472 56.6731C11.4826 56.9729 10.9253 57.286 10.3824 57.6253C9.18876 58.3715 8.07321 59.2406 7.19738 60.3553C7.17462 60.3843 7.21028 60.423 7.23845 60.3967C9.11665 58.6486 11.4501 57.551 13.741 56.4663C14.9118 55.912 16.0768 55.3487 17.2001 54.7006C18.3747 54.023 19.495 53.2572 20.5686 52.4273C21.7947 51.4796 22.9488 50.4436 24.0306 49.332C24.1581 49.201 24.1272 49.037 24.0313 48.9333C24.0637 48.9232 24.0898 48.8949 24.0915 48.8475C24.1175 48.1216 24.3339 47.5032 24.7575 46.9157C25.1506 46.3706 25.6515 45.9214 26.1033 45.4283C26.3041 45.2091 26.496 44.9808 26.6673 44.7372C26.8437 44.4865 26.9511 44.2098 27.1046 43.9479C27.284 43.6418 27.4365 43.7982 27.5196 44.0753C27.6139 44.3893 27.608 44.757 27.5702 45.0799C27.5301 45.4215 27.4268 45.7546 27.2781 46.0634C27.1384 46.3534 26.9773 46.6485 27.0714 46.9809C27.2259 47.5273 27.8884 47.8437 28.3903 47.9667C28.9492 48.1037 29.5338 48.0771 30.0997 48.006C30.8085 47.917 31.5138 47.7867 32.2144 47.6481C33.0257 47.4877 33.8323 47.3025 34.6325 47.0932C35.0086 46.9949 35.3822 46.8656 35.762 46.7841C35.8974 46.7551 36.1481 46.7115 36.3072 46.7826C34.2613 48.0112 32.0308 48.8297 29.7654 49.5429C29.484 49.6314 29.5994 50.0596 29.8875 49.9886C32.3212 49.3892 34.6109 48.2767 36.79 47.0583C36.8233 47.0396 36.8516 47.0107 36.8724 46.9765C37.0916 46.8988 37.3145 46.8313 37.5418 46.7757C37.6434 46.7508 38.1658 46.5771 38.2311 46.6439C38.3237 46.7384 38.0034 47.0452 37.9234 47.1344C37.3539 47.7699 36.6766 48.2885 35.9434 48.7173C35.1997 49.1521 34.4084 49.4988 33.6133 49.826C32.7227 50.1925 31.7814 50.4806 30.9157 50.9018C30.5718 51.0692 30.8131 51.6377 31.1754 51.5224C31.6423 51.3738 32.096 51.1553 32.5498 50.9698C32.9352 50.8122 33.3208 50.6547 33.704 50.4918C33.9712 50.3782 34.2366 50.2608 34.4995 50.1381C34.1058 50.5113 33.712 50.8845 33.3184 51.2578C32.6367 51.9043 31.989 52.6408 31.1556 53.0943C30.3323 53.5422 29.393 53.5943 28.4766 53.5847C28.0165 53.5798 27.5584 53.5651 27.0983 53.5838C26.6141 53.6034 26.184 53.6784 25.7252 53.8319C25.7167 53.8347 25.7106 53.8399 25.7054 53.8456C25.6893 53.826 25.6621 53.8161 25.634 53.8328C24.3871 54.5755 23.2505 55.5389 22.1573 56.4911C21.0307 57.4725 19.9706 58.5161 18.9605 59.6185C17.9937 60.6735 17.0346 61.7327 15.9825 62.7035C14.9553 63.6513 13.8575 64.512 12.7113 65.3086C12.0867 65.7426 11.4467 66.1606 10.7845 66.5342C10.4307 66.7339 10.0713 66.935 9.68166 67.055ZM9.78651 38.4864C10.233 37.9812 10.7137 37.5129 11.2222 37.0796C11.4466 37.1465 11.6822 37.1653 11.9195 37.1677C12.2817 37.1713 12.6447 37.1865 13.0069 37.1828C13.7043 37.1756 14.4014 37.1534 15.099 37.1496C16.5253 37.1418 17.9521 37.1414 19.3784 37.1538C19.5653 37.1555 19.7001 37.075 19.7833 36.9581C20.072 37.2878 20.3696 37.61 20.6697 37.927C21.1572 38.442 21.6769 38.9335 22.2301 39.3813C22.1224 39.382 22.0147 39.383 21.9076 39.3822C21.4143 39.3789 20.9209 39.3758 20.4276 39.3731C19.4376 39.3676 18.4475 39.3635 17.4575 39.3609C15.4893 39.3556 13.5149 39.3721 11.5492 39.4737C11.0036 39.5018 10.4538 39.5132 9.91011 39.5668C9.61524 39.5959 9.32071 39.6297 9.02611 39.6614C8.96583 39.6678 8.90803 39.6759 8.8513 39.6851C9.1398 39.2675 9.45056 38.8665 9.78651 38.4864ZM17.6695 33.9828C17.6562 33.9919 17.6418 34 17.6291 34.0097C17.6001 34.0316 17.6047 34.0712 17.6388 34.0845C17.6843 34.1024 17.732 34.1159 17.7811 34.1266C17.9303 34.3445 18.0468 34.614 18.1283 34.7505C18.3621 35.1429 18.631 35.5167 18.9046 35.8816C18.9596 35.9549 19.0156 36.0273 19.0719 36.0996C17.7471 36.0965 16.423 36.1033 15.099 36.1537C14.4019 36.1803 13.7025 36.2026 13.0069 36.2553C12.7209 36.277 12.435 36.3134 12.1499 36.3493C13.6338 35.2688 15.3027 34.4437 17.0315 33.8311C17.0292 33.8338 17.0267 33.8358 17.0244 33.8384C16.9863 33.881 17.0431 33.9361 17.086 33.9005C17.3109 33.7132 17.5061 33.8011 17.6695 33.9828ZM24.3634 46.6836C24.3257 46.7411 24.2887 46.8004 24.2526 46.8612C24.1657 46.774 24.0444 46.7156 23.888 46.7107C22.1525 46.6562 20.4179 46.6085 18.6814 46.6073C17.8251 46.6068 16.961 46.5777 16.1057 46.6204C15.6763 46.6418 15.247 46.6674 14.8177 46.6919C14.5176 46.709 14.1988 46.7304 13.9057 46.8179C13.2303 45.6278 12.4805 44.4836 11.6617 43.3896C13.5195 43.6192 15.4091 43.5947 17.2774 43.6585C19.3942 43.7307 21.5122 43.7463 23.6297 43.7968C24.2106 43.8106 24.7914 43.8258 25.3721 43.8422C25.6719 43.8506 25.9716 43.8594 26.2714 43.8685C26.3651 43.8713 26.4621 43.874 26.5591 43.8714C26.5518 43.8867 26.5444 43.9019 26.5371 43.917C26.3737 44.2571 26.1681 44.5701 25.9286 44.8605C25.4195 45.4781 24.8044 46.0101 24.3634 46.6836ZM22.0866 50.3495C22.0223 50.1695 21.8657 50.031 21.6161 50.0424C20.1942 50.1075 18.7696 50.1526 17.3492 50.2469C16.6573 50.2928 15.9626 50.3238 15.2719 50.3847C14.9156 50.4162 14.5599 50.4747 14.2052 50.5213C13.9619 50.5532 13.7073 50.5903 13.474 50.6773C13.5192 50.1742 13.5591 49.6707 13.5938 49.1665C13.6216 48.7614 13.63 48.3526 13.6279 47.9465C13.6268 47.7409 13.6199 47.5342 13.61 47.3287C13.631 47.333 13.652 47.3351 13.6726 47.3325C13.709 47.328 13.743 47.3237 13.7745 47.3151C14.1014 47.444 14.4715 47.4725 14.8177 47.4974C15.2284 47.5268 15.639 47.5582 16.0497 47.5877C16.9236 47.6505 17.8057 47.6465 18.6814 47.6752C20.4054 47.7318 22.1298 47.7647 23.8541 47.8112C23.7741 48.157 23.7713 48.5121 23.8994 48.8469C23.8102 48.8171 23.7075 48.8309 23.6198 48.9181C23.1231 49.4124 22.6116 49.8891 22.0866 50.3495ZM17.0706 54.0261C17.0355 53.9283 16.9692 53.8385 16.8908 53.7776C16.5893 53.5436 16.0388 53.6783 15.6769 53.6961C15.2485 53.7173 14.82 53.7384 14.3915 53.7595C14.2615 53.7659 13.5978 53.8 13.1104 53.9046C13.2111 53.1384 13.3025 52.371 13.3842 51.6021C13.4013 51.4407 13.4172 51.2792 13.4329 51.1178C13.6626 51.1922 13.9121 51.2195 14.149 51.2308C14.5039 51.2478 14.8605 51.2767 15.2157 51.2823C15.9256 51.2935 16.6393 51.2582 17.3492 51.2463C18.6276 51.2249 19.9062 51.1635 21.1841 51.1127C19.9011 52.1617 18.5454 53.1189 17.1314 53.9896C17.1112 54.002 17.0907 54.0138 17.0706 54.0261ZM13.0327 54.4808C13.1407 54.4953 13.2478 54.5 13.3297 54.5084C13.741 54.5502 14.1458 54.5881 14.5592 54.5941C14.969 54.6002 15.3788 54.6062 15.7887 54.6122C15.8759 54.6134 15.963 54.6148 16.0502 54.616C14.971 55.2099 13.8586 55.7418 12.762 56.3018C12.8586 55.6957 12.9488 55.0887 13.0327 54.4808ZM24.7923 40.959C27.2518 42.0118 30.4065 42.1073 32.5201 40.3584C32.7301 40.4163 32.9624 40.4356 33.1479 40.4543C33.5645 40.4964 33.9774 40.5352 34.3961 40.5484C35.2121 40.5741 36.0289 40.6125 36.8453 40.6227C38.4969 40.6432 40.1485 40.6528 41.8001 40.6676C41.9407 40.6689 42.0532 40.6258 42.1384 40.5565C42.3057 40.8421 42.4613 41.135 42.6034 41.4352C42.8105 41.8732 42.9861 42.3258 43.1302 42.7885C43.0993 42.7831 43.0672 42.7794 43.0329 42.7788C40.8623 42.741 38.6902 42.8039 36.5192 42.813C34.3478 42.8221 32.1766 42.8128 30.0053 42.8283C29.4044 42.8327 28.8079 42.8328 28.2085 42.8777C27.8966 42.9011 27.5809 42.9113 27.272 42.962C27.2374 42.9676 27.2023 42.9726 27.1668 42.9776C26.7528 42.7339 26.2388 42.7848 25.7656 42.7758C25.2222 42.7655 24.6789 42.7563 24.1356 42.7482C23.0676 42.7322 21.9996 42.7206 20.9315 42.7132C18.8118 42.6986 16.6973 42.7531 14.5789 42.8275C13.5249 42.8645 12.475 42.9273 11.4346 43.0907C11.3647 42.9996 11.2955 42.908 11.2248 42.8177C10.4876 41.8765 9.61366 40.6716 8.40059 40.38C8.44713 40.3036 8.49434 40.2277 8.54228 40.1523C9.38273 40.3755 10.3099 40.3642 11.1686 40.411C12.1584 40.4648 13.1461 40.5021 14.1371 40.5266C16.107 40.5753 18.0764 40.6059 20.0467 40.6361C20.5935 40.6445 21.1403 40.6533 21.6871 40.6624C21.9821 40.6674 22.277 40.6731 22.572 40.6777C22.7368 40.6802 22.8841 40.6798 23.0412 40.6247C23.1866 40.5736 23.3283 40.4971 23.4689 40.4337C23.518 40.4115 23.5579 40.3788 23.5905 40.3402C23.9766 40.5726 24.3767 40.7811 24.7923 40.959ZM34.403 37.4581C34.7123 37.5446 35.0316 37.5589 35.3586 37.5838C35.7879 37.6165 36.2162 37.622 36.6466 37.6248C37.3329 37.6293 38.0193 37.6245 38.7053 37.6054C39 37.5972 39.1722 37.3986 39.2233 37.171C39.2304 37.1768 39.2377 37.1824 39.2448 37.1883C40.0798 37.8813 40.8364 38.6739 41.4775 39.5513C39.9335 39.5561 38.3893 39.5572 36.8453 39.5676C36.029 39.5732 35.2121 39.6069 34.3961 39.6281C33.9957 39.6384 33.6013 39.6719 33.2026 39.71C33.1947 39.7108 33.1864 39.7115 33.1783 39.7122C33.2206 39.6631 33.2625 39.6133 33.3035 39.5622C33.78 38.9673 34.1719 38.2344 34.403 37.4581ZM44.4417 68.6822C44.5779 68.3047 44.525 67.8997 44.5173 67.5027C44.5094 67.0954 44.505 66.6882 44.5037 66.2808C44.501 65.4844 44.4957 64.6881 44.487 63.8917C44.4693 62.2806 44.4508 60.6683 44.3879 59.0583C44.2635 55.8753 44.0239 52.7001 43.6328 49.5385C43.4427 48.0015 43.2067 46.468 42.8866 44.9526C42.8911 44.9466 42.8955 44.9403 42.9 44.9342C43.2188 44.505 43.5814 44.1083 43.8946 43.6763C43.9224 43.6379 43.934 43.5888 43.9337 43.5391C43.9452 43.5335 43.9566 43.5276 43.9683 43.5209C44.2281 43.3719 43.9935 42.9656 43.7337 43.1166C43.7637 43.0992 43.3323 41.9838 43.2866 41.8715C43.1223 41.4681 42.9377 41.0737 42.7294 40.6914C42.6038 40.4609 42.4693 40.2351 42.3285 40.0135C42.3039 39.848 42.2151 39.6946 42.0627 39.6125C41.7952 39.2265 41.5062 38.8555 41.1982 38.502C39.9373 37.0548 38.3624 35.8866 36.6418 35.0544C36.3932 34.9342 36.1372 34.834 35.8821 34.7291C35.6105 34.6172 35.3587 34.471 35.0911 34.3536C34.6556 34.1626 34.2257 34.1736 33.798 34.3758C33.7614 34.3931 33.7876 34.4498 33.8248 34.44C34.1002 34.3677 34.3823 34.3555 34.6583 34.4341C34.9288 34.511 35.1344 34.6811 35.3707 34.8229C35.7916 35.0758 36.2621 35.2406 36.6934 35.4766C37.2639 35.7888 37.8213 36.1316 38.3546 36.508C37.8021 36.5375 37.2492 36.5587 36.6961 36.5735C36.2853 36.5845 35.8747 36.5864 35.4645 36.6104C35.1726 36.6275 34.869 36.6227 34.5772 36.6702C34.6476 36.183 34.6477 35.6914 34.5597 35.2168C34.5597 35.2166 34.5597 35.2165 34.5597 35.2163C34.5384 35.1019 34.5127 34.9884 34.481 34.8762C34.4136 34.6375 34.1975 34.6017 34.0407 34.692C34.0252 34.6805 34.0095 34.6692 33.9945 34.6568C33.8066 34.5032 33.6374 34.3193 33.4903 34.126C33.1848 33.7245 32.9379 33.2597 32.7509 32.7912C32.5615 32.3168 32.4273 31.8204 32.2959 31.3272C32.2299 31.0799 32.1586 30.8339 32.0915 30.5868C32.0331 30.372 31.9906 30.1348 31.8834 29.939C31.8633 29.9024 31.8028 29.9093 31.7932 29.9509C31.7364 30.1961 31.7664 30.4757 31.7768 30.7257C31.7883 31.0032 31.8041 31.2781 31.8408 31.5534C31.9168 32.1248 32.0394 32.6865 32.2359 33.229C32.4242 33.7493 32.6728 34.2348 33.0103 34.6732C33.2346 34.9644 33.5532 35.3498 33.9221 35.5069C33.9703 36.0535 33.9648 36.6007 33.8366 37.1419C33.669 37.8502 33.3479 38.5236 32.9068 39.1005C31.9818 40.3101 30.5508 40.9935 29.0579 41.1344C27.5134 41.2801 25.9328 40.9321 24.5449 40.2478C23.0012 39.4867 21.7205 38.3124 20.5703 37.0449C19.9072 36.3143 19.2196 35.5954 18.6051 34.8224C18.4962 34.6854 18.3219 34.4072 18.1151 34.1567C18.3256 34.1548 18.5415 34.123 18.7277 34.099C19.1131 34.0491 19.4897 33.972 19.8663 33.8755C20.5703 33.6952 21.3128 33.4442 21.928 33.0473C23.2298 32.2072 23.7379 31.1415 23.9115 29.6734C23.9664 29.2093 23.1697 29.0966 23.0955 29.5621C22.9815 30.2778 22.8091 30.626 22.5823 31.3134C22.3643 31.9742 22.0484 32.2203 21.4446 32.5846C20.8778 32.9265 20.2336 33.1252 19.6092 33.3304C19.2631 33.4442 18.913 33.5479 18.564 33.6524C18.3419 33.719 18.0782 33.7771 17.8528 33.8799C17.7352 33.7759 17.6126 33.6976 17.4891 33.6679C17.4982 33.6525 17.4864 33.6286 17.4636 33.6332C17.4274 33.6405 17.3912 33.6485 17.3549 33.6561C17.3185 33.6587 17.2822 33.666 17.2459 33.6791C15.071 34.1536 12.9823 35.1639 11.2111 36.5402C11.1218 36.5778 11.0355 36.6238 10.9533 36.682C10.911 36.7119 10.8829 36.7594 10.8748 36.8086C10.6086 37.0275 10.3502 37.2547 10.1006 37.4899C8.09011 39.3841 6.81626 41.9039 5.92448 44.4956C5.046 47.0489 4.45135 49.7264 4.12437 52.4072C3.79102 55.1397 3.75259 57.9291 4.23609 60.6462C4.49569 62.1052 4.91597 63.539 5.53631 64.8847C6.09338 66.0932 7.00014 67.47 8.42437 67.6172C8.42893 67.6218 8.43321 67.6266 8.43834 67.6309C8.99716 68.0945 9.82916 67.7743 10.4134 67.4974C10.506 67.4535 10.5979 67.4073 10.6894 67.3599C10.641 67.5474 10.6192 67.7436 10.6092 67.9276C10.5881 68.3096 11.1228 68.3312 11.2241 68.0142C12.0908 68.1677 12.9859 68.1699 13.8626 68.165C14.8421 68.1596 15.8213 68.1254 16.7997 68.079C18.741 67.9867 20.68 67.8458 22.6226 67.7817C26.556 67.652 30.5002 67.9292 34.4304 68.0688C35.533 68.108 36.6355 68.1471 37.7381 68.1863C38.8645 68.2264 39.9899 68.234 41.1073 68.3875C41.5182 68.4439 41.6756 68.0383 41.5597 67.7856C41.5886 67.6158 41.5598 67.4297 41.544 67.2298C41.5145 66.8562 41.4866 66.4825 41.4604 66.1086C41.4094 65.3797 41.3601 64.6505 41.3133 63.9212C41.2186 62.4435 41.137 60.9647 41.0577 59.486C40.9 56.546 40.7793 53.6038 40.6905 50.6609C40.6688 49.9435 40.6405 49.226 40.6048 48.5091C40.6474 48.4412 40.6898 48.3732 40.7308 48.3043C40.8674 48.0749 41.0013 47.8439 41.1396 47.6155C41.417 47.1577 41.6962 46.7028 41.9879 46.2539C42.2399 45.8663 42.4997 45.4847 42.7713 45.1109C43.1084 47.9787 43.4081 50.8494 43.5457 53.7357C43.6972 56.9145 43.7775 60.0983 43.8213 63.2804C43.8335 64.1694 43.8417 65.0585 43.8511 65.9475C43.856 66.4105 43.8609 66.8731 43.8572 67.3361C43.8535 67.7788 43.7871 68.2632 43.943 68.6822C44.0339 68.9266 44.3519 68.9309 44.4417 68.6822Z" fill="black"/>
<path fill-rule="evenodd" clip-rule="evenodd" d="M36.0325 12.7253C34.3392 10.3777 31.2216 9.70261 28.5179 10.2736C23.2323 11.2442 18.1825 15.3063 17.2486 20.8307C15.7915 24.1728 16.722 29.437 20.9595 29.8303C21.5628 29.8646 22.1603 29.7247 22.7647 29.8002C26.4532 30.3937 30.8119 32.9344 34.077 29.9382C34.2406 30.0563 34.4562 30.1134 34.6397 30.0419C36.0295 29.5009 36.0947 27.9359 36.2132 26.6494C36.3663 24.9871 36.5098 23.3239 36.6437 21.66C36.6915 18.7905 37.8206 15.2048 36.0325 12.7253Z" fill="white"/>
<path fill-rule="evenodd" clip-rule="evenodd" d="M25.7848 6.74332C28.0101 6.62415 32.1105 7.65089 34.0519 8.85465C37.2151 10.8159 37.4603 14.7283 37.3312 15.4047C37.2822 15.6629 37.1256 15.9018 36.8805 15.8224C37.0884 17.5998 37.0721 18.6157 37.107 20.4034L37.131 21.5969C37.1466 22.3926 37.16 23.1884 37.1634 23.9844C37.2434 23.9543 37.3222 23.9912 37.3515 24.0684C37.3589 24.0871 37.3335 24.0974 37.3211 24.0866C37.1803 23.9628 37.2805 24.2449 37.329 24.3022C37.396 24.3811 37.5076 24.4555 37.5859 24.523L37.7986 24.7085L38.0112 24.8936C38.286 25.1324 38.5517 25.3716 38.8081 25.6288L38.8777 25.6994C39.3448 26.1773 39.9301 26.6398 40.2208 27.2578C40.4986 27.848 40.4129 28.5171 39.9515 28.9876C39.7836 29.1584 39.5876 29.289 39.3746 29.3877C39.7538 30.0165 39.809 30.8479 39.4135 31.4949C39.0174 32.1441 38.2558 32.4841 37.5222 32.4319C37.4997 32.5244 37.4648 32.6146 37.4186 32.7003C37.1277 33.2387 36.5491 33.3086 36.0005 33.2798L35.9791 33.2786C34.7442 33.207 33.556 32.8955 32.4743 32.29C32.0991 32.3155 31.7645 32.005 31.6912 31.6645C31.4941 31.6572 31.2958 31.6407 31.0935 31.6174C30.4935 31.5477 29.8783 31.4177 29.3493 31.1107C29.2681 31.0636 29.3059 30.9393 29.396 30.937C30.0405 30.9222 30.6856 30.9671 31.329 30.8967C31.9194 30.8326 32.5487 30.6686 33.0991 30.4456C34.0884 30.0438 34.9369 29.3622 35.4051 28.4178C36.0112 27.1954 35.956 25.7273 36.022 24.3993C36.095 22.9293 36.1849 21.4607 36.281 19.9922L36.3276 19.2883C36.4209 17.9163 36.4982 17.1824 36.7346 15.7583C36.022 15.8224 33.0615 14.7491 32.1408 12.9933C30.3935 16.7284 21.5408 15.1998 21.1481 20.9499C21.1448 20.9987 21.0681 20.9851 21.0653 20.9385L21.058 20.8075C21.0545 20.7427 21.0513 20.679 21.0491 20.6157L21.0473 20.5527L20.9081 20.5544C20.9081 20.5719 20.8834 20.5782 20.8772 20.5595C20.7459 20.1843 20.1205 20.3052 19.8484 20.3943C19.6034 20.4749 19.3724 20.5986 19.1651 20.7513C18.7487 21.0577 18.4259 21.4703 18.3189 21.9861C18.1155 22.9657 18.7346 23.9634 19.5566 24.4362C20.0749 24.7341 20.6428 24.9265 21.1397 25.2642C21.5786 25.5621 21.9876 25.9111 22.342 26.3078C23.7459 27.8793 24.5718 30.2628 23.9076 32.3371C23.8569 32.4954 23.7228 32.6764 23.5453 32.702C23.2518 32.7446 22.9583 32.7014 22.7938 32.42C22.7296 32.3099 22.6991 32.1844 22.7059 32.0607C22.5921 32.4545 22.2231 32.8439 21.8828 32.9903C21.4191 33.1901 20.8969 33.1304 20.4879 32.8728L20.4362 32.9113C19.771 33.4045 19.028 33.854 18.1758 33.7633C17.5583 33.6974 16.9521 33.3808 16.6107 32.8813C16.1566 33.1384 15.6715 33.3432 15.1712 33.4829L15.118 33.4976C14.4297 33.6864 13.5517 33.8594 12.9093 33.476C12.2924 33.1077 12.0873 32.3036 12.2321 31.6322C12.2496 31.5522 12.2715 31.4745 12.2986 31.399C11.8343 31.4239 11.3707 31.3791 10.9301 31.2418C10.48 31.1016 10.0507 30.832 9.83491 30.3951C9.59153 29.9007 9.65632 29.3389 9.83773 28.8355C10.1279 28.0279 10.5943 27.3094 11.1752 26.6835C11.7338 26.0811 12.4075 25.57 13.1078 25.144L13.2258 25.0728C13.8561 24.6941 14.6163 24.2503 15.3611 24.2795C15.3589 24.2699 15.3572 24.2607 15.356 24.2512C15.2434 23.4152 15.2563 22.5628 15.2298 21.72C15.2056 20.9448 15.178 20.1696 15.16 19.3938C15.1307 18.0748 15.1403 16.7503 15.311 15.4405C15.4625 14.2782 15.7352 13.1448 16.2327 12.0807C16.7549 10.9628 17.5414 10.0088 18.5127 9.25855C20.551 7.6837 23.2434 6.87953 25.7848 6.74332ZM18.8614 22.2347C19.0834 21.8131 19.5887 21.6803 20.0321 21.7563C20.6535 21.863 21.076 22.4102 21.4388 22.8806C21.8197 23.3738 21.0253 23.8385 20.8208 23.3608L20.7724 23.2479C20.6082 22.8689 20.4144 22.4694 20.0794 22.2223C19.7234 21.9601 19.2208 21.9215 18.9065 22.2699C18.8839 22.2955 18.8462 22.2626 18.8614 22.2347Z" fill="black"/>
<path fill-rule="evenodd" clip-rule="evenodd" d="M28.1745 24.3538C29.1402 24.2358 30.0764 24.5336 31.0205 24.6837C31.5189 24.763 32.018 24.8221 32.5225 24.8441C32.6239 24.8486 32.7255 24.8512 32.827 24.8533C32.8364 24.7632 32.8865 24.6806 32.9949 24.631C33.217 24.5296 33.3948 24.4838 33.6388 24.4936C33.8621 24.5025 34.0861 24.5256 34.306 24.5662C34.7053 24.6399 35.1063 24.8072 35.3984 25.0979C36.0743 25.7706 35.9714 26.8511 35.4491 27.5838C34.3701 29.0978 32.4008 29.1681 30.7142 29.1483L30.5585 29.1463C29.0228 29.1241 26.8256 29.3548 26.1279 27.5947C25.8713 26.9475 25.907 26.1973 26.2211 25.5765C26.5958 24.8361 27.3845 24.4504 28.1745 24.3538ZM32.9716 26.8746L32.9578 26.8752C32.2498 26.9027 31.5418 26.922 30.8334 26.9346C30.8546 27.1179 30.8762 27.3012 30.9009 27.4841C30.9203 27.628 30.9411 27.7718 30.9628 27.9153C30.9719 27.9761 31.0056 28.0705 30.9961 28.1307L30.9926 28.1545C31.029 28.1711 31.062 28.1978 31.0866 28.2365C31.0951 28.2499 31.1013 28.2634 31.1075 28.2769C31.6575 28.2813 32.2494 28.2705 32.8101 28.1698L32.8113 28.1575C32.8214 28.0854 32.8512 28.0368 32.8908 28.0035C32.9302 27.7734 32.9266 27.5282 32.9418 27.2999C32.9513 27.1581 32.9616 27.0164 32.9716 26.8746ZM30.2923 26.9444C29.7819 26.9531 29.2714 26.9599 28.7611 26.9536L28.5295 26.95C28.5784 27.2143 28.6316 27.4778 28.6759 27.7439C28.722 28.0213 28.4797 28.1976 28.2699 28.1904C28.2935 28.1943 28.317 28.1984 28.3405 28.2017C28.9959 28.2951 29.6763 28.2703 30.3414 28.2696C30.3056 28.0592 30.3201 27.8218 30.3147 27.6462L30.3137 27.619C30.3035 27.394 30.2964 27.1692 30.2923 26.9444ZM26.8257 26.8959C26.8434 27.0333 26.8779 27.1678 26.9294 27.2931C27.1473 27.8223 27.6467 28.0692 28.1752 28.1732C28.0835 28.1413 28.0107 28.0647 27.9923 27.9334C27.9465 27.6071 27.93 27.2753 27.9288 26.944C27.5605 26.9405 27.1897 26.9326 26.8257 26.8959ZM34.8921 26.7829C34.6299 26.8452 34.3252 26.8166 34.068 26.8284C33.827 26.8394 33.5859 26.849 33.3449 26.8589C33.3562 27.0246 33.3673 27.1903 33.3793 27.3559C33.3948 27.57 33.3963 27.7963 33.437 28.0094C33.922 27.8427 34.3567 27.5753 34.6827 27.1477C34.7639 27.0411 34.8367 26.9161 34.8921 26.7829ZM28.0637 25.2221C27.6272 25.3262 27.2141 25.5461 26.9921 25.9484C26.8604 26.1871 26.8024 26.4701 26.8135 26.7489C27.1824 26.7057 27.5577 26.6893 27.9311 26.6757C27.9324 26.608 27.9339 26.5403 27.936 26.4728L27.9417 26.2997C27.9519 25.9696 27.957 25.5551 28.0637 25.2221ZM30.3228 25.2623L30.1307 25.2406C29.597 25.1793 29.0636 25.115 28.5299 25.1519C28.4526 25.1573 28.3742 25.1657 28.2956 25.1773C28.39 25.5202 28.382 25.923 28.4214 26.2624C28.4367 26.3937 28.4559 26.5238 28.4772 26.6535L28.5698 26.6491C29.1425 26.6179 29.7157 26.5986 30.2889 26.5757C30.2888 26.4673 30.2894 26.3589 30.2911 26.2504L30.2932 26.1419C30.2998 25.8647 30.282 25.5525 30.3228 25.2623ZM33.0028 25.2183C32.4438 25.3092 31.8661 25.3285 31.3171 25.3292C31.0978 25.3295 30.8786 25.3159 30.6595 25.2964C30.6738 25.4139 30.6812 25.5327 30.6919 25.6486C30.7136 25.8827 30.7383 26.1165 30.7652 26.3501L30.7891 26.5545C31.4936 26.5223 32.198 26.4875 32.9023 26.4515L33.0017 26.4461L33.0295 26.0534C33.0485 25.7915 33.0693 25.5296 33.0988 25.2689L33.0767 25.2609C33.0507 25.2501 33.0261 25.2353 33.0028 25.2183ZM33.2455 25.3158C33.2763 25.6861 33.2934 26.058 33.316 26.4289L33.7803 26.404C33.8577 26.3997 33.9351 26.3954 34.0124 26.3909C34.3133 26.3734 34.6999 26.2816 34.9974 26.3673C35.0201 26.0949 34.9428 25.8295 34.6987 25.6465C34.2703 25.3251 33.7248 25.4395 33.2455 25.3158ZM31.6592 22.0053C32.3506 21.6065 34.0853 21.1988 34.1952 22.4522C34.2457 23.0289 33.82 23.5068 33.323 23.7201L33.3043 23.7279C32.8381 23.921 32.0118 24.139 31.6083 23.7204C31.2726 23.3719 31.7179 22.7472 32.1352 23.0326C32.3496 23.1793 32.8009 23.0712 33.0402 23.0014L33.0552 22.997C33.3134 22.9206 33.6576 22.6759 33.5508 22.3557C33.4563 22.0724 33.0543 22.0206 32.8025 22.0114C32.4267 21.9979 32.061 22.0858 31.6886 22.1144C31.6296 22.1189 31.6114 22.0329 31.6592 22.0053ZM34.5232 19.9899C35.4615 19.9456 36.0452 20.9777 35.8295 21.8234C35.7922 21.9693 35.6302 22.1125 35.4738 22.0961L35.4344 22.0925C35.4143 22.0905 35.3942 22.088 35.3757 22.0828C35.2272 22.0414 35.0941 21.8858 35.1049 21.7245L35.1078 21.6775C35.1297 21.278 35.0867 20.8178 34.6154 20.721C34.2157 20.639 33.9925 21.0265 33.9878 21.3833C33.9869 21.4466 33.9162 21.4908 33.8606 21.4568C33.5717 21.2796 33.5216 20.9273 33.632 20.6238C33.7719 20.2393 34.122 20.0088 34.5232 19.9899ZM27.5596 20.2113C28.2425 19.9818 28.9792 20.3484 29.3099 20.9566C29.4259 20.9904 29.5417 21.0805 29.5256 21.2184C29.5023 21.4168 29.4673 21.5419 29.3307 21.6923C29.1171 21.9277 28.7171 21.8073 28.6283 21.5176L28.6245 21.5045C28.5237 21.13 28.1144 20.8829 27.7416 21.014C27.3062 21.1671 27.3188 21.6304 27.0133 21.9004C26.9774 21.9321 26.9344 21.9371 26.8913 21.9162C26.5669 21.7582 26.6252 21.2829 26.7409 21.0108C26.8926 20.6538 27.1874 20.3363 27.5596 20.2113ZM26.6296 18.1224C27.183 17.5536 28.6259 17.0033 29.0044 18.0536C29.0765 18.2536 28.923 18.5233 28.7163 18.5648C28.3777 18.6327 28.0773 18.4846 27.7409 18.5112C27.4687 18.5328 27.1847 18.6245 26.967 18.7944C26.364 19.265 26.2314 20.0609 25.8113 20.6599C25.7909 20.689 25.7511 20.6768 25.7474 20.6424C25.6517 19.7704 26.0235 18.7453 26.6296 18.1224ZM33.8462 17.5625C34.2135 17.4318 34.6293 17.443 34.9984 17.5589C35.3702 17.6757 35.7116 17.8975 35.9746 18.1873C36.0939 18.3188 36.2043 18.464 36.2929 18.6185C36.3399 18.7004 36.3894 18.8696 36.4429 18.9703C36.7321 19.1386 36.8558 19.5219 36.5968 19.7946L36.5851 19.8066L36.5505 19.8412C36.4113 19.98 36.2013 20.0402 36.0113 19.9848C35.5861 19.8608 35.5344 19.5234 35.3872 19.1653C35.29 18.9288 35.1234 18.7195 34.9214 18.5657C34.444 18.2025 33.6613 18.0868 33.0866 18.258C33.0561 18.2671 33.0201 18.2278 33.0419 18.1994C33.1508 18.0572 33.2136 17.9406 33.3594 17.826C33.5074 17.7096 33.6689 17.6256 33.8462 17.5625Z" fill="black"/>
<path fill-rule="evenodd" clip-rule="evenodd" d="M35.6372 17.7436C36.9596 17.7436 37.7142 18.0301 37.9907 18.0524L37.999 18.053C38.1141 18.0604 38.2172 18.0701 38.3255 18.1123C38.7236 18.2667 38.7884 18.6872 38.5561 18.9523C38.5398 19.5007 38.6114 20.1415 38.4886 20.6917C38.337 23.0112 37.2541 23.4026 36.6386 23.5455C36.3296 23.6172 35.9633 23.6458 35.635 23.5701C35.0751 23.549 34.5214 23.3724 34.0478 23.0649C33.3881 22.6363 32.8981 21.9776 32.7391 21.1958C32.6638 20.8232 32.6286 20.4353 32.6696 20.0565L32.6757 20.0043C32.4612 19.901 32.2128 19.8814 31.9566 19.8723C31.8343 19.8679 31.7137 19.864 31.5965 19.8692C31.482 19.8821 31.3688 19.8993 31.2553 19.9226C31.1314 19.9603 31.0144 20.0225 30.9063 20.1209L30.8988 20.2647C30.8785 20.6237 30.8317 20.9838 30.7596 21.336C30.653 21.8557 30.4816 22.352 30.1168 22.7207C29.9933 22.9065 29.8405 23.0723 29.655 23.2159C28.9812 23.7385 28.0657 23.9304 27.2255 23.8581C25.5198 23.7115 24.5338 22.3475 24.3066 21.7645L24.2931 21.7291C24.1289 21.2957 23.9981 20.7333 23.4794 20.6402L23.3691 20.6202C23.1325 20.5755 22.9141 20.5132 22.7753 20.2806C22.7145 20.179 22.6832 20.0654 22.6755 19.9496C22.5945 19.9559 22.5137 19.9619 22.4331 19.9677C21.7904 20.1046 17.9353 20.2207 17.6276 20.2207C17.6276 20.2207 17.0361 20.4715 16.7864 20.2772C16.6133 20.1421 16.5563 19.962 16.6516 19.758C16.7954 19.4511 17.4587 19.2664 17.7532 19.208C17.7532 19.208 22.5062 19.2477 22.8482 19.1824C23.0599 18.9625 23.4385 18.9926 23.7549 18.9579C24.0168 18.7698 24.3831 18.6438 24.6725 18.5594C24.7315 18.5369 24.7899 18.5151 24.8467 18.4946C25.3773 18.3043 25.9287 18.2035 26.4886 18.1494C27.066 18.0941 27.645 18.1191 28.219 18.1983C28.4609 18.2314 28.7005 18.2741 28.9384 18.33C29.3645 18.3866 29.788 18.4798 30.2142 18.5903L30.2995 18.6127C30.7483 18.7312 31.2095 18.8337 31.6741 18.7533C32.0523 18.6884 32.416 18.5417 32.7648 18.3832L32.8102 18.3624C33.577 18.0097 34.7745 17.7436 35.6372 17.7436ZM28.8923 19.0331C28.6094 18.9705 28.4886 19.4099 28.7724 19.4727C28.9734 19.5172 29.1437 19.6193 29.2588 19.7923L29.2709 19.8111C29.4253 20.0587 29.8158 19.8301 29.6603 19.581C29.4854 19.3006 29.2135 19.1043 28.8923 19.0331ZM37.1788 18.7607C37.0791 18.6899 36.9282 18.7425 36.8703 18.8425C36.8065 18.9526 36.8483 19.0752 36.9417 19.1473L36.9512 19.1543C37.0369 19.2151 37.1204 19.3242 37.1308 19.4359L37.1318 19.4499C37.143 19.7423 37.5941 19.7438 37.5828 19.4499C37.5718 19.1624 37.4066 18.9222 37.1788 18.7607Z" fill="black"/>
</g>
<rect x="0.5" y="0.5" width="49" height="49" rx="16.5" stroke="#F5F4F3"/>
<defs>
<clipPath id="clip0_106_11055">
<rect x="1" y="1" width="48" height="48" rx="16" fill="white"/>
</clipPath>
</defs>
</svg>
