<svg width="32" height="32" viewBox="0 0 32 32" fill="none" xmlns="http://www.w3.org/2000/svg">
<path d="M12.15 23H9.175V13.6375H12.15V23ZM10.6625 12.325C9.7 12.325 9 11.625 9 10.6625C9 9.7 9.7875 9 10.6625 9C11.625 9 12.325 9.7 12.325 10.6625C12.325 11.625 11.625 12.325 10.6625 12.325ZM23 23H20.025V17.925C20.025 16.4375 19.4125 16 18.5375 16C17.6625 16 16.7875 16.7 16.7875 18.0125V23H13.8125V13.6375H16.6125V14.95C16.875 14.3375 17.925 13.375 19.4125 13.375C21.075 13.375 22.825 14.3375 22.825 17.225V23H23Z" fill="#000"/>
</svg>
