<svg width="16" height="16" viewBox="0 0 16 16" fill="none" xmlns="http://www.w3.org/2000/svg">
<path d="M8.00082 14.5C8.73415 14.5 9.33415 13.9 9.33415 13.1667H6.66749C6.66749 13.9 7.26082 14.5 8.00082 14.5ZM12.0008 10.5V7.16667C12.0008 5.12 10.9075 3.40667 9.00082 2.95333V2.5C9.00082 1.94667 8.55415 1.5 8.00082 1.5C7.44749 1.5 7.00082 1.94667 7.00082 2.5V2.95333C5.08749 3.40667 4.00082 5.11333 4.00082 7.16667V10.5L3.14082 11.36C2.72082 11.78 3.01415 12.5 3.60749 12.5H12.3875C12.9808 12.5 13.2808 11.78 12.8608 11.36L12.0008 10.5Z" fill="black"/>
</svg>
